<svg xmlns="http://www.w3.org/2000/svg" version="1.1" xmlns:xlink="http://www.w3.org/1999/xlink" xmlns:svgjs="http://svgjs.dev/svgjs" width="1500" height="1500" viewBox="0 0 1500 1500"><rect width="1500" height="1500" fill="#141c27"></rect><g transform="matrix(0.6666666666666666,0,0,0.6666666666666666,249.78425655976667,249.78425655976673)"><svg viewBox="0 0 343 343" data-background-color="#141c27" preserveAspectRatio="xMidYMid meet" height="1500" width="1500" xmlns="http://www.w3.org/2000/svg" xmlns:xlink="http://www.w3.org/1999/xlink"><g id="tight-bounds" transform="matrix(1,0,0,1,0.0740000000000407,0.07400000000001228)"><svg viewBox="0 0 342.85155851775386 342.85155851775386" height="342.85155851775386" width="342.85155851775386"><g><svg></svg></g><g><svg viewBox="0 0 342.85155851775386 342.85155851775386" height="342.85155851775386" width="342.85155851775386"><g><path d="M0 171.426c0-94.676 76.75-171.426 171.426-171.426 94.676 0 171.426 76.75 171.426 171.426 0 94.676-76.75 171.426-171.426 171.426-94.676 0-171.426-76.75-171.426-171.426zM171.426 340.2c93.212 0 168.775-75.563 168.774-168.774 0-93.212-75.563-168.775-168.774-168.775-93.212 0-168.775 75.563-168.775 168.775 0 93.212 75.563 168.775 168.775 168.774z" data-fill-palette-color="tertiary" fill="#dee0e4" stroke="transparent"></path><ellipse rx="164.56874808852186" ry="164.56874808852186" cx="171.42577925887693" cy="171.42577925887693" fill="#dee0e4" stroke="transparent" stroke-width="0" fill-opacity="1" data-fill-palette-color="tertiary"></ellipse></g><g transform="matrix(1,0,0,1,64.84655864529837,103.04083689115838)"><svg viewBox="0 0 213.1584412271571 136.7698847354371" height="136.7698847354371" width="213.1584412271571"><g><svg viewBox="0 0 213.1584412271571 136.7698847354371" height="136.7698847354371" width="213.1584412271571"><g transform="matrix(1,0,0,1,0,82.26530082671013)"><svg viewBox="0 0 213.1584412271571 54.50458390872697" height="54.50458390872697" width="213.1584412271571"><g id="textblocktransform"><svg viewBox="0 0 213.1584412271571 54.50458390872697" height="54.50458390872697" width="213.1584412271571" id="textblock"><g><svg viewBox="0 0 213.1584412271571 29.39716813589463" height="29.39716813589463" width="213.1584412271571"><g transform="matrix(1,0,0,1,0,0)"><svg width="213.1584412271571" viewBox="3.85 -37.45 275.88 38.050000000000004" height="29.39716813589463" data-palette-color="#141c27"><path d="M11.45 0L3.85 0 3.85-34.9 11.45-34.9 11.45-21 24.75-21 24.75-34.9 32.35-34.9 32.35 0 24.75 0 24.75-14.3 11.45-14.3 11.45 0ZM46.05 0.6L46.05 0.6Q42.1 0.6 40-1.53 37.9-3.65 37.9-7.05L37.9-7.05Q37.9-9.85 39.27-11.65 40.65-13.45 43.17-14.35 45.7-15.25 49.15-15.25L49.15-15.25 53.3-15.25 53.3-16.9Q53.3-18.8 52.3-19.93 51.3-21.05 48.95-21.05L48.95-21.05Q46.75-21.05 45.45-20.1 44.15-19.15 43.3-17.95L43.3-17.95 38.9-21.85Q40.5-24.2 42.95-25.53 45.4-26.85 49.5-26.85L49.5-26.85Q55.05-26.85 57.87-24.38 60.7-21.9 60.7-17.25L60.7-17.25 60.7-5.75 63.15-5.75 63.15 0 59.05 0Q57.2 0 55.92-1.07 54.65-2.15 54.2-3.95L54.2-3.95 54.05-4.6 53.75-4.6Q53.15-2.05 51.1-0.73 49.05 0.6 46.05 0.6ZM48.8-4.55L48.8-4.55Q50.05-4.55 51.05-4.9 52.05-5.25 52.67-6 53.3-6.75 53.3-7.95L53.3-7.95 53.3-11.05 49.7-11.05Q47.55-11.05 46.45-10.3 45.35-9.55 45.35-8.1L45.35-8.1 45.35-7.35Q45.35-5.95 46.25-5.25 47.15-4.55 48.8-4.55ZM88.6 0L66.6 0 66.6-5.85 79.65-20.5 67.05-20.5 67.05-26.25 88.25-26.25 88.25-20.45 75.15-5.75 88.6-5.75 88.6 0ZM101.39 0L93.99 0 93.99-26.25 101.39-26.25 101.39 0ZM97.69-29.05L97.69-29.05Q95.44-29.05 94.42-30.1 93.39-31.15 93.39-32.7L93.39-32.7 93.39-33.8Q93.39-35.4 94.42-36.43 95.44-37.45 97.69-37.45L97.69-37.45Q99.94-37.45 100.97-36.43 101.99-35.4 101.99-33.8L101.99-33.8 101.99-32.7Q101.99-31.15 100.97-30.1 99.94-29.05 97.69-29.05ZM115.69 0L108.29 0 108.29-26.25 115.69-26.25 115.69-20.55 115.94-20.55Q116.24-22 117.04-23.3 117.84-24.6 119.22-25.43 120.59-26.25 122.64-26.25L122.64-26.25 123.94-26.25 123.94-19.35 122.09-19.35Q119.94-19.35 118.52-18.98 117.09-18.6 116.39-17.75 115.69-16.9 115.69-15.35L115.69-15.35 115.69 0ZM149.64 0.55L149.64 0.55Q144.49 0.55 141.66-2.15 138.84-4.85 138.09-9.25L138.09-9.25 145.19-10.65Q145.59-8.45 146.69-7.28 147.79-6.1 149.54-6.1L149.54-6.1Q151.19-6.1 152.36-7.15 153.54-8.2 153.54-10.45L153.54-10.45 153.54-28.8 142.94-28.8 142.94-34.9 161.14-34.9 161.14-10.1Q161.14-6.9 159.76-4.5 158.39-2.1 155.81-0.78 153.24 0.55 149.64 0.55ZM174.63 0.6L174.63 0.6Q170.68 0.6 168.58-1.53 166.48-3.65 166.48-7.05L166.48-7.05Q166.48-9.85 167.86-11.65 169.23-13.45 171.76-14.35 174.28-15.25 177.73-15.25L177.73-15.25 181.88-15.25 181.88-16.9Q181.88-18.8 180.88-19.93 179.88-21.05 177.53-21.05L177.53-21.05Q175.33-21.05 174.03-20.1 172.73-19.15 171.88-17.95L171.88-17.95 167.48-21.85Q169.08-24.2 171.53-25.53 173.98-26.85 178.08-26.85L178.08-26.85Q183.63-26.85 186.46-24.38 189.28-21.9 189.28-17.25L189.28-17.25 189.28-5.75 191.73-5.75 191.73 0 187.63 0Q185.78 0 184.51-1.07 183.23-2.15 182.78-3.95L182.78-3.95 182.63-4.6 182.33-4.6Q181.73-2.05 179.68-0.73 177.63 0.6 174.63 0.6ZM177.38-4.55L177.38-4.55Q178.63-4.55 179.63-4.9 180.63-5.25 181.26-6 181.88-6.75 181.88-7.95L181.88-7.95 181.88-11.05 178.28-11.05Q176.13-11.05 175.03-10.3 173.93-9.55 173.93-8.1L173.93-8.1 173.93-7.35Q173.93-5.95 174.83-5.25 175.73-4.55 177.38-4.55ZM204.08 0L196.68 0 196.68-26.25 204.08-26.25 204.08-21.8 204.38-21.8Q205.08-23.85 206.83-25.35 208.58-26.85 211.68-26.85L211.68-26.85Q215.68-26.85 217.78-24.13 219.88-21.4 219.88-16.45L219.88-16.45 219.88 0 212.48 0 212.48-15.85Q212.48-18.35 211.68-19.6 210.88-20.85 208.83-20.85L208.83-20.85Q207.63-20.85 206.56-20.43 205.48-20 204.78-19.15 204.08-18.3 204.08-17L204.08-17 204.08 0ZM232.88 0.6L232.88 0.6Q228.93 0.6 226.83-1.53 224.73-3.65 224.73-7.05L224.73-7.05Q224.73-9.85 226.1-11.65 227.48-13.45 230-14.35 232.53-15.25 235.98-15.25L235.98-15.25 240.13-15.25 240.13-16.9Q240.13-18.8 239.13-19.93 238.13-21.05 235.78-21.05L235.78-21.05Q233.58-21.05 232.28-20.1 230.98-19.15 230.13-17.95L230.13-17.95 225.73-21.85Q227.33-24.2 229.78-25.53 232.23-26.85 236.33-26.85L236.33-26.85Q241.88-26.85 244.7-24.38 247.53-21.9 247.53-17.25L247.53-17.25 247.53-5.75 249.98-5.75 249.98 0 245.88 0Q244.03 0 242.75-1.07 241.48-2.15 241.03-3.95L241.03-3.95 240.88-4.6 240.58-4.6Q239.98-2.05 237.93-0.73 235.88 0.6 232.88 0.6ZM235.63-4.55L235.63-4.55Q236.88-4.55 237.88-4.9 238.88-5.25 239.5-6 240.13-6.75 240.13-7.95L240.13-7.95 240.13-11.05 236.53-11.05Q234.38-11.05 233.28-10.3 232.18-9.55 232.18-8.1L232.18-8.1 232.18-7.35Q232.18-5.95 233.08-5.25 233.98-4.55 235.63-4.55ZM269.63 0.6L269.63 0.6Q267.08 0.6 265.1-0.83 263.13-2.25 262.58-4.4L262.58-4.4 262.33-4.4 262.33 0 254.93 0 254.93-37 262.33-37 262.33-21.85 262.58-21.85Q263.13-24.05 265.1-25.45 267.08-26.85 269.63-26.85L269.63-26.85Q272.98-26.85 275.2-25.28 277.43-23.7 278.58-20.65 279.73-17.6 279.73-13.15L279.73-13.15Q279.73-8.7 278.58-5.63 277.43-2.55 275.2-0.98 272.98 0.6 269.63 0.6ZM267.18-5.4L267.18-5.4Q269.28-5.4 270.65-6.9 272.03-8.4 272.03-10.85L272.03-10.85 272.03-15.4Q272.03-17.9 270.65-19.38 269.28-20.85 267.18-20.85L267.18-20.85Q265.78-20.85 264.68-20.4 263.58-19.95 262.95-19.07 262.33-18.2 262.33-17L262.33-17 262.33-9.25Q262.33-8.05 262.95-7.18 263.58-6.3 264.68-5.85 265.78-5.4 267.18-5.4Z" opacity="1" transform="matrix(1,0,0,1,0,0)" fill="#141c27" class="wordmark-text-0" data-fill-palette-color="quaternary" id="text-0"></path></svg></g></svg></g><g transform="matrix(1,0,0,1,0,36.33713400074409)"><svg viewBox="0 0 213.1584412271571 18.16744990798288" height="18.16744990798288" width="213.1584412271571"><g transform="matrix(1,0,0,1,0,0)"><svg width="213.1584412271571" viewBox="-0.15 -33.35 553.8 47.2" height="18.16744990798288" data-palette-color="#141c27"><path d="M6.2 7.35L6.2 7.35Q5.2 7.35 4.08 6.83 2.95 6.3 2.15 5.43 1.35 4.55 1.2 3.5L1.2 3.5Q1.15 3.05 1.13 2.6 1.1 2.15 0.9 1.7L0.9 1.7Q0.5 1.3 0.18 1-0.15 0.7-0.15 0.05L-0.15 0.05Q-0.15-1.45 0.25-3.15 0.65-4.85 1.53-6.35 2.4-7.85 3.85-8.78 5.3-9.7 7.35-9.7L7.35-9.7Q7.8-9.7 8.05-9.35L8.05-9.35 8.45-9.35Q9.2-9.35 9.73-8.72 10.25-8.1 10.58-7.18 10.9-6.25 11.05-5.38 11.2-4.5 11.2-4L11.2-4Q11.2-2.4 10.13-1.63 9.05-0.85 7.75-0.4L7.75-0.4Q7.25-0.2 6.88-0.53 6.5-0.85 6.5-1.25L6.5-1.25Q6.5-1.9 7.15-2.1L7.15-2.1Q7.8-2.35 8.58-2.78 9.35-3.2 9.35-4L9.35-4Q9.35-4.4 9.22-5.1 9.1-5.8 8.88-6.5 8.65-7.2 8.35-7.5L8.35-7.5Q8.05-7.5 7.78-7.6 7.5-7.7 7.2-7.7L7.2-7.7Q6.65-7.7 5.88-7.45 5.1-7.2 4.53-6.7 3.95-6.2 3.95-5.45L3.95-5.45Q3.95-5.1 3.98-4.78 4-4.45 4-4.15L4-4.15Q4-3.6 3.83-3.13 3.65-2.65 3.1-2.25L3.1-2.25 2.8-2.05Q2.75-1.75 2.73-1.43 2.7-1.1 2.7-0.8L2.7-0.8Q2.7-0.35 2.73 0.1 2.75 0.55 2.75 1.05L2.75 1.05Q2.95 1.4 3.2 1.68 3.45 1.95 3.6 2.4L3.6 2.4Q4 3.75 4.6 4.53 5.2 5.3 6.45 5.45L6.45 5.45Q6.75 5.4 7.03 5.3 7.3 5.2 7.55 5.1L7.55 5.1Q7.75 5 7.95 4.9 8.15 4.8 8.5 4.75L8.5 4.75 8.55 4.7Q8.95 4.6 9.2 4.6L9.2 4.6 9.3 4.55Q10.2 4.3 10.58 3.83 10.95 3.35 11.25 2.8 11.55 2.25 12.3 1.9L12.3 1.9 12.5 1.8Q12.75 1.65 12.95 1.3L12.95 1.3Q12.95 1.15 13.1 0.45 13.25-0.25 13.48-1.15 13.7-2.05 13.9-2.83 14.1-3.6 14.15-3.9L14.15-3.9Q14.3-4.65 14.3-5.3L14.3-5.3Q14.3-6 14.3-6.68 14.3-7.35 14.5-8L14.5-8Q14.75-8.65 15.13-9.45 15.5-10.25 15.5-11L15.5-11Q15.5-11.3 15.45-11.45L15.45-11.45Q15.3-11.9 15.3-12.4L15.3-12.4Q15.3-13.25 15.9-13.65L15.9-13.65Q15.95-13.75 15.95-13.88 15.95-14 16-14.2L16-14.2 15.95-14.35Q15.4-14 15.1-14L15.1-14Q14.75-14 14.58-14.33 14.4-14.65 13.75-14.65L13.75-14.65Q13.45-14.65 13.25-14.78 13.05-14.9 12.85-15.1L12.85-15.1 12.1-15.1Q11.25-14.85 10.15-13.6L10.15-13.6Q9.9-13.35 9.75-13.3L9.75-13.3Q9.65-13.1 9.65-13.05L9.65-13.05Q9.65-12.6 9.38-12.35 9.1-12.1 8.75-12.1L8.75-12.1Q8.4-12.1 8.1-12.35 7.8-12.6 7.8-13.05L7.8-13.05Q7.8-13.95 8.45-14.8 9.1-15.65 10.05-16.25 11-16.85 11.85-16.9L11.85-16.9Q12.1-17 12.38-17 12.65-17 12.9-17L12.9-17Q13.2-17 13.35-16.95L13.35-16.95Q14.15-16.95 14.8-16.93 15.45-16.9 16.1-16.7L16.1-16.7Q16.25-17.1 16.35-17.5 16.45-17.9 16.45-18.3L16.45-18.3Q16.3-18.75 16.1-19.1 15.9-19.45 15.9-19.85L15.9-19.85Q15.9-20.3 16.15-20.65L16.15-20.65Q15.4-21.1 15.4-22.05L15.4-22.05Q15.4-22.25 15.43-22.43 15.45-22.6 15.4-22.8L15.4-22.8Q15.05-23.2 14.85-23.55 14.65-23.9 14.75-24.45L14.75-24.45Q14.9-25.1 14.35-26 13.8-26.9 12.98-27.6 12.15-28.3 11.35-28.3L11.35-28.3Q10.85-28.3 10.38-28.2 9.9-28.1 9.45-28L9.45-28Q9.5-27.2 9.8-27.13 10.1-27.05 10.6-27.05L10.6-27.05Q11-27.05 11.23-26.78 11.45-26.5 11.45-26.15L11.45-26.15Q11.45-25.85 11.23-25.58 11-25.3 10.6-25.25L10.6-25.25Q10.45-25.2 10.3-25.2 10.15-25.2 10.05-25.2L10.05-25.2Q8.65-25.2 8.1-26.23 7.55-27.25 7.55-28.4L7.55-28.4Q7.55-28.95 8.1-29.35L8.1-29.35Q8.1-29.4 8.2-29.5L8.2-29.5Q8.35-29.65 9-30.1 9.65-30.55 10.35-30.95 11.05-31.35 11.25-31.35L11.25-31.35Q11.8-31.35 12.3-31.1 12.8-30.85 13.3-30.85L13.3-30.85Q14.35-30.85 14.7-30.48 15.05-30.1 15.55-30.1L15.55-30.1Q15.95-30.1 16.2-29.83 16.45-29.55 16.45-29.15L16.45-29.15Q16.45-28.35 16.88-27.65 17.3-26.95 17.7-26.18 18.1-25.4 18.1-24.35L18.1-24.35Q18.1-24.15 18.07-23.95 18.05-23.75 18-23.5L18-23.5Q18.3-23.05 18.45-21.8 18.6-20.55 18.6-19.35L18.6-19.35Q18.6-17.75 18.35-17.15L18.35-17.15Q18.15-16.75 18.07-16.5 18-16.25 17.9-16L17.9-16Q18.1-15.9 18.15-15.85L18.15-15.85Q18.4-15.75 18.6-15.68 18.8-15.6 19-15.6L19-15.6Q19.2-15.7 19.4-15.78 19.6-15.85 19.8-15.85L19.8-15.85Q20.65-15.85 21.63-15.68 22.6-15.5 23.25-15.5L23.25-15.5Q23.4-15.5 23.68-15.65 23.95-15.8 24.35-15.8L24.35-15.8Q24.45-15.8 24.58-15.78 24.7-15.75 24.85-15.75L24.85-15.75 24.9-15.75Q24.65-16.15 24.98-16.7 25.3-17.25 25.65-17.5L25.65-17.5Q25.8-17.6 25.95-17.65 26.1-17.7 26.2-17.75L26.2-17.75Q26.2-17.85 26.15-17.95L26.15-17.95 26.1-18.25Q26.05-18.45 26.03-18.63 26-18.8 26-19L26-19Q26-19.8 26.55-20.35L26.55-20.35Q26.7-20.65 26.85-21.63 27-22.6 27.13-23.63 27.25-24.65 27.25-25.05L27.25-25.05Q27.25-26.2 27.3-26.95 27.35-27.7 28.3-28.35L28.3-28.35Q28.4-28.55 28.5-28.78 28.6-29 28.7-29.25L28.7-29.25 28.9-30.05Q29.15-31.05 29.4-31.73 29.65-32.4 30.25-32.75 30.85-33.1 32.2-33.1L32.2-33.1 32.35-33.1Q33.95-33.1 34.63-31.93 35.3-30.75 35.3-29.7L35.3-29.7Q35.3-28.75 35.08-28.43 34.85-28.1 34-27.7L34-27.7 33.9-27.6Q33.75-27.25 33.45-26.9 33.15-26.55 32.7-26.55L32.7-26.55Q31.95-26.55 31.63-26.95 31.3-27.35 31.3-27.8L31.3-27.8Q31.3-28.2 31.53-28.55 31.75-28.9 32.1-28.9L32.1-28.9Q32.3-28.9 32.5-28.75L32.5-28.75Q32.8-29.3 33.45-29.5L33.45-29.5 33.45-29.7Q33.45-30.45 33.13-30.88 32.8-31.3 32.35-31.3L32.35-31.3Q31.7-31.3 31.28-30.43 30.85-29.55 30.45-28.55L30.45-28.55Q29.7-25.6 29-22.6 28.3-19.6 28.3-16.55L28.3-16.55 28.3-15.95Q29.3-16.15 30.15-16.48 31-16.8 31.3-17.15L31.3-17.15Q31.6-17.55 31.68-18.35 31.75-19.15 31.88-19.85 32-20.55 32.35-20.55L32.35-20.55Q32.7-20.55 33.15-19.95L33.15-19.95Q33.6-19.35 33.6-18.6L33.6-18.6Q33.6-17.8 33.3-17.07 33-16.35 32.7-15.95L32.7-15.95Q32.1-15.2 30.8-14.75 29.5-14.3 28.15-14.05L28.15-14.05Q27.95-11.75 27.48-9.58 27-7.4 27-4.9L27-4.9Q27-3.6 27.25-2.5 27.5-1.4 27.9-0.35L27.9-0.35Q28.2-0.15 28.58 0.03 28.95 0.2 29.45 0.2L29.45 0.2Q30.1 0.2 30.73-0.43 31.35-1.05 31.75-1.83 32.15-2.6 32.15-3.1L32.15-3.1Q32.15-3.6 32.13-4.3 32.1-5 31.83-5.55 31.55-6.1 30.85-6.1L30.85-6.1Q30.8-6.1 30.5-5.8 30.2-5.5 30.2-4.95L30.2-4.95Q30.2-4.75 30.3-4.45L30.3-4.45 30.35-4.15 30.35-3.8Q30.35-3.35 30.08-3.1 29.8-2.85 29.45-2.85L29.45-2.85Q29.1-2.85 28.8-3.1 28.5-3.35 28.5-3.8L28.5-3.8 28.5-3.85 28.45-4.15Q28.4-4.4 28.38-4.6 28.35-4.8 28.35-4.95L28.35-4.95Q28.35-5.8 28.98-6.88 29.6-7.95 30.85-7.95L30.85-7.95Q32.25-7.95 32.93-7.18 33.6-6.4 33.8-5.28 34-4.15 34-3.1L34-3.1Q34-2.35 33.45-1.13 32.9 0.1 31.88 1.07 30.85 2.05 29.45 2.05L29.45 2.05Q28.55 2.05 27.8 1.75L27.8 1.75Q27.6 1.85 27.4 1.85L27.4 1.85Q26.8 1.85 26.6 1.3L26.6 1.3Q26.55 1.15 26.5 1.03 26.45 0.9 26.4 0.8L26.4 0.8Q25.45-0.2 25.03-1.75 24.6-3.3 24.53-4.93 24.45-6.55 24.45-7.8L24.45-7.8Q24.45-8.1 24.58-8.3 24.7-8.5 24.85-8.6L24.85-8.6Q24.75-8.85 24.63-9.08 24.5-9.3 24.5-9.6L24.5-9.6Q24.5-10.6 24.83-11.3 25.15-12 25.45-12.85L25.45-12.85Q24.8-13.3 24.8-13.9L24.8-13.9Q24.2-13.9 23.8-13.55L23.8-13.55Q23.55-13.35 23.23-13.2 22.9-13.05 22.4-13.05L22.4-13.05Q22.1-13.05 21.8-13.18 21.5-13.3 21.2-13.3L21.2-13.3Q20.85-13.3 20.5-13.13 20.15-12.95 19.75-12.95L19.75-12.95Q19.25-12.95 18.85-13.15 18.45-13.35 18.1-13.6L18.1-13.6 18.1-13.45Q18.1-13.1 17.93-12.8 17.75-12.5 17.25-12.25L17.25-12.25 17.15-12.2Q17.3-11.25 17.3-10.65L17.3-10.65Q17.3-9.85 17.03-9.3 16.75-8.75 16.3-7.4L16.3-7.4Q16.25-7.2 16.18-6.48 16.1-5.75 16.05-4.85 16-3.95 15.98-3.18 15.95-2.4 16-2.1L16-2.1Q16.05-1.9 16.05-1.75 16.05-1.6 16.05-1.45L16.05-1.45Q16.05-0.75 15.78-0.2 15.5 0.35 14.75 0.65L14.75 0.65Q14.75 0.65 14.65 1.2 14.55 1.75 14.28 2.4 14 3.05 13.45 3.35L13.45 3.35 13.25 3.5Q12.45 4.1 12.1 4.6 11.75 5.1 11.48 5.48 11.2 5.85 10.6 6.13 10 6.4 8.7 6.55L8.7 6.55 8.6 6.6Q8.25 6.9 7.95 7.1 7.65 7.3 7.1 7.3L7.1 7.3 6.5 7.3Q6.45 7.3 6.38 7.33 6.3 7.35 6.2 7.35ZM56.84 0.6L56.84 0.6Q56.49 0.95 56.19 0.95L56.19 0.95Q55.59 0.95 55.59 0.1L55.59 0.1Q55.59-0.7 55.44-1.53 55.29-2.35 55.14-3.15L55.14-3.15Q54.79-3.15 54.52-3.13 54.24-3.1 53.99-3.05L53.99-3.05Q53.39-2.7 52.69-2.5L52.69-2.5Q52.49-2.3 52.27-2.05 52.04-1.8 51.54-1.45L51.54-1.45Q51.19-1.2 50.72-1.03 50.24-0.85 49.69-0.85L49.69-0.85Q49.49-0.85 49.32-0.9 49.14-0.95 49.04-1L49.04-1 48.94-1.05 48.84-1Q48.64-0.8 48.39-0.68 48.14-0.55 47.84-0.55L47.84-0.55Q47.39-0.55 47.09-0.83 46.79-1.1 46.54-1.4L46.54-1.4Q44.89-1.6 44.89-2.55L44.89-2.55Q44.89-3.05 45.29-4.1L45.29-4.1Q44.64-4.75 44.64-5.35L44.64-5.35Q44.64-5.9 45.24-6.4L45.24-6.4Q44.69-6.9 44.69-7.3L44.69-7.3Q44.69-7.65 44.99-7.98 45.29-8.3 45.54-8.75L45.54-8.75Q45.49-8.95 45.49-9.25L45.49-9.25Q45.49-10.1 45.77-10.75 46.04-11.4 46.04-11.9L46.04-11.9Q46.04-12.45 45.39-12.8 44.74-13.15 42.69-13.3L42.69-13.3Q42.34-13.3 42.19-13.53 42.04-13.75 42.04-13.95L42.04-13.95Q42.04-14.7 42.79-14.7L42.79-14.7 43.69-14.7Q44.54-14.7 45.14-14.75 45.74-14.8 46.54-14.8L46.54-14.8Q47.94-14.8 49.54-15.2L49.54-15.2Q50.19-15.55 50.84-15.75 51.49-15.95 52.09-16.5L52.09-16.5Q52.29-16.7 52.59-16.7L52.59-16.7Q52.89-16.7 53.12-16.48 53.34-16.25 53.34-16L53.34-16Q53.34-15.7 53.09-15.45L53.09-15.45Q52.59-14.9 51.79-14.5 50.99-14.1 50.14-13.85L50.14-13.85Q49.89-13.7 49.69-13.45L49.69-13.45Q49.29-13 48.99-11.83 48.69-10.65 48.57-9.43 48.44-8.2 48.44-7.5L48.44-7.5 48.44-6Q48.44-5.5 48.47-5 48.49-4.5 48.59-4.1L48.59-4.1 49.19-3.65Q49.49-3.4 49.89-3.4L49.89-3.4Q50.34-3.4 50.74-3.63 51.14-3.85 51.64-3.85L51.64-3.85Q51.74-3.85 51.89-3.85 52.04-3.85 52.14-3.9L52.14-3.9Q52.59-4.15 53.39-4.4L53.39-4.4Q53.79-4.55 54.24-4.73 54.69-4.9 55.19-4.9L55.19-4.9Q55.89-4.9 56.34-5.7 56.79-6.5 57.09-7.6L57.09-7.6 57.09-8.3Q57.09-9.55 57.32-10.58 57.54-11.6 57.69-12.7L57.69-12.7Q57.29-13.35 56.44-13.85L56.44-13.85Q56.24-13.8 56.12-13.8 55.99-13.8 55.89-13.75L55.89-13.75Q55.84-13.75 55.79-13.73 55.74-13.7 55.64-13.7L55.64-13.7Q55.24-13.7 55.04-13.95 54.84-14.2 54.84-14.45L54.84-14.45Q54.84-15 55.39-15.15L55.39-15.15Q55.64-15.4 56.04-15.4L56.04-15.4Q56.14-15.4 56.29-15.4 56.44-15.4 56.59-15.3L56.59-15.3Q57.29-15.45 57.99-15.45L57.99-15.45Q59.04-15.45 59.92-15.5 60.79-15.55 61.59-15.8L61.59-15.8Q62.24-16.6 63.02-17.18 63.79-17.75 64.69-17.95L64.69-17.95Q64.79-17.95 64.87-17.98 64.94-18 64.99-18L64.99-18Q65.64-18 65.64-17.4L65.64-17.4Q65.64-17.05 65.39-16.8L65.39-16.8Q64.04-15.15 62.49-14.55L62.49-14.55Q61.59-13.3 60.89-12.25 60.19-11.2 60.19-10.15L60.19-10.15Q60.19-9.4 60.09-8.63 59.99-7.85 59.44-7.75L59.44-7.75Q59.39-7.45 59.37-7.13 59.34-6.8 59.34-6.5L59.34-6.5Q59.34-6.15 59.34-5.83 59.34-5.5 59.24-5.2L59.24-5.2Q59.24-4.85 59.09-4.4 58.94-3.95 58.94-3.55L58.94-3.55Q58.94-3.4 59.04-3.1L59.04-3.1Q60.04-3.7 61.02-4.23 61.99-4.75 62.94-5.2L62.94-5.2Q63.39-5.45 63.67-5.15 63.94-4.85 63.94-4.45L63.94-4.45Q63.94-3.95 63.54-3.7L63.54-3.7Q62.39-2.95 61.52-2.73 60.64-2.5 58.99-1.95L58.99-1.95Q58.34-1.5 57.84-0.73 57.34 0.05 56.84 0.6ZM97.48 4.5L97.48 4.5Q96.68 4.35 95.41 3.8 94.13 3.25 92.98 2.95L92.98 2.95Q92.68 3.05 92.43 3.05L92.43 3.05Q92.18 3.05 91.68 3 91.18 2.95 90.76 2.8 90.33 2.65 90.33 2.3L90.33 2.3Q90.33 2.05 90.63 1.7L90.63 1.7Q90.98 1.3 91.73 1.3L91.73 1.3Q92.28 1.3 92.78 1.45L92.78 1.45Q93.13 1.1 93.16 0.3 93.18-0.5 93.18-0.85L93.18-0.85Q93.18-1.3 93.38-1.58 93.58-1.85 93.78-2L93.78-2 93.88-2.1Q94.08-2.8 94.08-3.78 94.08-4.75 94.16-5.65 94.23-6.55 94.68-7.1L94.68-7.1Q94.83-7.3 94.81-7.25 94.78-7.2 94.88-7.4L94.88-7.4Q95.18-7.8 94.86-8.15 94.53-8.5 94.53-9.1L94.53-9.1Q94.53-9.35 94.68-9.7 94.83-10.05 95.18-10.45L95.18-10.45Q95.28-10.55 95.28-10.58 95.28-10.6 95.28-10.6L95.28-10.6Q95.28-11.05 94.78-11.78 94.28-12.5 93.38-12.75L93.38-12.75Q92.88-12.55 92.38-12.23 91.88-11.9 91.43-11.5L91.43-11.5Q91.18-11.15 90.96-10.9 90.73-10.65 90.53-10.55L90.53-10.55Q90.48-10.5 90.33-10.48 90.18-10.45 90.08-10.35L90.08-10.35Q89.68-9.75 89.38-9.2L89.38-9.2Q89.33-8.7 89.51-8.25 89.68-7.8 89.58-7.15L89.58-7.15Q89.53-6.65 89.51-5.95 89.48-5.25 89.08-4.85L89.08-4.85 89.13-4.75Q89.18-4.55 89.23-4.23 89.28-3.9 89.28-3.6L89.28-3.6Q89.28-3.25 89.16-2.95 89.03-2.65 88.73-2.55L88.73-2.55Q89.03-2.25 89.13-2.1L89.13-2.1 89.33-1.85Q89.58-1.5 89.83-1.45L89.83-1.45 90.38-1.3Q91.13-1.25 91.13-0.7L91.13-0.7Q91.13-0.05 90.28 0.1L90.28 0.1Q90.23 0.1 90.16 0.13 90.08 0.15 89.98 0.15L89.98 0.15Q89.58 0.15 88.93-0.25L88.93-0.25Q88.43-0.45 87.96-0.63 87.48-0.8 86.93-0.8L86.93-0.8Q86.48-0.8 86.06-0.68 85.63-0.55 85.23-0.45L85.23-0.45Q85.03-0.25 84.68-0.15 84.33-0.05 84.03 0.05L84.03 0.05Q83.88 0.25 83.48 0.25L83.48 0.25 82.88 0.25Q82.58 0.25 82.33 0.28 82.08 0.3 81.98 0.3L81.98 0.3Q81.13 0.3 81.13-0.2L81.13-0.2Q81.13-0.55 81.43-0.85 81.73-1.15 82.08-1.2L82.08-1.2Q82.33-1.35 82.68-1.35L82.68-1.35Q83.18-1.35 83.63-1.48 84.08-1.6 84.53-1.7L84.53-1.7 84.68-2Q84.83-2.05 85.01-2.05 85.18-2.05 85.33-2.05L85.33-2.05Q85.38-2.35 85.33-2.63 85.28-2.9 85.28-3.15L85.28-3.15Q85.28-3.55 85.58-4.05L85.58-4.05Q85.93-4.6 86.03-5.28 86.13-5.95 86.13-6.65L86.13-6.65Q86.13-7.05 86.11-7.43 86.08-7.8 86.08-8.15L86.08-8.15Q86.08-9.9 85.78-11.13 85.48-12.35 83.73-12.9L83.73-12.9 83.48-13.05Q82.83-12.8 82.26-12.4 81.68-12 81.08-11.65L81.08-11.65Q80.13-11.15 79.81-11.05 79.48-10.95 79.28-10.1L79.28-10.1Q79.28-9.7 79.31-9.33 79.33-8.95 79.33-8.65L79.33-8.65Q79.33-7.85 79.08-7.55L79.08-7.55Q78.98-7.4 78.68-7.2L78.68-7.2 78.63-7.15 78.73-7.05Q79.28-6.55 79.28-5.9L79.28-5.9Q79.28-5.25 78.98-4.58 78.68-3.9 78.68-3.15L78.68-3.15Q78.73-3.15 79.16-2.93 79.58-2.7 80.06-2.43 80.53-2.15 80.68-2.05L80.68-2.05Q81.23-1.8 81.23-1.35L81.23-1.35Q81.23-0.65 80.38-0.65L80.38-0.65Q80.03-0.65 79.43-1.03 78.83-1.4 78.43-1.6L78.43-1.6 78.38-1.55Q78.08-1.25 77.68-1.25L77.68-1.25Q77.38-1.25 77.18-1.33 76.98-1.4 76.68-1.4L76.68-1.4Q76.28-1.4 75.86-1.28 75.43-1.15 75.03-1.05L75.03-1.05Q74.93-0.95 74.73-0.85L74.73-0.85Q74.38-0.45 73.48-0.05 72.58 0.35 72.13 0.35L72.13 0.35Q71.28 0.35 71.28-0.3L71.28-0.3Q71.28-1 72.13-1.25L72.13-1.25Q72.38-1.35 72.71-1.48 73.03-1.6 73.38-1.75L73.38-1.75Q73.48-2.4 74.08-2.4L74.08-2.4 74.48-2.4Q75.38-3.05 75.53-3.85L75.53-3.85Q75.73-4.95 75.91-5.3 76.08-5.65 76.08-6.45L76.08-6.45Q76.08-7.25 75.96-8 75.83-8.75 75.83-9.45L75.83-9.45Q75.83-10.4 76.23-11.2L76.23-11.2 76.28-11.35Q76.13-11.5 75.98-11.6L75.98-11.6 75.73-11.8Q75.53-11.95 75.28-12.25L75.28-12.25Q75.03-12.2 74.73-12.1 74.43-12 74.08-12L74.08-12Q73.88-12 73.73-11.95 73.58-11.9 73.33-11.9L73.33-11.9Q72.98-11.9 72.81-12.15 72.63-12.4 72.63-12.65L72.63-12.65Q72.63-13.4 73.33-13.4L73.33-13.4 74.08-13.4Q74.53-13.4 74.93-13.63 75.33-13.85 75.83-13.85L75.83-13.85 76.08-13.85 76.23-13.9 76.43-13.95Q77.13-14.2 77.93-14.85 78.73-15.5 79.13-15.85L79.13-15.85Q79.38-16.1 79.73-16.1L79.73-16.1Q80.38-16.1 80.38-15.45L80.38-15.45Q80.38-15.15 80.28-15L80.28-15Q79.73-13.75 79.48-12.55L79.48-12.55 79.58-12.6Q80.88-13.25 82.18-14.05 83.48-14.85 85.03-14.85L85.03-14.85Q86.03-14.85 87.33-13.88 88.63-12.9 89.23-11.65L89.23-11.65Q89.93-12.5 90.88-13.2L90.88-13.2Q90.98-13.35 91.11-13.5 91.23-13.65 91.43-13.85L91.43-13.85Q91.68-14.05 91.98-14.2 92.28-14.35 92.63-14.3L92.63-14.3 92.78-14.3Q94.03-14.85 95.23-14.85L95.23-14.85Q96.48-14.85 97.18-14 97.88-13.15 98.18-11.98 98.48-10.8 98.48-9.85L98.48-9.85Q98.48-8.6 98.08-7.1 97.68-5.6 97.13-4.25L97.13-4.25Q97.08-4.2 97.08-4.05L97.08-4.05Q97.08-3.75 97.21-3.33 97.33-2.9 97.23-2.55L97.23-2.55Q97.08-1.65 96.63-0.65 96.18 0.35 95.93 1.35L95.93 1.35Q95.93 1.4 96.03 1.6L96.03 1.6Q96.38 2.75 97.83 3.1L97.83 3.1Q98.43 3.25 98.43 3.8L98.43 3.8Q98.43 4.1 98.18 4.33 97.93 4.55 97.48 4.5ZM129.97 7.35L129.97 7.35Q128.97 7.35 127.84 6.83 126.72 6.3 125.92 5.43 125.12 4.55 124.97 3.5L124.97 3.5Q124.92 3.05 124.89 2.6 124.87 2.15 124.67 1.7L124.67 1.7Q124.27 1.3 123.94 1 123.62 0.7 123.62 0.05L123.62 0.05Q123.62-1.45 124.02-3.15 124.42-4.85 125.29-6.35 126.17-7.85 127.62-8.78 129.07-9.7 131.12-9.7L131.12-9.7Q131.57-9.7 131.82-9.35L131.82-9.35 132.22-9.35Q132.97-9.35 133.49-8.72 134.02-8.1 134.34-7.18 134.67-6.25 134.82-5.38 134.97-4.5 134.97-4L134.97-4Q134.97-2.4 133.89-1.63 132.82-0.85 131.52-0.4L131.52-0.4Q131.02-0.2 130.64-0.53 130.27-0.85 130.27-1.25L130.27-1.25Q130.27-1.9 130.92-2.1L130.92-2.1Q131.57-2.35 132.34-2.78 133.12-3.2 133.12-4L133.12-4Q133.12-4.4 132.99-5.1 132.87-5.8 132.64-6.5 132.42-7.2 132.12-7.5L132.12-7.5Q131.82-7.5 131.54-7.6 131.27-7.7 130.97-7.7L130.97-7.7Q130.42-7.7 129.64-7.45 128.87-7.2 128.29-6.7 127.72-6.2 127.72-5.45L127.72-5.45Q127.72-5.1 127.74-4.78 127.77-4.45 127.77-4.15L127.77-4.15Q127.77-3.6 127.59-3.13 127.42-2.65 126.87-2.25L126.87-2.25 126.57-2.05Q126.52-1.75 126.49-1.43 126.47-1.1 126.47-0.8L126.47-0.8Q126.47-0.35 126.49 0.1 126.52 0.55 126.52 1.05L126.52 1.05Q126.72 1.4 126.97 1.68 127.22 1.95 127.37 2.4L127.37 2.4Q127.77 3.75 128.37 4.53 128.97 5.3 130.22 5.45L130.22 5.45Q130.52 5.4 130.79 5.3 131.07 5.2 131.32 5.1L131.32 5.1Q131.52 5 131.72 4.9 131.92 4.8 132.27 4.75L132.27 4.75 132.32 4.7Q132.72 4.6 132.97 4.6L132.97 4.6 133.07 4.55Q133.97 4.3 134.34 3.83 134.72 3.35 135.02 2.8 135.32 2.25 136.07 1.9L136.07 1.9 136.27 1.8Q136.52 1.65 136.72 1.3L136.72 1.3Q136.72 1.15 136.87 0.45 137.02-0.25 137.24-1.15 137.47-2.05 137.67-2.83 137.87-3.6 137.92-3.9L137.92-3.9Q138.07-4.65 138.07-5.3L138.07-5.3Q138.07-6 138.07-6.68 138.07-7.35 138.27-8L138.27-8Q138.52-8.65 138.89-9.45 139.27-10.25 139.27-11L139.27-11Q139.27-11.3 139.22-11.45L139.22-11.45Q139.07-11.9 139.07-12.4L139.07-12.4Q139.07-13.25 139.67-13.65L139.67-13.65Q139.72-13.75 139.72-13.88 139.72-14 139.77-14.2L139.77-14.2 139.72-14.35Q139.17-14 138.87-14L138.87-14Q138.52-14 138.34-14.33 138.17-14.65 137.52-14.65L137.52-14.65Q137.22-14.65 137.02-14.78 136.82-14.9 136.62-15.1L136.62-15.1 135.87-15.1Q135.02-14.85 133.92-13.6L133.92-13.6Q133.67-13.35 133.52-13.3L133.52-13.3Q133.42-13.1 133.42-13.05L133.42-13.05Q133.42-12.6 133.14-12.35 132.87-12.1 132.52-12.1L132.52-12.1Q132.17-12.1 131.87-12.35 131.57-12.6 131.57-13.05L131.57-13.05Q131.57-13.95 132.22-14.8 132.87-15.65 133.82-16.25 134.77-16.85 135.62-16.9L135.62-16.9Q135.87-17 136.14-17 136.42-17 136.67-17L136.67-17Q136.97-17 137.12-16.95L137.12-16.95Q137.92-16.95 138.57-16.93 139.22-16.9 139.87-16.7L139.87-16.7Q140.02-17.1 140.12-17.5 140.22-17.9 140.22-18.3L140.22-18.3Q140.07-18.75 139.87-19.1 139.67-19.45 139.67-19.85L139.67-19.85Q139.67-20.3 139.92-20.65L139.92-20.65Q139.17-21.1 139.17-22.05L139.17-22.05Q139.17-22.25 139.19-22.43 139.22-22.6 139.17-22.8L139.17-22.8Q138.82-23.2 138.62-23.55 138.42-23.9 138.52-24.45L138.52-24.45Q138.67-25.1 138.12-26 137.57-26.9 136.74-27.6 135.92-28.3 135.12-28.3L135.12-28.3Q134.62-28.3 134.14-28.2 133.67-28.1 133.22-28L133.22-28Q133.27-27.2 133.57-27.13 133.87-27.05 134.37-27.05L134.37-27.05Q134.77-27.05 134.99-26.78 135.22-26.5 135.22-26.15L135.22-26.15Q135.22-25.85 134.99-25.58 134.77-25.3 134.37-25.25L134.37-25.25Q134.22-25.2 134.07-25.2 133.92-25.2 133.82-25.2L133.82-25.2Q132.42-25.2 131.87-26.23 131.32-27.25 131.32-28.4L131.32-28.4Q131.32-28.95 131.87-29.35L131.87-29.35Q131.87-29.4 131.97-29.5L131.97-29.5Q132.12-29.65 132.77-30.1 133.42-30.55 134.12-30.95 134.82-31.35 135.02-31.35L135.02-31.35Q135.57-31.35 136.07-31.1 136.57-30.85 137.07-30.85L137.07-30.85Q138.12-30.85 138.47-30.48 138.82-30.1 139.32-30.1L139.32-30.1Q139.72-30.1 139.97-29.83 140.22-29.55 140.22-29.15L140.22-29.15Q140.22-28.35 140.64-27.65 141.07-26.95 141.47-26.18 141.87-25.4 141.87-24.35L141.87-24.35Q141.87-24.15 141.84-23.95 141.82-23.75 141.77-23.5L141.77-23.5Q142.07-23.05 142.22-21.8 142.37-20.55 142.37-19.35L142.37-19.35Q142.37-17.75 142.12-17.15L142.12-17.15Q141.92-16.75 141.84-16.5 141.77-16.25 141.67-16L141.67-16Q141.87-15.9 141.92-15.85L141.92-15.85Q142.17-15.75 142.37-15.68 142.57-15.6 142.77-15.6L142.77-15.6Q142.97-15.7 143.17-15.78 143.37-15.85 143.57-15.85L143.57-15.85Q144.42-15.85 145.39-15.68 146.37-15.5 147.02-15.5L147.02-15.5Q147.17-15.5 147.44-15.65 147.72-15.8 148.12-15.8L148.12-15.8Q148.22-15.8 148.34-15.78 148.47-15.75 148.62-15.75L148.62-15.75 148.67-15.75Q148.42-16.15 148.74-16.7 149.07-17.25 149.42-17.5L149.42-17.5Q149.57-17.6 149.72-17.65 149.87-17.7 149.97-17.75L149.97-17.75Q149.97-17.85 149.92-17.95L149.92-17.95 149.87-18.25Q149.82-18.45 149.79-18.63 149.77-18.8 149.77-19L149.77-19Q149.77-19.8 150.32-20.35L150.32-20.35Q150.47-20.65 150.62-21.63 150.77-22.6 150.89-23.63 151.02-24.65 151.02-25.05L151.02-25.05Q151.02-26.2 151.07-26.95 151.12-27.7 152.07-28.35L152.07-28.35Q152.17-28.55 152.27-28.78 152.37-29 152.47-29.25L152.47-29.25 152.67-30.05Q152.92-31.05 153.17-31.73 153.42-32.4 154.02-32.75 154.62-33.1 155.97-33.1L155.97-33.1 156.12-33.1Q157.72-33.1 158.39-31.93 159.07-30.75 159.07-29.7L159.07-29.7Q159.07-28.75 158.84-28.43 158.62-28.1 157.77-27.7L157.77-27.7 157.67-27.6Q157.52-27.25 157.22-26.9 156.92-26.55 156.47-26.55L156.47-26.55Q155.72-26.55 155.39-26.95 155.07-27.35 155.07-27.8L155.07-27.8Q155.07-28.2 155.29-28.55 155.52-28.9 155.87-28.9L155.87-28.9Q156.07-28.9 156.27-28.75L156.27-28.75Q156.57-29.3 157.22-29.5L157.22-29.5 157.22-29.7Q157.22-30.45 156.89-30.88 156.57-31.3 156.12-31.3L156.12-31.3Q155.47-31.3 155.04-30.43 154.62-29.55 154.22-28.55L154.22-28.55Q153.47-25.6 152.77-22.6 152.07-19.6 152.07-16.55L152.07-16.55 152.07-15.95Q153.07-16.15 153.92-16.48 154.77-16.8 155.07-17.15L155.07-17.15Q155.37-17.55 155.44-18.35 155.52-19.15 155.64-19.85 155.77-20.55 156.12-20.55L156.12-20.55Q156.47-20.55 156.92-19.95L156.92-19.95Q157.37-19.35 157.37-18.6L157.37-18.6Q157.37-17.8 157.07-17.07 156.77-16.35 156.47-15.95L156.47-15.95Q155.87-15.2 154.57-14.75 153.27-14.3 151.92-14.05L151.92-14.05Q151.72-11.75 151.24-9.58 150.77-7.4 150.77-4.9L150.77-4.9Q150.77-3.6 151.02-2.5 151.27-1.4 151.67-0.35L151.67-0.35Q151.97-0.15 152.34 0.03 152.72 0.2 153.22 0.2L153.22 0.2Q153.87 0.2 154.49-0.43 155.12-1.05 155.52-1.83 155.92-2.6 155.92-3.1L155.92-3.1Q155.92-3.6 155.89-4.3 155.87-5 155.59-5.55 155.32-6.1 154.62-6.1L154.62-6.1Q154.57-6.1 154.27-5.8 153.97-5.5 153.97-4.95L153.97-4.95Q153.97-4.75 154.07-4.45L154.07-4.45 154.12-4.15 154.12-3.8Q154.12-3.35 153.84-3.1 153.57-2.85 153.22-2.85L153.22-2.85Q152.87-2.85 152.57-3.1 152.27-3.35 152.27-3.8L152.27-3.8 152.27-3.85 152.22-4.15Q152.17-4.4 152.14-4.6 152.12-4.8 152.12-4.95L152.12-4.95Q152.12-5.8 152.74-6.88 153.37-7.95 154.62-7.95L154.62-7.95Q156.02-7.95 156.69-7.18 157.37-6.4 157.57-5.28 157.77-4.15 157.77-3.1L157.77-3.1Q157.77-2.35 157.22-1.13 156.67 0.1 155.64 1.07 154.62 2.05 153.22 2.05L153.22 2.05Q152.32 2.05 151.57 1.75L151.57 1.75Q151.37 1.85 151.17 1.85L151.17 1.85Q150.57 1.85 150.37 1.3L150.37 1.3Q150.32 1.15 150.27 1.03 150.22 0.9 150.17 0.8L150.17 0.8Q149.22-0.2 148.79-1.75 148.37-3.3 148.29-4.93 148.22-6.55 148.22-7.8L148.22-7.8Q148.22-8.1 148.34-8.3 148.47-8.5 148.62-8.6L148.62-8.6Q148.52-8.85 148.39-9.08 148.27-9.3 148.27-9.6L148.27-9.6Q148.27-10.6 148.59-11.3 148.92-12 149.22-12.85L149.22-12.85Q148.57-13.3 148.57-13.9L148.57-13.9Q147.97-13.9 147.57-13.55L147.57-13.55Q147.32-13.35 146.99-13.2 146.67-13.05 146.17-13.05L146.17-13.05Q145.87-13.05 145.57-13.18 145.27-13.3 144.97-13.3L144.97-13.3Q144.62-13.3 144.27-13.13 143.92-12.95 143.52-12.95L143.52-12.95Q143.02-12.95 142.62-13.15 142.22-13.35 141.87-13.6L141.87-13.6 141.87-13.45Q141.87-13.1 141.69-12.8 141.52-12.5 141.02-12.25L141.02-12.25 140.92-12.2Q141.07-11.25 141.07-10.65L141.07-10.65Q141.07-9.85 140.79-9.3 140.52-8.75 140.07-7.4L140.07-7.4Q140.02-7.2 139.94-6.48 139.87-5.75 139.82-4.85 139.77-3.95 139.74-3.18 139.72-2.4 139.77-2.1L139.77-2.1Q139.82-1.9 139.82-1.75 139.82-1.6 139.82-1.45L139.82-1.45Q139.82-0.75 139.54-0.2 139.27 0.35 138.52 0.65L138.52 0.65Q138.52 0.65 138.42 1.2 138.32 1.75 138.04 2.4 137.77 3.05 137.22 3.35L137.22 3.35 137.02 3.5Q136.22 4.1 135.87 4.6 135.52 5.1 135.24 5.48 134.97 5.85 134.37 6.13 133.77 6.4 132.47 6.55L132.47 6.55 132.37 6.6Q132.02 6.9 131.72 7.1 131.42 7.3 130.87 7.3L130.87 7.3 130.27 7.3Q130.22 7.3 130.14 7.33 130.07 7.35 129.97 7.35ZM168.46-0.75L167.91-0.75Q167.16-0.75 166.71-1.33 166.26-1.9 166.09-2.65 165.91-3.4 165.91-4L165.91-4Q165.91-4.65 166.21-5.08 166.51-5.5 166.91-5.95L166.91-5.95 166.86-6Q166.46-6.4 166.46-6.85L166.46-6.85Q166.46-7.45 166.94-8 167.41-8.55 167.76-8.95L167.76-8.95Q168.61-9.95 169.91-10.3 171.21-10.65 172.46-10.65L172.46-10.65Q172.76-10.65 173.71-10.38 174.66-10.1 175.46-9.7L175.46-9.7Q175.46-10.15 175.44-10.58 175.41-11 175.26-11.5L175.26-11.5Q175.21-11.75 175.14-12.05 175.06-12.35 175.06-12.65L175.06-12.65Q175.06-13 175.21-13.3L175.21-13.3Q174.61-13.55 174.61-14.2L174.61-14.2Q174.61-16 173.36-16L173.36-16Q171.81-16 170.61-15.7L170.61-15.7Q169.96-15.4 169.51-14.83 169.06-14.25 168.41-13.25L168.41-13.25Q168.31-13.05 168.31-12.95L168.31-12.95Q168.41-12.75 168.49-12.58 168.56-12.4 168.66-12.25L168.66-12.25Q169.01-12 169.46-12L169.46-12Q169.46-12 169.69-12.25 169.91-12.5 169.91-12.55L169.91-12.55 169.91-12.75Q169.71-13 169.71-13.25L169.71-13.25Q169.71-13.85 170.46-13.85L170.46-13.85Q170.81-13.85 171.09-13.6 171.36-13.35 171.36-12.75L171.36-12.75 171.36-12.55Q171.36-12.05 170.76-11.3 170.16-10.55 169.46-10.55L169.46-10.55Q169.21-10.55 168.94-10.63 168.66-10.7 168.41-10.75L168.41-10.75Q168.21-10.75 168.01-10.85 167.81-10.95 167.56-11.25L167.56-11.25Q167.26-11.5 167.04-11.85 166.81-12.2 166.81-12.65L166.81-12.65Q166.76-12.9 166.69-13.08 166.61-13.25 166.61-13.3L166.61-13.3Q166.61-13.55 166.69-13.73 166.76-13.9 166.81-14.05L166.81-14.05Q166.61-14.4 166.81-14.7L166.81-14.7Q167.26-15.7 168.11-16.25 168.96-16.8 169.96-17.05L169.96-17.05Q170.76-17.45 171.64-17.55 172.51-17.65 173.56-17.65L173.56-17.65Q174.86-17.65 175.14-17.35 175.41-17.05 175.86-16.1L175.86-16.1Q176.81-15.65 177.24-15.18 177.66-14.7 177.81-13.4L177.81-13.4Q177.96-12.1 177.91-10.75 177.86-9.4 178.04-8.13 178.21-6.85 178.86-5.65L178.86-5.65Q178.91-5.5 179.11-5.2L179.11-5.2Q179.56-5.45 180.01-5.7 180.46-5.95 180.96-6L180.96-6 181.11-6Q181.46-6 181.64-5.78 181.81-5.55 181.81-5.3L181.81-5.3Q181.81-5.1 181.66-4.88 181.51-4.65 181.21-4.6L181.21-4.6Q180.91-4.55 180.26-4.15 179.61-3.75 179.01-3.55L179.01-3.55Q178.36-3.25 177.86-2.83 177.36-2.4 176.81-1.7L176.81-1.7Q176.51-1.4 176.16-1.4L176.16-1.4Q175.36-1.4 175.51-2.35L175.51-2.35Q175.56-2.45 175.64-3.05 175.71-3.65 175.76-4.35L175.76-4.35Q175.46-3.9 174.94-3.48 174.41-3.05 173.46-2.55L173.46-2.55Q173.36-2.5 173.09-2.38 172.81-2.25 172.66-2.2L172.66-2.2Q172.16-2 171.71-1.73 171.26-1.45 170.81-1.05L170.81-1.05Q170.61-0.85 170.34-0.75 170.06-0.65 169.61-0.65L169.61-0.65Q169.41-0.65 169.11-0.68 168.81-0.7 168.46-0.75L168.46-0.75ZM170.21-3.3L171.16-3.25Q171.41-3.25 171.51-3.3L171.51-3.3Q172.81-3.95 173.51-4.23 174.21-4.5 174.59-5.03 174.96-5.55 175.26-6.9L175.26-6.9Q175.26-7 175.29-7.13 175.31-7.25 175.31-7.45L175.31-7.45Q175.31-8.1 175.16-8.3L175.16-8.3Q174.51-9 173.61-9L173.61-9Q173.11-9 172.64-8.9 172.16-8.8 171.71-8.85L171.71-8.85Q171.61-8.2 171.01-8.2L171.01-8.2 170.76-8.2Q170.56-7.65 170.06-7.65L170.06-7.65 169.91-7.65Q169.71-6.95 169.21-6.48 168.71-6 168.71-5.2L168.71-5.2 168.71-4.85Q169.21-4.35 169.21-3.75L169.21-3.75Q169.51-3.65 169.74-3.48 169.96-3.3 170.16-3.3L170.16-3.3 170.21-3.3ZM188.9 0.7L188.9 0.7Q188.8 0.75 188.55 0.75L188.55 0.75Q187.85 0.75 187.85 0.1L187.85 0.1Q187.85-0.25 188.15-0.55L188.15-0.55Q188.35-0.7 188.8-0.98 189.25-1.25 189.8-1.5L189.8-1.5Q189.8-2.25 191.05-2.4L191.05-2.4Q191.45-2.5 191.53-2.75 191.6-3 191.75-3.2L191.75-3.2Q191.8-3.25 192.15-4.28 192.5-5.3 194.3-6.75L194.3-6.75Q194.9-7.25 195.43-8.4 195.95-9.55 196.55-10.25L196.55-10.25Q197.1-10.95 197.73-11.55 198.35-12.15 199-12.8L199-12.8Q199.25-13.1 199.5-13.4 199.75-13.7 199.95-14L199.95-14Q199.65-14.1 199.5-14.2L199.5-14.2Q199.3-14.15 199.08-14.05 198.85-13.95 198.55-13.95L198.55-13.95Q198.35-13.95 198.03-14.03 197.7-14.1 197.35-14.1L197.35-14.1Q196.4-14.1 195.35-13.58 194.3-13.05 193.45-12.3L193.45-12.3Q193.25-11.8 193-11.38 192.75-10.95 192.5-10.55L192.5-10.55 192-9.4Q191.75-8.85 191.3-8.85L191.3-8.85Q190.65-8.85 190.65-9.7L190.65-9.7 190.65-10Q190.65-10.05 190.63-10.1 190.6-10.15 190.6-10.2L190.6-10.2Q190.6-10.4 190.75-10.6L190.75-10.6Q190.85-11.3 191.28-11.95 191.7-12.6 192.25-13.15L192.25-13.15Q193.15-15.1 193.55-16.8L193.55-16.8Q193.7-17.45 194.25-17.45L194.25-17.45Q194.9-17.45 194.95-16.7L194.95-16.7Q195-16.45 195.05-16.05 195.1-15.65 195.2-15.45L195.2-15.45Q195.1-15.45 195.05-15.5L195.05-15.5 194.95-15.5 195.1-15.05Q196.35-15.55 197.35-15.55L197.35-15.55Q197.7-15.55 198.03-15.48 198.35-15.4 198.55-15.4L198.55-15.4Q198.9-15.4 199.2-15.68 199.5-15.95 199.8-15.95L199.8-15.95Q200.1-15.95 200.35-15.55L200.35-15.55Q200.6-15.75 201-15.75L201-15.75Q201.25-15.75 201.43-15.63 201.6-15.5 201.75-15.35L201.75-15.35Q202.3-15.35 202.78-15.68 203.25-16 203.75-16L203.75-16Q204.4-16 204.4-15.3L204.4-15.3Q204.4-14.95 204.13-14.53 203.85-14.1 203.15-13.85L203.15-13.85 202.9-13.75Q202.4-13.55 202.25-13.03 202.1-12.5 201.78-11.93 201.45-11.35 200.35-11L200.35-11 200.35-10.95Q200.35-10.1 199.7-9.6 199.05-9.1 198.4-8.25L198.4-8.25Q198.05-7.75 197.68-7.25 197.3-6.75 196.85-6.35L196.85-6.35Q196.75-6.1 196.8-5.85 196.85-5.6 196.6-5.35L196.6-5.35Q196.55-5.2 196.5-5.05 196.45-4.9 196.4-4.75L196.4-4.75Q196.2-4.3 195.95-3.93 195.7-3.55 195.55-3.05L195.55-3.05Q195.3-2.5 194.75-2.35L194.75-2.35 195.3-2.35Q196.2-2.35 197.45-2.35 198.7-2.35 199.5-2.7L199.5-2.7Q199.45-3 199.8-3.45 200.15-3.9 200.58-4.28 201-4.65 201.05-4.65L201.05-4.65Q201.9-4.85 201.93-5.33 201.95-5.8 202.3-6.5L202.3-6.5Q202.6-7 203.05-7L203.05-7Q203.7-7 203.7-6.15L203.7-6.15Q203.7-5 203.3-4.13 202.9-3.25 202.43-2.43 201.95-1.6 201.65-0.6L201.65-0.6Q201.5-0.05 201.05-0.05L201.05-0.05Q200.9-0.05 200.73-0.13 200.55-0.2 200.35-0.25L200.35-0.25Q199.8-0.25 199.3-0.48 198.8-0.7 198.25-0.7L198.25-0.7Q197.95-0.7 197.65-0.53 197.35-0.35 197-0.35L197-0.35Q196.65-0.35 196.35-0.53 196.05-0.7 195.75-0.7L195.75-0.7Q193.95-0.7 192.23-0.3 190.5 0.1 188.9 0.7ZM221.95-18.9L221.95-18.9Q221.2-18.9 220.4-19.53 219.6-20.15 219.6-21.05L219.6-21.05Q219.6-21.45 220.05-21.9 220.5-22.35 220.8-22.6L220.8-22.6 221.5-23.15Q221.6-23.25 221.82-23.28 222.05-23.3 222.2-23.3L222.2-23.3Q222.85-23.3 223.3-22.68 223.75-22.05 223.75-21.6L223.75-21.6Q223.75-21.2 223.57-20.55 223.4-19.9 223.02-19.4 222.65-18.9 221.95-18.9ZM222.45 0.4L222.45 0.4Q222.45 0.4 222.15 0.3L222.15 0.3Q222.05 0.3 221.9 0.25 221.75 0.2 221.6 0.15L221.6 0.15Q221.25 0.05 220.95-0.03 220.65-0.1 220.55-0.1L220.55-0.1Q220.35-0.1 220.05 0L220.05 0Q219.75 0.1 219.65 0.1L219.65 0.1Q219.6 0.1 219.47 0.05 219.35 0 219.3 0L219.3 0Q219.15-0.05 219-0.1 218.85-0.15 218.65-0.15L218.65-0.15Q218.4-0.25 218.05-0.23 217.7-0.2 217.55-0.2L217.55-0.2 214.5-0.15Q214.35-0.15 214.3-0.2L214.3-0.2Q213.9 0 213.6 0L213.6 0 213.45 0Q213.1 0.5 212.75 0.5L212.75 0.5Q212.4 0.5 212.2 0.1 212-0.3 212-0.8L212-0.8Q212-1.5 212.7-1.5L212.7-1.5 212.85-1.5Q213.15-1.75 213.55-1.75L213.55-1.75Q213.7-1.75 214-1.65L214-1.65Q214.3-1.75 214.5-1.75L214.5-1.75Q214.8-1.75 215.02-1.68 215.25-1.6 215.55-1.6L215.55-1.6Q215.8-1.6 216.2-1.8 216.6-2 216.9-2.2L216.9-2.2 217.05-2.65Q216.7-3.25 216.7-3.7L216.7-3.7Q216.7-4.3 217.4-4.7L217.4-4.7Q217.25-5 217.25-5.25L217.25-5.25Q217.25-5.6 217.6-5.95L217.6-5.95Q217.15-6.2 217.15-6.6L217.15-6.6Q217.15-6.85 217.35-7.2L217.35-7.2Q217.45-7.3 217.5-7.4L217.5-7.4Q216.95-7.65 216.95-8.35L216.95-8.35Q216.95-8.95 217.55-9.05L217.55-9.05Q217.55-9.15 217.52-9.2 217.5-9.25 217.5-9.3L217.5-9.3Q217.5-9.6 217.65-9.8 217.8-10 218-10.15L218-10.15Q217.65-10.55 217.75-11L217.75-11Q217.55-11.2 217.1-11.1L217.1-11.1Q217.05-11.1 217-11.08 216.95-11.05 216.85-11.05L216.85-11.05Q216.55-10.95 216.45-10.95L216.45-10.95 215.95-11.05Q215.85-10.95 215.85-10.9L215.85-10.9Q215.3-10.4 214.87-10.3 214.45-10.2 214.45-10.2L214.45-10.2Q213.75-10.2 213.75-10.95L213.75-10.95Q213.75-11.2 213.92-11.43 214.1-11.65 214.45-11.65L214.45-11.65 214.6-11.65Q215-12.35 215.9-12.75 216.8-13.15 217.6-13.25L217.6-13.25Q217.85-13.4 218.1-13.55 218.35-13.7 218.55-13.85L218.55-13.85Q218.65-13.9 218.72-14 218.8-14.1 218.85-14.15L218.85-14.15 218.95-14.25Q219-14.3 219-14.33 219-14.35 219-14.35L219-14.35 219.4-14.6 219.85-14.85Q219.9-14.85 220.1-15.05L220.1-15.05Q220.25-15.2 220.52-15.45 220.8-15.7 221-15.65L221-15.65Q221.5-15.65 221.62-15.4 221.75-15.15 221.75-14.75L221.75-14.75Q221.8-14.4 221.75-14.3L221.75-14.3Q221.7-14.25 221.62-14.08 221.55-13.9 221.45-13.5L221.45-13.5Q221.25-12.85 221.07-12.08 220.9-11.3 220.7-10.55L220.7-10.55Q220.65-10.35 220.7-10.13 220.75-9.9 220.7-9.65L220.7-9.65Q220.6-9.15 220.5-8.68 220.4-8.2 220.35-7.7L220.35-7.7Q220.3-7.1 220.27-6.23 220.25-5.35 220.25-4.67 220.25-4 220.25-3.85L220.25-3.85Q220.25-3.7 220.32-3.2 220.4-2.7 220.5-2.35L220.5-2.35Q220.8-1.65 221.55-1.1L221.55-1.1Q221.65-1.05 221.8-1 221.95-0.95 222.05-0.9L222.05-0.9 222.65-0.75Q222.85-0.7 223.02-0.6 223.2-0.5 223.2-0.35L223.2-0.35 223.2-0.3Q223.2-0.05 222.95 0.18 222.7 0.4 222.45 0.4ZM231.49 3.05L231.49 3.05Q231.29 3.2 230.99 3.2L230.99 3.2Q230.29 3.2 230.29 2.55L230.29 2.55Q230.29 2.3 230.54 1.95L230.54 1.95Q231.24 1.2 231.54 0.85 231.84 0.5 232.89 0.3L232.89 0.3Q232.99 0.3 233.04 0.28 233.09 0.25 233.14 0.25L233.14 0.25Q233.44-0.15 233.84-0.85 234.24-1.55 234.51-2.33 234.79-3.1 234.64-3.6L234.64-3.6Q234.59-3.8 234.56-3.98 234.54-4.15 234.54-4.3L234.54-4.3Q234.54-5.05 234.91-5.5 235.29-5.95 235.34-6.35L235.34-6.35 235.64-6.6Q235.69-6.65 235.69-6.68 235.69-6.7 235.69-6.7L235.69-6.7Q235.69-6.9 235.29-7.1 234.89-7.3 234.89-7.65L234.89-7.65Q234.89-8.2 235.19-8.43 235.49-8.65 235.64-8.7L235.64-8.7 235.64-9.7Q235.64-9.95 235.69-10.25 235.74-10.55 235.94-10.75L235.94-10.75Q235.84-11 235.74-11.23 235.64-11.45 235.49-11.65L235.49-11.65Q234.84-11.35 234.09-11.3 233.34-11.25 232.64-11.15L232.64-11.15 232.49-11.15Q232.19-11.15 232.01-11.38 231.84-11.6 231.84-11.85L231.84-11.85Q231.84-12.1 231.99-12.3 232.14-12.5 232.44-12.55L232.44-12.55Q232.94-12.65 233.86-12.68 234.79-12.7 235.09-13.1L235.09-13.1 235.24-13.3Q235.44-13.55 235.71-13.7 235.99-13.85 236.34-13.75L236.34-13.75 236.99-13.55Q237.74-14.15 238.14-14.35 238.54-14.55 239.49-15.05L239.49-15.05Q239.89-15.2 240.04-15.2L240.04-15.2Q240.49-15.2 240.49-14.6L240.49-14.6Q240.49-14.15 240.31-13.6 240.14-13.05 239.99-12.65L239.99-12.65Q240.29-12.9 240.91-13.45 241.54-14 241.89-14.15L241.89-14.15Q242.14-14.55 242.44-14.8 242.74-15.05 243.24-15.05L243.24-15.05Q243.69-15.05 244.04-14.6L244.04-14.6 244.84-14.6Q245.04-14.7 245.24-14.78 245.44-14.85 245.69-14.85L245.69-14.85Q246.24-14.85 246.86-14.48 247.49-14.1 247.54-13.7L247.54-13.7Q247.79-13.5 248.04-13.38 248.29-13.25 248.44-13L248.44-13Q248.64-12.65 248.61-12.3 248.59-11.95 248.59-11.55L248.59-11.55Q248.59-10.95 248.59-10.03 248.59-9.1 248.44-8.35 248.29-7.6 247.89-7.5L247.89-7.5 247.59-7.5Q246.94-6.45 245.84-5.75 244.74-5.05 243.04-5.05L243.04-5.05Q242.89-5.05 242.84-5.1L242.84-5.1Q242.69-5.05 242.39-5.05L242.39-5.05Q241.59-5.05 241.26-5.48 240.94-5.9 240.84-6.5L240.84-6.5Q240.59-7.1 240.59-7.6L240.59-7.6Q240.59-8.35 240.89-9L240.89-9Q241.14-9.75 241.61-10.25 242.09-10.75 242.94-10.75L242.94-10.75Q243.39-10.75 243.89-10.6L243.89-10.6Q244.49-10.45 244.49-9.9L244.49-9.9Q244.49-9.6 244.24-9.38 243.99-9.15 243.54-9.2L243.54-9.2 243.34-9.2Q242.64-9.2 242.24-8.45L242.24-8.45 242.24-7.75Q242.24-7.65 242.21-7.43 242.19-7.2 242.19-7L242.19-7Q242.49-6.6 242.84-6.55L242.84-6.55Q243.44-6.65 244.16-6.8 244.89-6.95 245.14-7.05L245.14-7.05Q245.09-7.2 245.09-7.45L245.09-7.45Q245.09-8.15 245.94-8.55L245.94-8.55Q245.79-8.8 245.79-8.95L245.79-8.95Q245.79-9.55 246.59-10.1L246.59-10.1Q246.09-10.4 246.09-10.95L246.09-10.95Q246.09-11.25 246.19-11.35 246.29-11.45 246.34-11.6L246.34-11.6Q246.09-11.9 246.09-12.2L246.09-12.2Q246.09-12.35 246.14-12.48 246.19-12.6 246.19-12.65L246.19-12.65Q246.19-12.75 245.99-12.85 245.79-12.95 245.09-13.1L245.09-13.1Q244.89-13.05 244.64-12.95 244.39-12.85 244.14-12.85L244.14-12.85Q243.74-12.85 243.49-13.1L243.49-13.1Q243.29-13.05 243.11-13.03 242.94-13 242.79-12.9L242.79-12.9Q242.39-12.45 241.61-12 240.84-11.55 240.09-11.05L240.09-11.05Q239.59-10.55 239.24-9.95 238.89-9.35 238.59-8.65L238.59-8.65Q238.69-8.35 238.34-7.5 237.99-6.65 237.89-6.3L237.89-6.3Q237.74-5.05 237.71-4.3 237.69-3.55 237.69-2.85 237.69-2.15 237.54-1.05L237.54-1.05Q237.99-0.95 238.41-0.83 238.84-0.7 239.34-0.65L239.34-0.65 239.39-0.6Q239.79-0.6 239.99-0.2L239.99-0.2Q240.64-0.15 240.64 0.5L240.64 0.5Q240.64 0.75 240.44 1 240.24 1.25 239.84 1.2L239.84 1.2Q239.64 1.2 238.91 1.07 238.19 0.95 237.34 0.75L237.34 0.75Q237.14 0.75 236.94 0.78 236.74 0.8 236.54 0.85L236.54 0.85Q236.29 1.4 235.64 1.4L235.64 1.4 235.39 1.4Q234.89 1.65 234.41 1.9 233.94 2.15 233.29 2.2L233.29 2.2Q232.79 2.2 232.54 2.23 232.29 2.25 232.19 2.3L232.19 2.3Q232.19 2.3 232.09 2.4L232.09 2.4Q232.04 2.45 231.96 2.63 231.89 2.8 231.49 3.05ZM278.42 7.35L278.42 7.35Q277.42 7.35 276.3 6.83 275.17 6.3 274.37 5.43 273.57 4.55 273.42 3.5L273.42 3.5Q273.37 3.05 273.35 2.6 273.32 2.15 273.12 1.7L273.12 1.7Q272.72 1.3 272.4 1 272.07 0.7 272.07 0.05L272.07 0.05Q272.07-1.45 272.47-3.15 272.87-4.85 273.75-6.35 274.62-7.85 276.07-8.78 277.52-9.7 279.57-9.7L279.57-9.7Q280.02-9.7 280.27-9.35L280.27-9.35 280.67-9.35Q281.42-9.35 281.95-8.72 282.47-8.1 282.8-7.18 283.12-6.25 283.27-5.38 283.42-4.5 283.42-4L283.42-4Q283.42-2.4 282.35-1.63 281.27-0.85 279.97-0.4L279.97-0.4Q279.47-0.2 279.1-0.53 278.72-0.85 278.72-1.25L278.72-1.25Q278.72-1.9 279.37-2.1L279.37-2.1Q280.02-2.35 280.8-2.78 281.57-3.2 281.57-4L281.57-4Q281.57-4.4 281.45-5.1 281.32-5.8 281.1-6.5 280.87-7.2 280.57-7.5L280.57-7.5Q280.27-7.5 280-7.6 279.72-7.7 279.42-7.7L279.42-7.7Q278.87-7.7 278.1-7.45 277.32-7.2 276.75-6.7 276.17-6.2 276.17-5.45L276.17-5.45Q276.17-5.1 276.2-4.78 276.22-4.45 276.22-4.15L276.22-4.15Q276.22-3.6 276.05-3.13 275.87-2.65 275.32-2.25L275.32-2.25 275.02-2.05Q274.97-1.75 274.95-1.43 274.92-1.1 274.92-0.8L274.92-0.8Q274.92-0.35 274.95 0.1 274.97 0.55 274.97 1.05L274.97 1.05Q275.17 1.4 275.42 1.68 275.67 1.95 275.82 2.4L275.82 2.4Q276.22 3.75 276.82 4.53 277.42 5.3 278.67 5.45L278.67 5.45Q278.97 5.4 279.25 5.3 279.52 5.2 279.77 5.1L279.77 5.1Q279.97 5 280.17 4.9 280.37 4.8 280.72 4.75L280.72 4.75 280.77 4.7Q281.17 4.6 281.42 4.6L281.42 4.6 281.52 4.55Q282.42 4.3 282.8 3.83 283.17 3.35 283.47 2.8 283.77 2.25 284.52 1.9L284.52 1.9 284.72 1.8Q284.97 1.65 285.17 1.3L285.17 1.3Q285.17 1.15 285.32 0.45 285.47-0.25 285.7-1.15 285.92-2.05 286.12-2.83 286.32-3.6 286.37-3.9L286.37-3.9Q286.52-4.65 286.52-5.3L286.52-5.3Q286.52-6 286.52-6.68 286.52-7.35 286.72-8L286.72-8Q286.97-8.65 287.35-9.45 287.72-10.25 287.72-11L287.72-11Q287.72-11.3 287.67-11.45L287.67-11.45Q287.52-11.9 287.52-12.4L287.52-12.4Q287.52-13.25 288.12-13.65L288.12-13.65Q288.17-13.75 288.17-13.88 288.17-14 288.22-14.2L288.22-14.2 288.17-14.35Q287.62-14 287.32-14L287.32-14Q286.97-14 286.8-14.33 286.62-14.65 285.97-14.65L285.97-14.65Q285.67-14.65 285.47-14.78 285.27-14.9 285.07-15.1L285.07-15.1 284.32-15.1Q283.47-14.85 282.37-13.6L282.37-13.6Q282.12-13.35 281.97-13.3L281.97-13.3Q281.87-13.1 281.87-13.05L281.87-13.05Q281.87-12.6 281.6-12.35 281.32-12.1 280.97-12.1L280.97-12.1Q280.62-12.1 280.32-12.35 280.02-12.6 280.02-13.05L280.02-13.05Q280.02-13.95 280.67-14.8 281.32-15.65 282.27-16.25 283.22-16.85 284.07-16.9L284.07-16.9Q284.32-17 284.6-17 284.87-17 285.12-17L285.12-17Q285.42-17 285.57-16.95L285.57-16.95Q286.37-16.95 287.02-16.93 287.67-16.9 288.32-16.7L288.32-16.7Q288.47-17.1 288.57-17.5 288.67-17.9 288.67-18.3L288.67-18.3Q288.52-18.75 288.32-19.1 288.12-19.45 288.12-19.85L288.12-19.85Q288.12-20.3 288.37-20.65L288.37-20.65Q287.62-21.1 287.62-22.05L287.62-22.05Q287.62-22.25 287.65-22.43 287.67-22.6 287.62-22.8L287.62-22.8Q287.27-23.2 287.07-23.55 286.87-23.9 286.97-24.45L286.97-24.45Q287.12-25.1 286.57-26 286.02-26.9 285.2-27.6 284.37-28.3 283.57-28.3L283.57-28.3Q283.07-28.3 282.6-28.2 282.12-28.1 281.67-28L281.67-28Q281.72-27.2 282.02-27.13 282.32-27.05 282.82-27.05L282.82-27.05Q283.22-27.05 283.45-26.78 283.67-26.5 283.67-26.15L283.67-26.15Q283.67-25.85 283.45-25.58 283.22-25.3 282.82-25.25L282.82-25.25Q282.67-25.2 282.52-25.2 282.37-25.2 282.27-25.2L282.27-25.2Q280.87-25.2 280.32-26.23 279.77-27.25 279.77-28.4L279.77-28.4Q279.77-28.95 280.32-29.35L280.32-29.35Q280.32-29.4 280.42-29.5L280.42-29.5Q280.57-29.65 281.22-30.1 281.87-30.55 282.57-30.95 283.27-31.35 283.47-31.35L283.47-31.35Q284.02-31.35 284.52-31.1 285.02-30.85 285.52-30.85L285.52-30.85Q286.57-30.85 286.92-30.48 287.27-30.1 287.77-30.1L287.77-30.1Q288.17-30.1 288.42-29.83 288.67-29.55 288.67-29.15L288.67-29.15Q288.67-28.35 289.1-27.65 289.52-26.95 289.92-26.18 290.32-25.4 290.32-24.35L290.32-24.35Q290.32-24.15 290.3-23.95 290.27-23.75 290.22-23.5L290.22-23.5Q290.52-23.05 290.67-21.8 290.82-20.55 290.82-19.35L290.82-19.35Q290.82-17.75 290.57-17.15L290.57-17.15Q290.37-16.75 290.3-16.5 290.22-16.25 290.12-16L290.12-16Q290.32-15.9 290.37-15.85L290.37-15.85Q290.62-15.75 290.82-15.68 291.02-15.6 291.22-15.6L291.22-15.6Q291.42-15.7 291.62-15.78 291.82-15.85 292.02-15.85L292.02-15.85Q292.87-15.85 293.85-15.68 294.82-15.5 295.47-15.5L295.47-15.5Q295.62-15.5 295.9-15.65 296.17-15.8 296.57-15.8L296.57-15.8Q296.67-15.8 296.8-15.78 296.92-15.75 297.07-15.75L297.07-15.75 297.12-15.75Q296.87-16.15 297.2-16.7 297.52-17.25 297.87-17.5L297.87-17.5Q298.02-17.6 298.17-17.65 298.32-17.7 298.42-17.75L298.42-17.75Q298.42-17.85 298.37-17.95L298.37-17.95 298.32-18.25Q298.27-18.45 298.25-18.63 298.22-18.8 298.22-19L298.22-19Q298.22-19.8 298.77-20.35L298.77-20.35Q298.92-20.65 299.07-21.63 299.22-22.6 299.35-23.63 299.47-24.65 299.47-25.05L299.47-25.05Q299.47-26.2 299.52-26.95 299.57-27.7 300.52-28.35L300.52-28.35Q300.62-28.55 300.72-28.78 300.82-29 300.92-29.25L300.92-29.25 301.12-30.05Q301.37-31.05 301.62-31.73 301.87-32.4 302.47-32.75 303.07-33.1 304.42-33.1L304.42-33.1 304.57-33.1Q306.17-33.1 306.85-31.93 307.52-30.75 307.52-29.7L307.52-29.7Q307.52-28.75 307.3-28.43 307.07-28.1 306.22-27.7L306.22-27.7 306.12-27.6Q305.97-27.25 305.67-26.9 305.37-26.55 304.92-26.55L304.92-26.55Q304.17-26.55 303.85-26.95 303.52-27.35 303.52-27.8L303.52-27.8Q303.52-28.2 303.75-28.55 303.97-28.9 304.32-28.9L304.32-28.9Q304.52-28.9 304.72-28.75L304.72-28.75Q305.02-29.3 305.67-29.5L305.67-29.5 305.67-29.7Q305.67-30.45 305.35-30.88 305.02-31.3 304.57-31.3L304.57-31.3Q303.92-31.3 303.5-30.43 303.07-29.55 302.67-28.55L302.67-28.55Q301.92-25.6 301.22-22.6 300.52-19.6 300.52-16.55L300.52-16.55 300.52-15.95Q301.52-16.15 302.37-16.48 303.22-16.8 303.52-17.15L303.52-17.15Q303.82-17.55 303.9-18.35 303.97-19.15 304.1-19.85 304.22-20.55 304.57-20.55L304.57-20.55Q304.92-20.55 305.37-19.95L305.37-19.95Q305.82-19.35 305.82-18.6L305.82-18.6Q305.82-17.8 305.52-17.07 305.22-16.35 304.92-15.95L304.92-15.95Q304.32-15.2 303.02-14.75 301.72-14.3 300.37-14.05L300.37-14.05Q300.17-11.75 299.7-9.58 299.22-7.4 299.22-4.9L299.22-4.9Q299.22-3.6 299.47-2.5 299.72-1.4 300.12-0.35L300.12-0.35Q300.42-0.15 300.8 0.03 301.17 0.2 301.67 0.2L301.67 0.2Q302.32 0.2 302.95-0.43 303.57-1.05 303.97-1.83 304.37-2.6 304.37-3.1L304.37-3.1Q304.37-3.6 304.35-4.3 304.32-5 304.05-5.55 303.77-6.1 303.07-6.1L303.07-6.1Q303.02-6.1 302.72-5.8 302.42-5.5 302.42-4.95L302.42-4.95Q302.42-4.75 302.52-4.45L302.52-4.45 302.57-4.15 302.57-3.8Q302.57-3.35 302.3-3.1 302.02-2.85 301.67-2.85L301.67-2.85Q301.32-2.85 301.02-3.1 300.72-3.35 300.72-3.8L300.72-3.8 300.72-3.85 300.67-4.15Q300.62-4.4 300.6-4.6 300.57-4.8 300.57-4.95L300.57-4.95Q300.57-5.8 301.2-6.88 301.82-7.95 303.07-7.95L303.07-7.95Q304.47-7.95 305.15-7.18 305.82-6.4 306.02-5.28 306.22-4.15 306.22-3.1L306.22-3.1Q306.22-2.35 305.67-1.13 305.12 0.1 304.1 1.07 303.07 2.05 301.67 2.05L301.67 2.05Q300.77 2.05 300.02 1.75L300.02 1.75Q299.82 1.85 299.62 1.85L299.62 1.85Q299.02 1.85 298.82 1.3L298.82 1.3Q298.77 1.15 298.72 1.03 298.67 0.9 298.62 0.8L298.62 0.8Q297.67-0.2 297.25-1.75 296.82-3.3 296.75-4.93 296.67-6.55 296.67-7.8L296.67-7.8Q296.67-8.1 296.8-8.3 296.92-8.5 297.07-8.6L297.07-8.6Q296.97-8.85 296.85-9.08 296.72-9.3 296.72-9.6L296.72-9.6Q296.72-10.6 297.05-11.3 297.37-12 297.67-12.85L297.67-12.85Q297.02-13.3 297.02-13.9L297.02-13.9Q296.42-13.9 296.02-13.55L296.02-13.55Q295.77-13.35 295.45-13.2 295.12-13.05 294.62-13.05L294.62-13.05Q294.32-13.05 294.02-13.18 293.72-13.3 293.42-13.3L293.42-13.3Q293.07-13.3 292.72-13.13 292.37-12.95 291.97-12.95L291.97-12.95Q291.47-12.95 291.07-13.15 290.67-13.35 290.32-13.6L290.32-13.6 290.32-13.45Q290.32-13.1 290.15-12.8 289.97-12.5 289.47-12.25L289.47-12.25 289.37-12.2Q289.52-11.25 289.52-10.65L289.52-10.65Q289.52-9.85 289.25-9.3 288.97-8.75 288.52-7.4L288.52-7.4Q288.47-7.2 288.4-6.48 288.32-5.75 288.27-4.85 288.22-3.95 288.2-3.18 288.17-2.4 288.22-2.1L288.22-2.1Q288.27-1.9 288.27-1.75 288.27-1.6 288.27-1.45L288.27-1.45Q288.27-0.75 288-0.2 287.72 0.35 286.97 0.65L286.97 0.65Q286.97 0.65 286.87 1.2 286.77 1.75 286.5 2.4 286.22 3.05 285.67 3.35L285.67 3.35 285.47 3.5Q284.67 4.1 284.32 4.6 283.97 5.1 283.7 5.48 283.42 5.85 282.82 6.13 282.22 6.4 280.92 6.55L280.92 6.55 280.82 6.6Q280.47 6.9 280.17 7.1 279.87 7.3 279.32 7.3L279.32 7.3 278.72 7.3Q278.67 7.3 278.6 7.33 278.52 7.35 278.42 7.35ZM316.92-0.75L316.37-0.75Q315.62-0.75 315.17-1.33 314.72-1.9 314.54-2.65 314.37-3.4 314.37-4L314.37-4Q314.37-4.65 314.67-5.08 314.97-5.5 315.37-5.95L315.37-5.95 315.32-6Q314.92-6.4 314.92-6.85L314.92-6.85Q314.92-7.45 315.39-8 315.87-8.55 316.22-8.95L316.22-8.95Q317.07-9.95 318.37-10.3 319.67-10.65 320.92-10.65L320.92-10.65Q321.22-10.65 322.17-10.38 323.12-10.1 323.92-9.7L323.92-9.7Q323.92-10.15 323.89-10.58 323.87-11 323.72-11.5L323.72-11.5Q323.67-11.75 323.59-12.05 323.52-12.35 323.52-12.65L323.52-12.65Q323.52-13 323.67-13.3L323.67-13.3Q323.07-13.55 323.07-14.2L323.07-14.2Q323.07-16 321.82-16L321.82-16Q320.27-16 319.07-15.7L319.07-15.7Q318.42-15.4 317.97-14.83 317.52-14.25 316.87-13.25L316.87-13.25Q316.77-13.05 316.77-12.95L316.77-12.95Q316.87-12.75 316.94-12.58 317.02-12.4 317.12-12.25L317.12-12.25Q317.47-12 317.92-12L317.92-12Q317.92-12 318.14-12.25 318.37-12.5 318.37-12.55L318.37-12.55 318.37-12.75Q318.17-13 318.17-13.25L318.17-13.25Q318.17-13.85 318.92-13.85L318.92-13.85Q319.27-13.85 319.54-13.6 319.82-13.35 319.82-12.75L319.82-12.75 319.82-12.55Q319.82-12.05 319.22-11.3 318.62-10.55 317.92-10.55L317.92-10.55Q317.67-10.55 317.39-10.63 317.12-10.7 316.87-10.75L316.87-10.75Q316.67-10.75 316.47-10.85 316.27-10.95 316.02-11.25L316.02-11.25Q315.72-11.5 315.49-11.85 315.27-12.2 315.27-12.65L315.27-12.65Q315.22-12.9 315.14-13.08 315.07-13.25 315.07-13.3L315.07-13.3Q315.07-13.55 315.14-13.73 315.22-13.9 315.27-14.05L315.27-14.05Q315.07-14.4 315.27-14.7L315.27-14.7Q315.72-15.7 316.57-16.25 317.42-16.8 318.42-17.05L318.42-17.05Q319.22-17.45 320.09-17.55 320.97-17.65 322.02-17.65L322.02-17.65Q323.32-17.65 323.59-17.35 323.87-17.05 324.32-16.1L324.32-16.1Q325.27-15.65 325.69-15.18 326.12-14.7 326.27-13.4L326.27-13.4Q326.42-12.1 326.37-10.75 326.32-9.4 326.49-8.13 326.67-6.85 327.32-5.65L327.32-5.65Q327.37-5.5 327.57-5.2L327.57-5.2Q328.02-5.45 328.47-5.7 328.92-5.95 329.42-6L329.42-6 329.57-6Q329.92-6 330.09-5.78 330.27-5.55 330.27-5.3L330.27-5.3Q330.27-5.1 330.12-4.88 329.97-4.65 329.67-4.6L329.67-4.6Q329.37-4.55 328.72-4.15 328.07-3.75 327.47-3.55L327.47-3.55Q326.82-3.25 326.32-2.83 325.82-2.4 325.27-1.7L325.27-1.7Q324.97-1.4 324.62-1.4L324.62-1.4Q323.82-1.4 323.97-2.35L323.97-2.35Q324.02-2.45 324.09-3.05 324.17-3.65 324.22-4.35L324.22-4.35Q323.92-3.9 323.39-3.48 322.87-3.05 321.92-2.55L321.92-2.55Q321.82-2.5 321.54-2.38 321.27-2.25 321.12-2.2L321.12-2.2Q320.62-2 320.17-1.73 319.72-1.45 319.27-1.05L319.27-1.05Q319.07-0.85 318.79-0.75 318.52-0.65 318.07-0.65L318.07-0.65Q317.87-0.65 317.57-0.68 317.27-0.7 316.92-0.75L316.92-0.75ZM318.67-3.3L319.62-3.25Q319.87-3.25 319.97-3.3L319.97-3.3Q321.27-3.95 321.97-4.23 322.67-4.5 323.04-5.03 323.42-5.55 323.72-6.9L323.72-6.9Q323.72-7 323.74-7.13 323.77-7.25 323.77-7.45L323.77-7.45Q323.77-8.1 323.62-8.3L323.62-8.3Q322.97-9 322.07-9L322.07-9Q321.57-9 321.09-8.9 320.62-8.8 320.17-8.85L320.17-8.85Q320.07-8.2 319.47-8.2L319.47-8.2 319.22-8.2Q319.02-7.65 318.52-7.65L318.52-7.65 318.37-7.65Q318.17-6.95 317.67-6.48 317.17-6 317.17-5.2L317.17-5.2 317.17-4.85Q317.67-4.35 317.67-3.75L317.67-3.75Q317.97-3.65 318.19-3.48 318.42-3.3 318.62-3.3L318.62-3.3 318.67-3.3ZM347.76-18.9L347.76-18.9Q347.01-18.9 346.21-19.53 345.41-20.15 345.41-21.05L345.41-21.05Q345.41-21.45 345.86-21.9 346.31-22.35 346.61-22.6L346.61-22.6 347.31-23.15Q347.41-23.25 347.63-23.28 347.86-23.3 348.01-23.3L348.01-23.3Q348.66-23.3 349.11-22.68 349.56-22.05 349.56-21.6L349.56-21.6Q349.56-21.2 349.38-20.55 349.21-19.9 348.83-19.4 348.46-18.9 347.76-18.9ZM348.26 0.4L348.26 0.4Q348.26 0.4 347.96 0.3L347.96 0.3Q347.86 0.3 347.71 0.25 347.56 0.2 347.41 0.15L347.41 0.15Q347.06 0.05 346.76-0.03 346.46-0.1 346.36-0.1L346.36-0.1Q346.16-0.1 345.86 0L345.86 0Q345.56 0.1 345.46 0.1L345.46 0.1Q345.41 0.1 345.28 0.05 345.16 0 345.11 0L345.11 0Q344.96-0.05 344.81-0.1 344.66-0.15 344.46-0.15L344.46-0.15Q344.21-0.25 343.86-0.23 343.51-0.2 343.36-0.2L343.36-0.2 340.31-0.15Q340.16-0.15 340.11-0.2L340.11-0.2Q339.71 0 339.41 0L339.41 0 339.26 0Q338.91 0.5 338.56 0.5L338.56 0.5Q338.21 0.5 338.01 0.1 337.81-0.3 337.81-0.8L337.81-0.8Q337.81-1.5 338.51-1.5L338.51-1.5 338.66-1.5Q338.96-1.75 339.36-1.75L339.36-1.75Q339.51-1.75 339.81-1.65L339.81-1.65Q340.11-1.75 340.31-1.75L340.31-1.75Q340.61-1.75 340.83-1.68 341.06-1.6 341.36-1.6L341.36-1.6Q341.61-1.6 342.01-1.8 342.41-2 342.71-2.2L342.71-2.2 342.86-2.65Q342.51-3.25 342.51-3.7L342.51-3.7Q342.51-4.3 343.21-4.7L343.21-4.7Q343.06-5 343.06-5.25L343.06-5.25Q343.06-5.6 343.41-5.95L343.41-5.95Q342.96-6.2 342.96-6.6L342.96-6.6Q342.96-6.85 343.16-7.2L343.16-7.2Q343.26-7.3 343.31-7.4L343.31-7.4Q342.76-7.65 342.76-8.35L342.76-8.35Q342.76-8.95 343.36-9.05L343.36-9.05Q343.36-9.15 343.33-9.2 343.31-9.25 343.31-9.3L343.31-9.3Q343.31-9.6 343.46-9.8 343.61-10 343.81-10.15L343.81-10.15Q343.46-10.55 343.56-11L343.56-11Q343.36-11.2 342.91-11.1L342.91-11.1Q342.86-11.1 342.81-11.08 342.76-11.05 342.66-11.05L342.66-11.05Q342.36-10.95 342.26-10.95L342.26-10.95 341.76-11.05Q341.66-10.95 341.66-10.9L341.66-10.9Q341.11-10.4 340.68-10.3 340.26-10.2 340.26-10.2L340.26-10.2Q339.56-10.2 339.56-10.95L339.56-10.95Q339.56-11.2 339.73-11.43 339.91-11.65 340.26-11.65L340.26-11.65 340.41-11.65Q340.81-12.35 341.71-12.75 342.61-13.15 343.41-13.25L343.41-13.25Q343.66-13.4 343.91-13.55 344.16-13.7 344.36-13.85L344.36-13.85Q344.46-13.9 344.53-14 344.61-14.1 344.66-14.15L344.66-14.15 344.76-14.25Q344.81-14.3 344.81-14.33 344.81-14.35 344.81-14.35L344.81-14.35 345.21-14.6 345.66-14.85Q345.71-14.85 345.91-15.05L345.91-15.05Q346.06-15.2 346.33-15.45 346.61-15.7 346.81-15.65L346.81-15.65Q347.31-15.65 347.43-15.4 347.56-15.15 347.56-14.75L347.56-14.75Q347.61-14.4 347.56-14.3L347.56-14.3Q347.51-14.25 347.43-14.08 347.36-13.9 347.26-13.5L347.26-13.5Q347.06-12.85 346.88-12.08 346.71-11.3 346.51-10.55L346.51-10.55Q346.46-10.35 346.51-10.13 346.56-9.9 346.51-9.65L346.51-9.65Q346.41-9.15 346.31-8.68 346.21-8.2 346.16-7.7L346.16-7.7Q346.11-7.1 346.08-6.23 346.06-5.35 346.06-4.67 346.06-4 346.06-3.85L346.06-3.85Q346.06-3.7 346.13-3.2 346.21-2.7 346.31-2.35L346.31-2.35Q346.61-1.65 347.36-1.1L347.36-1.1Q347.46-1.05 347.61-1 347.76-0.95 347.86-0.9L347.86-0.9 348.46-0.75Q348.66-0.7 348.83-0.6 349.01-0.5 349.01-0.35L349.01-0.35 349.01-0.3Q349.01-0.05 348.76 0.18 348.51 0.4 348.26 0.4ZM358.2 2.85L358.2 2.85Q357.85 2.85 357.68 2.63 357.5 2.4 357.5 2.15L357.5 2.15Q357.5 1.65 358 1.45L358 1.45 358.85 1.15Q359.25 1 359.65 0.8 360.05 0.6 360.4 0.4L360.4 0.4Q361.3-0.5 361.43-1.68 361.55-2.85 361.53-3.9 361.5-4.95 361.95-5.55L361.95-5.55Q361.25-6.1 361.25-6.6L361.25-6.6Q361.25-7 361.55-7.2L361.55-7.2Q361.6-7.6 361.73-8.08 361.85-8.55 361.9-8.9L361.9-8.9 360.2-8.9Q360-8.85 359.85-8.78 359.7-8.7 359.5-8.65L359.5-8.65Q359.45-8.65 359.4-8.63 359.35-8.6 359.25-8.6L359.25-8.6Q358.95-8.6 358.78-8.85 358.6-9.1 358.6-9.35L358.6-9.35Q358.6-9.75 358.9-9.95L358.9-9.95Q359.1-10.25 359.45-10.3L359.45-10.3Q359.7-10.35 359.9-10.4 360.1-10.45 360.3-10.5L360.3-10.5Q361.45-11.05 362.33-11.85 363.2-12.65 364.1-13.38 365-14.1 366.15-14.5L366.15-14.5Q366.3-14.55 366.5-14.55L366.5-14.55Q367.2-14.55 367.2-13.95L367.2-13.95Q367.2-13.7 366.95-13.35L366.95-13.35Q366.65-13 366.13-12.35 365.6-11.7 365.18-10.95 364.75-10.2 364.75-9.55L364.75-9.55Q364.75-9.45 364.78-9.35 364.8-9.25 364.85-9.15L364.85-9.15Q365.2-8.35 365.2-7.75L365.2-7.75Q365.5-8.5 365.75-8.8 366-9.1 366.35-9.3 366.7-9.5 367.2-9.9L367.2-9.9 367.2-10Q367.2-10.55 367.8-10.7L367.8-10.7 368-10.75Q368.4-11.3 368.83-11.73 369.25-12.15 370.05-12.45L370.05-12.45 370.05-12.55Q370.25-13.25 371.15-13.25L371.15-13.25Q373.45-13.25 374.2-11.98 374.95-10.7 374.95-8.85L374.95-8.85Q374.95-7.3 374.65-5.55 374.35-3.8 374.35-2.4L374.35-2.4Q374.35-1.7 374.5-1.15L374.5-1.15Q374.55-1.05 375.03-0.68 375.5-0.3 376-0.05L376-0.05 376.25 0 376.55 0.05 376.7 0.1Q376.7 0.2 377.05 0.55 377.4 0.9 377.4 1.15L377.4 1.15Q377.4 1.55 376.5 1.55L376.5 1.55Q376.3 1.55 376.1 1.48 375.9 1.4 375.65 1.35L375.65 1.35Q375.15 1.25 374.7 1.15 374.25 1.05 373.75 1L373.75 1 373.35 0.95Q373.3 0.95 373.25 0.93 373.2 0.9 373.2 0.9L373.2 0.9Q372.6 0.9 371.58 0.98 370.55 1.05 369.75 1.3L369.75 1.3Q369.5 1.4 369.3 1.53 369.1 1.65 368.9 1.75L368.9 1.75Q368.75 1.85 368.45 1.85L368.45 1.85Q367.75 1.85 367.75 1.2L367.75 1.2Q367.75 0.85 368.1 0.55L368.1 0.55Q368.55 0.2 369.25-0.05L369.25-0.05Q369.9-0.35 370.55-0.75 371.2-1.15 371.25-1.45L371.25-1.45Q371.2-1.55 371.13-1.65 371.05-1.75 370.95-1.8L370.95-1.8Q370.5-2.35 370.5-2.85L370.5-2.85Q370.5-3.35 370.78-3.6 371.05-3.85 371.2-3.95L371.2-3.95Q370.9-4.2 370.9-4.6L370.9-4.6Q370.9-5.15 371.23-5.83 371.55-6.5 371.55-6.95L371.55-6.95Q371.55-7.7 371.25-8.2 370.95-8.7 370.63-9.15 370.3-9.6 370.2-10.25L370.2-10.25Q369.85-10.05 369.48-9.83 369.1-9.6 368.7-9.4L368.7-9.4Q368.45-9.15 368.18-8.9 367.9-8.65 367.55-8.4L367.55-8.4Q367.35-8.25 367.15-8.1 366.95-7.95 366.7-7.7L366.7-7.7Q366.45-7.05 366.33-6.8 366.2-6.55 365.55-6L365.55-6Q365-5.5 364.8-5.15L364.8-5.15 364.8-5Q364.8-4.85 364.83-4.67 364.85-4.5 364.85-4.35L364.85-4.35Q364.85-3.5 364.68-2.65 364.5-1.8 364.4-0.95L364.4-0.95Q365-0.85 365.3-0.28 365.6 0.3 366 0.6L366 0.6Q366.3 0.75 366.55 1L366.55 1Q366.8 1.2 366.8 1.55L366.8 1.55Q366.8 1.85 366.58 2.08 366.35 2.3 366.1 2.3L366.1 2.3Q365.85 2.3 365.65 2.1L365.65 2.1Q365.35 1.9 365.15 1.85L365.15 1.85Q364.65 2.05 364.08 1.68 363.5 1.3 362.65 1.3L362.65 1.3Q362.3 1.3 361.93 1.4 361.55 1.5 361.2 1.65L361.2 1.65Q360.95 1.85 360.6 2.02 360.25 2.2 359.85 2.35L359.85 2.35 359.4 2.5Q359.2 2.55 358.95 2.65 358.7 2.75 358.45 2.8L358.45 2.8Q358.4 2.8 358.35 2.83 358.3 2.85 358.2 2.85ZM415.84-20.45L415.84-20.45Q415.64-20.45 415.46-20.45 415.29-20.45 415.09-20.5L415.09-20.5 414.94-20.5Q414.59-20.5 414.19-20.8L414.19-20.8Q413.99-20.9 413.79-21.05L413.79-21.05Q413.69-21 413.59-20.98 413.49-20.95 413.39-20.95L413.39-20.95Q412.44-20.95 412.14-21.48 411.84-22 411.54-22.65L411.54-22.65Q411.44-23.15 411.41-23.43 411.39-23.7 411.39-23.9L411.39-23.9Q410.69-24.25 410.69-25L410.69-25Q410.69-25.75 411.44-26.15L411.44-26.15Q410.89-26.6 410.89-27.15L410.89-27.15Q410.89-28 411.99-28.35L411.99-28.35Q411.94-28.45 411.94-28.6 411.94-28.75 411.94-28.85L411.94-28.85Q411.94-29.85 413.01-30.5 414.09-31.15 414.89-31.45L414.89-31.45Q415.14-31.95 415.46-32.27 415.79-32.6 416.24-32.6L416.24-32.6Q416.64-32.6 417.09-32.3L417.09-32.3Q417.59-32.55 417.79-32.85 417.99-33.15 418.74-33.15L418.74-33.15Q418.94-33.15 419.09-33.08 419.24-33 419.39-33L419.39-33Q419.74-33 420.04-33.18 420.34-33.35 420.69-33.35L420.69-33.35Q421.39-33.35 421.84-32.9L421.84-32.9 421.89-32.85 422.14-32.85Q422.44-32.95 422.76-33.1 423.09-33.25 423.44-33.25L423.44-33.25Q424.14-33.25 424.71-33 425.29-32.75 425.94-32.75L425.94-32.75Q426.79-32.75 427.31-32.35 427.84-31.95 428.24-31.95L428.24-31.95Q428.64-31.95 428.96-31.9 429.29-31.85 429.64-31.75L429.64-31.75Q430.09-31.7 430.56-31.7 431.04-31.7 431.49-31.65L431.49-31.65 431.69-31.65Q432.04-31.65 432.19-31.55L432.19-31.55Q432.44-31.5 432.69-31.4 432.94-31.3 433.14-31.2L433.14-31.2 433.59-30.95Q434.14-30.6 434.34-30.6L434.34-30.6Q434.74-30.6 434.96-30.95 435.19-31.3 435.39-31.55L435.39-31.55Q435.79-32 436.29-32L436.29-32Q436.89-32 436.89-31.45L436.89-31.45Q436.89-31.2 436.59-30.8L436.59-30.8Q436.24-30.4 435.49-29.83 434.74-29.25 433.79-29.25L433.79-29.25Q433.34-29.25 432.96-29.38 432.59-29.5 432.19-29.65L432.19-29.65 431.64-29.8Q431.49-29.8 431.36-29.73 431.24-29.65 431.04-29.65L431.04-29.65Q430.34-29.65 429.64-29.85 428.94-30.05 428.24-30.05L428.24-30.05Q427.44-30.05 426.86-30.45 426.29-30.85 425.94-30.85L425.94-30.85Q425.29-30.85 424.66-31.1 424.04-31.35 423.34-31.35L423.34-31.35Q422.94-31.2 422.59-31.05 422.24-30.9 421.89-30.9L421.89-30.9Q421.44-30.9 420.89-31.3L420.89-31.3 420.84-31.3Q420.14-31.3 419.44-31.15 418.74-31 418.14-30.75L418.14-30.75Q417.79-30.5 417.34-30.4L417.34-30.4Q415.94-29.75 415.16-28.53 414.39-27.3 414.39-25.4L414.39-25.4Q414.39-24.75 414.41-24.1 414.44-23.45 414.59-22.9L414.59-22.9Q415.04-22.75 415.39-22.25L415.39-22.25Q415.64-22.15 415.79-21.9L415.79-21.9 416.59-21.9Q416.89-21.9 417.21-21.93 417.54-21.95 417.74-22L417.74-22Q417.99-22.1 418.16-22.35 418.34-22.6 418.64-23.25L418.64-23.25Q419.09-24.1 419.09-25.25L419.09-25.25Q419.09-25.95 418.89-26.4L418.89-26.4Q418.84-26.55 418.81-26.7 418.79-26.85 418.79-27L418.79-27Q418.79-27.5 419.04-27.83 419.29-28.15 419.54-28.15L419.54-28.15Q419.89-28.15 420.09-27.65L420.09-27.65Q420.49-26.55 420.59-26.1 420.69-25.65 420.69-24.55L420.69-24.55Q420.69-22.4 419.39-21.43 418.09-20.45 415.84-20.45ZM412.14 13.85L412.14 13.85Q411.34 13.85 410.71 13.7 410.09 13.55 409.54 13.35L409.54 13.35Q409.04 13.15 408.56 12.95 408.09 12.75 407.54 12.6L407.54 12.6Q404.49 11.8 403.19 9.65 401.89 7.5 401.89 3.75L401.89 3.75Q401.89 1.45 402.51-0.13 403.14-1.7 404.16-2.88 405.19-4.05 406.44-5.1L406.44-5.1Q407.79-6.25 408.94-7.1 410.09-7.95 412.09-7.95L412.09-7.95Q413.84-7.95 414.84-6.85 415.84-5.75 416.26-4.13 416.69-2.5 416.69-0.95L416.69-0.95Q416.69 3.05 413.04 3.05L413.04 3.05Q411.94 3.05 411.34 2.68 410.74 2.3 410.49 1.3L410.49 1.3Q410.34 0.75 410.69 0.4 411.04 0.05 411.49 0.05L411.49 0.05Q411.84 0.05 412.14 0.25 412.44 0.45 412.49 0.85L412.49 0.85Q412.54 1 412.51 1.13 412.49 1.25 412.44 1.4L412.44 1.4Q413.44 1.35 414.01 0.68 414.59 0 414.59-1.1L414.59-1.1Q414.59-2.7 414.16-3.3 413.74-3.9 412.14-3.9L412.14-3.9Q411.14-3.9 410.56-4.1 409.99-4.3 409.49-4.3L409.49-4.3Q408.94-4.3 408.24-3.75L408.24-3.75Q407.54-3.15 406.86-1.9 406.19-0.65 405.49 0.05L405.49 0.05Q404.84 0.7 404.41 1.58 403.99 2.45 403.99 3.9L403.99 3.9Q403.99 6.8 404.91 8.38 405.84 9.95 407.99 10.6L407.99 10.6Q408.54 10.75 408.99 10.95 409.44 11.15 409.89 11.35L409.89 11.35Q410.39 11.55 410.91 11.68 411.44 11.8 412.14 11.8L412.14 11.8Q414.24 11.8 416.34 10.78 418.44 9.75 420.24 8.38 422.04 7 423.14 5.95L423.14 5.95Q424.09 5.05 424.64 3.95 425.19 2.85 425.69 1.5L425.69 1.5Q426.14 0.2 426.36-0.7 426.59-1.6 426.74-2.5L426.74-2.5Q426.89-3.35 427.01-4.42 427.14-5.5 427.39-7.15L427.39-7.15 426.74-11.55 423.64-25.05Q423.69-25.85 423.74-26.55 423.79-27.25 423.89-27.85L423.89-27.85Q424.04-28.5 424.34-29.03 424.64-29.55 425.19-29.9L425.19-29.9Q425.29-30 425.59-30L425.59-30Q425.99-30 426.44-29.73 426.89-29.45 427.29-29.05L427.29-29.05Q427.99-28.35 427.99-27.6L427.99-27.6Q427.99-27.2 427.74-27.05L427.74-27.05Q427.69-27 427.59-26.9 427.49-26.8 427.44-26.7L427.44-26.7Q427.39-25.85 427.74-25.03 428.09-24.2 427.89-23.2L427.89-23.2Q427.84-22.85 428.11-22.58 428.39-22.3 428.39-21.9L428.39-21.9Q428.39-21.7 428.24-21.4L428.24-21.4Q428.64-21 428.64-20.55L428.64-20.55Q428.64-20.25 428.49-19.95L428.49-19.95Q428.99-19.6 428.99-19.15L428.99-19.15Q428.99-18.7 428.86-18.43 428.74-18.15 428.59-17.75L428.59-17.75Q429.39-17.45 429.39-16.55L429.39-16.55Q429.39-16.1 429.04-15.55L429.04-15.55 429.09-15.5Q429.64-14.95 429.64-14.25L429.64-14.25Q429.64-13.75 429.41-13.25 429.19-12.75 428.89-12.35L428.89-12.35 428.99-11.9 428.99-11.85Q429.34-11.5 429.46-10.85 429.59-10.2 429.59-9.45L429.59-9.45Q429.59-8.35 429.44-7.15L429.44-7.15 429.54-5.9Q429.24-4.2 429.09-3.2 428.94-2.2 428.79-1.48 428.64-0.75 428.36 0.08 428.09 0.9 427.64 2.2L427.64 2.2Q427.09 3.8 426.36 5.08 425.64 6.35 424.59 7.4L424.59 7.4Q423.34 8.6 421.31 10.13 419.29 11.65 416.91 12.75 414.54 13.85 412.14 13.85ZM441.83-0.75L441.28-0.75Q440.53-0.75 440.08-1.33 439.63-1.9 439.45-2.65 439.28-3.4 439.28-4L439.28-4Q439.28-4.65 439.58-5.08 439.88-5.5 440.28-5.95L440.28-5.95 440.23-6Q439.83-6.4 439.83-6.85L439.83-6.85Q439.83-7.45 440.3-8 440.78-8.55 441.13-8.95L441.13-8.95Q441.98-9.95 443.28-10.3 444.58-10.65 445.83-10.65L445.83-10.65Q446.13-10.65 447.08-10.38 448.03-10.1 448.83-9.7L448.83-9.7Q448.83-10.15 448.8-10.58 448.78-11 448.63-11.5L448.63-11.5Q448.58-11.75 448.5-12.05 448.43-12.35 448.43-12.65L448.43-12.65Q448.43-13 448.58-13.3L448.58-13.3Q447.98-13.55 447.98-14.2L447.98-14.2Q447.98-16 446.73-16L446.73-16Q445.18-16 443.98-15.7L443.98-15.7Q443.33-15.4 442.88-14.83 442.43-14.25 441.78-13.25L441.78-13.25Q441.68-13.05 441.68-12.95L441.68-12.95Q441.78-12.75 441.85-12.58 441.93-12.4 442.03-12.25L442.03-12.25Q442.38-12 442.83-12L442.83-12Q442.83-12 443.05-12.25 443.28-12.5 443.28-12.55L443.28-12.55 443.28-12.75Q443.08-13 443.08-13.25L443.08-13.25Q443.08-13.85 443.83-13.85L443.83-13.85Q444.18-13.85 444.45-13.6 444.73-13.35 444.73-12.75L444.73-12.75 444.73-12.55Q444.73-12.05 444.13-11.3 443.53-10.55 442.83-10.55L442.83-10.55Q442.58-10.55 442.3-10.63 442.03-10.7 441.78-10.75L441.78-10.75Q441.58-10.75 441.38-10.85 441.18-10.95 440.93-11.25L440.93-11.25Q440.63-11.5 440.4-11.85 440.18-12.2 440.18-12.65L440.18-12.65Q440.13-12.9 440.05-13.08 439.98-13.25 439.98-13.3L439.98-13.3Q439.98-13.55 440.05-13.73 440.13-13.9 440.18-14.05L440.18-14.05Q439.98-14.4 440.18-14.7L440.18-14.7Q440.63-15.7 441.48-16.25 442.33-16.8 443.33-17.05L443.33-17.05Q444.13-17.45 445-17.55 445.88-17.65 446.93-17.65L446.93-17.65Q448.23-17.65 448.5-17.35 448.78-17.05 449.23-16.1L449.23-16.1Q450.18-15.65 450.6-15.18 451.03-14.7 451.18-13.4L451.18-13.4Q451.33-12.1 451.28-10.75 451.23-9.4 451.4-8.13 451.58-6.85 452.23-5.65L452.23-5.65Q452.28-5.5 452.48-5.2L452.48-5.2Q452.93-5.45 453.38-5.7 453.83-5.95 454.33-6L454.33-6 454.48-6Q454.83-6 455-5.78 455.18-5.55 455.18-5.3L455.18-5.3Q455.18-5.1 455.03-4.88 454.88-4.65 454.58-4.6L454.58-4.6Q454.28-4.55 453.63-4.15 452.98-3.75 452.38-3.55L452.38-3.55Q451.73-3.25 451.23-2.83 450.73-2.4 450.18-1.7L450.18-1.7Q449.88-1.4 449.53-1.4L449.53-1.4Q448.73-1.4 448.88-2.35L448.88-2.35Q448.93-2.45 449-3.05 449.08-3.65 449.13-4.35L449.13-4.35Q448.83-3.9 448.3-3.48 447.78-3.05 446.83-2.55L446.83-2.55Q446.73-2.5 446.45-2.38 446.18-2.25 446.03-2.2L446.03-2.2Q445.53-2 445.08-1.73 444.63-1.45 444.18-1.05L444.18-1.05Q443.98-0.85 443.7-0.75 443.43-0.65 442.98-0.65L442.98-0.65Q442.78-0.65 442.48-0.68 442.18-0.7 441.83-0.75L441.83-0.75ZM443.58-3.3L444.53-3.25Q444.78-3.25 444.88-3.3L444.88-3.3Q446.18-3.95 446.88-4.23 447.58-4.5 447.95-5.03 448.33-5.55 448.63-6.9L448.63-6.9Q448.63-7 448.65-7.13 448.68-7.25 448.68-7.45L448.68-7.45Q448.68-8.1 448.53-8.3L448.53-8.3Q447.88-9 446.98-9L446.98-9Q446.48-9 446-8.9 445.53-8.8 445.08-8.85L445.08-8.85Q444.98-8.2 444.38-8.2L444.38-8.2 444.13-8.2Q443.93-7.65 443.43-7.65L443.43-7.65 443.28-7.65Q443.08-6.95 442.58-6.48 442.08-6 442.08-5.2L442.08-5.2 442.08-4.85Q442.58-4.35 442.58-3.75L442.58-3.75Q442.88-3.65 443.1-3.48 443.33-3.3 443.53-3.3L443.53-3.3 443.58-3.3ZM463.47 2.85L463.47 2.85Q463.12 2.85 462.94 2.63 462.77 2.4 462.77 2.15L462.77 2.15Q462.77 1.65 463.27 1.45L463.27 1.45 464.12 1.15Q464.52 1 464.92 0.8 465.32 0.6 465.67 0.4L465.67 0.4Q466.57-0.5 466.69-1.68 466.82-2.85 466.79-3.9 466.77-4.95 467.22-5.55L467.22-5.55Q466.52-6.1 466.52-6.6L466.52-6.6Q466.52-7 466.82-7.2L466.82-7.2Q466.87-7.6 466.99-8.08 467.12-8.55 467.17-8.9L467.17-8.9 465.47-8.9Q465.27-8.85 465.12-8.78 464.97-8.7 464.77-8.65L464.77-8.65Q464.72-8.65 464.67-8.63 464.62-8.6 464.52-8.6L464.52-8.6Q464.22-8.6 464.04-8.85 463.87-9.1 463.87-9.35L463.87-9.35Q463.87-9.75 464.17-9.95L464.17-9.95Q464.37-10.25 464.72-10.3L464.72-10.3Q464.97-10.35 465.17-10.4 465.37-10.45 465.57-10.5L465.57-10.5Q466.72-11.05 467.59-11.85 468.47-12.65 469.37-13.38 470.27-14.1 471.42-14.5L471.42-14.5Q471.57-14.55 471.77-14.55L471.77-14.55Q472.47-14.55 472.47-13.95L472.47-13.95Q472.47-13.7 472.22-13.35L472.22-13.35Q471.92-13 471.39-12.35 470.87-11.7 470.44-10.95 470.02-10.2 470.02-9.55L470.02-9.55Q470.02-9.45 470.04-9.35 470.07-9.25 470.12-9.15L470.12-9.15Q470.47-8.35 470.47-7.75L470.47-7.75Q470.77-8.5 471.02-8.8 471.27-9.1 471.62-9.3 471.97-9.5 472.47-9.9L472.47-9.9 472.47-10Q472.47-10.55 473.07-10.7L473.07-10.7 473.27-10.75Q473.67-11.3 474.09-11.73 474.52-12.15 475.32-12.45L475.32-12.45 475.32-12.55Q475.52-13.25 476.42-13.25L476.42-13.25Q478.72-13.25 479.47-11.98 480.22-10.7 480.22-8.85L480.22-8.85Q480.22-7.3 479.92-5.55 479.62-3.8 479.62-2.4L479.62-2.4Q479.62-1.7 479.77-1.15L479.77-1.15Q479.82-1.05 480.29-0.68 480.77-0.3 481.27-0.05L481.27-0.05 481.52 0 481.82 0.05 481.97 0.1Q481.97 0.2 482.32 0.55 482.67 0.9 482.67 1.15L482.67 1.15Q482.67 1.55 481.77 1.55L481.77 1.55Q481.57 1.55 481.37 1.48 481.17 1.4 480.92 1.35L480.92 1.35Q480.42 1.25 479.97 1.15 479.52 1.05 479.02 1L479.02 1 478.62 0.95Q478.57 0.95 478.52 0.93 478.47 0.9 478.47 0.9L478.47 0.9Q477.87 0.9 476.84 0.98 475.82 1.05 475.02 1.3L475.02 1.3Q474.77 1.4 474.57 1.53 474.37 1.65 474.17 1.75L474.17 1.75Q474.02 1.85 473.72 1.85L473.72 1.85Q473.02 1.85 473.02 1.2L473.02 1.2Q473.02 0.85 473.37 0.55L473.37 0.55Q473.82 0.2 474.52-0.05L474.52-0.05Q475.17-0.35 475.82-0.75 476.47-1.15 476.52-1.45L476.52-1.45Q476.47-1.55 476.39-1.65 476.32-1.75 476.22-1.8L476.22-1.8Q475.77-2.35 475.77-2.85L475.77-2.85Q475.77-3.35 476.04-3.6 476.32-3.85 476.47-3.95L476.47-3.95Q476.17-4.2 476.17-4.6L476.17-4.6Q476.17-5.15 476.49-5.83 476.82-6.5 476.82-6.95L476.82-6.95Q476.82-7.7 476.52-8.2 476.22-8.7 475.89-9.15 475.57-9.6 475.47-10.25L475.47-10.25Q475.12-10.05 474.74-9.83 474.37-9.6 473.97-9.4L473.97-9.4Q473.72-9.15 473.44-8.9 473.17-8.65 472.82-8.4L472.82-8.4Q472.62-8.25 472.42-8.1 472.22-7.95 471.97-7.7L471.97-7.7Q471.72-7.05 471.59-6.8 471.47-6.55 470.82-6L470.82-6Q470.27-5.5 470.07-5.15L470.07-5.15 470.07-5Q470.07-4.85 470.09-4.67 470.12-4.5 470.12-4.35L470.12-4.35Q470.12-3.5 469.94-2.65 469.77-1.8 469.67-0.95L469.67-0.95Q470.27-0.85 470.57-0.28 470.87 0.3 471.27 0.6L471.27 0.6Q471.57 0.75 471.82 1L471.82 1Q472.07 1.2 472.07 1.55L472.07 1.55Q472.07 1.85 471.84 2.08 471.62 2.3 471.37 2.3L471.37 2.3Q471.12 2.3 470.92 2.1L470.92 2.1Q470.62 1.9 470.42 1.85L470.42 1.85Q469.92 2.05 469.34 1.68 468.77 1.3 467.92 1.3L467.92 1.3Q467.57 1.3 467.19 1.4 466.82 1.5 466.47 1.65L466.47 1.65Q466.22 1.85 465.87 2.02 465.52 2.2 465.12 2.35L465.12 2.35 464.67 2.5Q464.47 2.55 464.22 2.65 463.97 2.75 463.72 2.8L463.72 2.8Q463.67 2.8 463.62 2.83 463.57 2.85 463.47 2.85ZM493.41-0.75L492.86-0.75Q492.11-0.75 491.66-1.33 491.21-1.9 491.04-2.65 490.86-3.4 490.86-4L490.86-4Q490.86-4.65 491.16-5.08 491.46-5.5 491.86-5.95L491.86-5.95 491.81-6Q491.41-6.4 491.41-6.85L491.41-6.85Q491.41-7.45 491.89-8 492.36-8.55 492.71-8.95L492.71-8.95Q493.56-9.95 494.86-10.3 496.16-10.65 497.41-10.65L497.41-10.65Q497.71-10.65 498.66-10.38 499.61-10.1 500.41-9.7L500.41-9.7Q500.41-10.15 500.39-10.58 500.36-11 500.21-11.5L500.21-11.5Q500.16-11.75 500.09-12.05 500.01-12.35 500.01-12.65L500.01-12.65Q500.01-13 500.16-13.3L500.16-13.3Q499.56-13.55 499.56-14.2L499.56-14.2Q499.56-16 498.31-16L498.31-16Q496.76-16 495.56-15.7L495.56-15.7Q494.91-15.4 494.46-14.83 494.01-14.25 493.36-13.25L493.36-13.25Q493.26-13.05 493.26-12.95L493.26-12.95Q493.36-12.75 493.44-12.58 493.51-12.4 493.61-12.25L493.61-12.25Q493.96-12 494.41-12L494.41-12Q494.41-12 494.64-12.25 494.86-12.5 494.86-12.55L494.86-12.55 494.86-12.75Q494.66-13 494.66-13.25L494.66-13.25Q494.66-13.85 495.41-13.85L495.41-13.85Q495.76-13.85 496.04-13.6 496.31-13.35 496.31-12.75L496.31-12.75 496.31-12.55Q496.31-12.05 495.71-11.3 495.11-10.55 494.41-10.55L494.41-10.55Q494.16-10.55 493.89-10.63 493.61-10.7 493.36-10.75L493.36-10.75Q493.16-10.75 492.96-10.85 492.76-10.95 492.51-11.25L492.51-11.25Q492.21-11.5 491.99-11.85 491.76-12.2 491.76-12.65L491.76-12.65Q491.71-12.9 491.64-13.08 491.56-13.25 491.56-13.3L491.56-13.3Q491.56-13.55 491.64-13.73 491.71-13.9 491.76-14.05L491.76-14.05Q491.56-14.4 491.76-14.7L491.76-14.7Q492.21-15.7 493.06-16.25 493.91-16.8 494.91-17.05L494.91-17.05Q495.71-17.45 496.59-17.55 497.46-17.65 498.51-17.65L498.51-17.65Q499.81-17.65 500.09-17.35 500.36-17.05 500.81-16.1L500.81-16.1Q501.76-15.65 502.19-15.18 502.61-14.7 502.76-13.4L502.76-13.4Q502.91-12.1 502.86-10.75 502.81-9.4 502.99-8.13 503.16-6.85 503.81-5.65L503.81-5.65Q503.86-5.5 504.06-5.2L504.06-5.2Q504.51-5.45 504.96-5.7 505.41-5.95 505.91-6L505.91-6 506.06-6Q506.41-6 506.59-5.78 506.76-5.55 506.76-5.3L506.76-5.3Q506.76-5.1 506.61-4.88 506.46-4.65 506.16-4.6L506.16-4.6Q505.86-4.55 505.21-4.15 504.56-3.75 503.96-3.55L503.96-3.55Q503.31-3.25 502.81-2.83 502.31-2.4 501.76-1.7L501.76-1.7Q501.46-1.4 501.11-1.4L501.11-1.4Q500.31-1.4 500.46-2.35L500.46-2.35Q500.51-2.45 500.59-3.05 500.66-3.65 500.71-4.35L500.71-4.35Q500.41-3.9 499.89-3.48 499.36-3.05 498.41-2.55L498.41-2.55Q498.31-2.5 498.04-2.38 497.76-2.25 497.61-2.2L497.61-2.2Q497.11-2 496.66-1.73 496.21-1.45 495.76-1.05L495.76-1.05Q495.56-0.85 495.29-0.75 495.01-0.65 494.56-0.65L494.56-0.65Q494.36-0.65 494.06-0.68 493.76-0.7 493.41-0.75L493.41-0.75ZM495.16-3.3L496.11-3.25Q496.36-3.25 496.46-3.3L496.46-3.3Q497.76-3.95 498.46-4.23 499.16-4.5 499.54-5.03 499.91-5.55 500.21-6.9L500.21-6.9Q500.21-7 500.24-7.13 500.26-7.25 500.26-7.45L500.26-7.45Q500.26-8.1 500.11-8.3L500.11-8.3Q499.46-9 498.56-9L498.56-9Q498.06-9 497.59-8.9 497.11-8.8 496.66-8.85L496.66-8.85Q496.56-8.2 495.96-8.2L495.96-8.2 495.71-8.2Q495.51-7.65 495.01-7.65L495.01-7.65 494.86-7.65Q494.66-6.95 494.16-6.48 493.66-6 493.66-5.2L493.66-5.2 493.66-4.85Q494.16-4.35 494.16-3.75L494.16-3.75Q494.46-3.65 494.69-3.48 494.91-3.3 495.11-3.3L495.11-3.3 495.16-3.3ZM516 0.5L516 0.5 515.85 0.5Q515.5 0.5 515.33 0.28 515.15 0.05 515.15-0.2L515.15-0.2Q515.15-0.45 515.3-0.65 515.45-0.85 515.75-0.9L515.75-0.9Q517.15-1.15 517.65-1.88 518.15-2.6 518.33-3.58 518.5-4.55 518.85-5.5L518.85-5.5 518.9-5.65 518.6-5.85Q518.35-6 518.15-6.2 517.95-6.4 517.95-6.75L517.95-6.75Q517.95-7.05 518.28-7.48 518.6-7.9 518.8-8.15L518.8-8.15 518.8-8.2Q518.6-8.45 518.6-9.1L518.6-9.1Q518.6-9.65 518.7-10.23 518.8-10.8 518.8-11.15L518.8-11.15Q518.8-11.5 518.78-11.88 518.75-12.25 518.75-12.7L518.75-12.7Q518.75-13.5 519.03-14.23 519.3-14.95 519.35-15.7L519.35-15.7Q519.2-16.4 519.2-16.95L519.2-16.95Q519.2-17.35 519.23-17.78 519.25-18.2 519.3-18.65L519.3-18.65Q519.15-19.35 519.15-19.95L519.15-19.95Q519.15-22 519.3-24.1 519.45-26.2 519.45-28.15L519.45-28.15Q518.6-28.25 517.95-28.7L517.95-28.7Q517.45-28.5 517.05-28.5L517.05-28.5Q516.35-28.5 516.35-29.25L516.35-29.25Q516.35-29.5 516.53-29.73 516.7-29.95 517.05-29.95L517.05-29.95Q517.5-29.95 518-30.3 518.5-30.65 519.15-30.65L519.15-30.65Q519.7-30.65 520.05-30.53 520.4-30.4 520.9-30.4L520.9-30.4Q521.25-30.75 521.45-30.98 521.65-31.2 522.3-31.2L522.3-31.2Q522.85-31.2 522.85-30.7L522.85-30.7Q522.85-30.25 522.5-29.68 522.15-29.1 521.9-28.85L521.9-28.85Q521.9-28.8 521.93-28.75 521.95-28.7 521.95-28.6L521.95-28.6 522.55-28.55Q522.5-28.35 522.5-28.2 522.5-28.05 522.5-27.85L522.5-27.85Q522.5-27.5 522.53-27.18 522.55-26.85 522.55-26.5L522.55-26.5Q522.55-26.35 522.48-25.7 522.4-25.05 522.28-24.3 522.15-23.55 522.05-23.1L522.05-23.1 522.15-23.05Q522.45-22.85 522.45-22.4L522.45-22.4Q522.45-21.8 521.85-21.45L521.85-21.45Q521.85-20.6 522-19.95 522.15-19.3 522.15-18.6L522.15-18.6Q522.15-18.4 522.13-18.18 522.1-17.95 522.05-17.7L522.05-17.7 522-17.4Q522-17.1 521.8-16.9L521.8-16.9Q521.8-16.8 521.78-16.65 521.75-16.5 521.75-16.3L521.75-16.3Q521.75-15.8 521.8-15.15 521.85-14.5 521.85-14.1L521.85-14.1Q521.85-13.5 521.85-12.8 521.85-12.1 521.8-11.4L521.8-11.4Q522.35-11.95 522.98-12.33 523.6-12.7 524.5-13.65L524.5-13.65Q524.7-13.85 525-14.08 525.3-14.3 525.8-14.3L525.8-14.3Q526.2-14.3 527.15-14.13 528.1-13.95 528.98-13.58 529.85-13.2 530-12.6L530-12.6Q530.1-12.05 530.4-11.83 530.7-11.6 530.98-11.43 531.25-11.25 531.25-10.75L531.25-10.75Q531.25-10.65 531.23-10.53 531.2-10.4 531.15-10.25L531.15-10.25 531.15-10.1Q531-10.05 530.88-9.95 530.75-9.85 530.65-9.8L530.65-9.8 530.7-9.75Q531.1-9.6 531.38-9.3 531.65-9 531.65-8.5L531.65-8.5Q531.65-8.15 531.45-7.9 531.25-7.65 530.95-7.45L530.95-7.45 530.9-7.4Q530.9-7.2 530.88-6.98 530.85-6.75 530.85-6.5L530.85-6.5Q530.85-6.25 530.9-5.98 530.95-5.7 531.1-5.5L531.1-5.5Q531.25-5.3 531.25-5.05L531.25-5.05Q531.25-4.65 530.7-4.4L530.7-4.4 530.65-4.4Q530.8-4.1 530.8-3.85L530.8-3.85Q530.8-3.1 530.15-2.43 529.5-1.75 528.58-1.2 527.65-0.65 526.75-0.33 525.85 0 525.3 0L525.3 0Q525.05 0.25 524.7 0.25L524.7 0.25Q523.6 0.25 522.83-0.28 522.05-0.8 521.43-1.33 520.8-1.85 520.1-1.85L520.1-1.85Q519.25-0.9 518.13-0.25 517 0.4 516 0.5ZM524.55-1.5L524.55-1.5Q524.95-2.05 525.55-2.35 526.15-2.65 526.68-3.05 527.2-3.45 527.35-4.15L527.35-4.15Q527.2-4.65 527.05-4.93 526.9-5.2 526.9-5.4L526.9-5.4Q526.9-5.7 527.55-6.35L527.55-6.35Q527.45-6.65 527.35-6.95 527.25-7.25 527.25-7.5L527.25-7.5Q527.25-8 527.7-8.3L527.7-8.3Q527.35-8.85 527.23-9.63 527.1-10.4 526.83-11 526.55-11.6 525.75-11.6L525.75-11.6Q523.75-11.6 522.45-10L522.45-10Q522.25-9.65 522.08-9.25 521.9-8.85 521.75-8.4L521.75-8.4Q521.8-8.2 521.8-8.05 521.8-7.9 521.8-7.7L521.8-7.7Q521.8-6.95 521.65-6.2 521.5-5.45 521.3-4.7L521.3-4.7 521.3-4.65 521.35-4.45Q522.05-4.25 522.3-3.8 522.55-3.35 522.45-2.65L522.45-2.65 522.45-2.55Q522.8-2.3 523.38-1.98 523.95-1.65 524.55-1.5ZM547.05-8.5L547.05-8.5Q546.8-8.5 546.52-8.83 546.25-9.15 546.25-9.2L546.25-9.2Q546.25-9.35 546.3-9.5L546.3-9.5Q546.35-9.6 546.4-9.75 546.45-9.9 546.5-10.1L546.5-10.1Q546.6-10.45 546.67-10.8 546.75-11.15 546.8-11.35L546.8-11.35Q546.85-11.6 546.85-11.8 546.85-12 546.85-12.2L546.85-12.2Q546.85-12.3 546.82-12.38 546.8-12.45 546.8-12.5L546.8-12.5Q546.8-12.65 546.9-12.95L546.9-12.95Q547.35-14.5 547.7-16.32 548.05-18.15 548.42-19.95 548.8-21.75 549.25-23.2L549.25-23.2Q549.85-25.15 549.95-26.35L549.95-26.35Q550-26.9 549.97-27.4 549.95-27.9 550-28.45L550-28.45Q550-28.55 550.25-28.7 550.5-28.85 550.7-28.85L550.7-28.85Q551-28.85 551.72-28.43 552.45-28 553.05-27.48 553.65-26.95 553.65-26.6L553.65-26.6Q553.65-26.55 553.47-25.98 553.3-25.4 553.07-24.7 552.85-24 552.65-23.45L552.65-23.45Q552.05-21.75 551.6-20.5 551.15-19.25 550.75-18.05L550.75-18.05Q550.05-15.85 549.55-14.5 549.05-13.15 548.57-11.88 548.1-10.6 547.4-8.65L547.4-8.65 547.35-8.6Q547.15-8.5 547.05-8.5ZM545.5-0.65L545.5-0.65Q545.3-0.65 544.8-0.8 544.3-0.95 543.85-1.25 543.4-1.55 543.4-2.05L543.4-2.05Q543.4-2.05 543.4-2.08 543.4-2.1 543.45-2.1L543.45-2.1Q543.6-2.35 543.65-2.45L543.65-2.45Q543.75-3.6 544.52-3.88 545.3-4.15 545.9-4.15L545.9-4.15Q546.3-4.15 546.8-3.55 547.3-2.95 547.3-2.6L547.3-2.6Q547.3-1.7 546.75-1.18 546.2-0.65 545.5-0.65Z" opacity="1" transform="matrix(1,0,0,1,0,0)" fill="#141c27" class="slogan-text-1" data-fill-palette-color="quaternary" id="text-1"></path></svg></g></svg></g></svg></g></svg></g><g transform="matrix(1,0,0,1,69.16319246616469,0)"><svg viewBox="0 0 74.83205629482774 75.32533496186068" height="75.32533496186068" width="74.83205629482774"><g><svg xmlns="http://www.w3.org/2000/svg" xmlns:xlink="http://www.w3.org/1999/xlink" version="1.1" x="0" y="0" viewBox="6.200000000000003 4 88.71520625180962 89.3" style="enable-background:new 0 0 100 100;" xml:space="preserve" height="75.32533496186068" width="74.83205629482774" class="icon-icon-0" data-fill-palette-color="quaternary" id="icon-0"><path d="M63.3 48.6c6.4-4.2 10.7-11.3 11-19.4h12.2v-7.3h-13C70.6 11.5 61.2 4 50.1 4 36.6 4 25.8 14.9 25.8 28.2c0 8.6 4.6 16.2 11.4 20.5-17.5 5.6-30.3 21.5-31 40.8 0 1 0.4 2 1 2.7 0.7 0.7 1.6 1.1 2.6 1.1h81.5c1 0 2-0.4 2.6-1.1 0.7-0.7 1.1-1.7 1-2.7C94.3 70 81.1 53.8 63.3 48.6zM50.1 45.2c-9 0-16.5-7.2-16.9-16.1H67C66.5 38.1 59.1 45.2 50.1 45.2zM50.1 11.3c7.1 0 13.2 4.4 15.7 10.5H34.4C36.9 15.6 43 11.3 50.1 11.3zM46.9 54.2V86H13.8C16.1 69 29.8 55.9 46.9 54.2zM54.3 86V54.2C71.4 55.8 85.1 69 87.3 86H54.3z" fill="#141c27" data-fill-palette-color="quaternary"></path></svg></g></svg></g><g></g></svg></g></svg></g></svg></g><defs></defs></svg><rect width="342.85155851775386" height="342.85155851775386" fill="none" stroke="none" visibility="hidden"></rect></g></svg></g></svg>