<svg xmlns="http://www.w3.org/2000/svg" version="1.1" xmlns:xlink="http://www.w3.org/1999/xlink" xmlns:svgjs="http://svgjs.dev/svgjs" width="1500" height="1500" viewBox="0 0 1500 1500"><rect width="1500" height="1500" fill="#ffffff"></rect><g transform="matrix(0.6666666666666666,0,0,0.6666666666666666,249.39393939393938,565.5683425732193)"><svg viewBox="0 0 396 146" data-background-color="#ffffff" preserveAspectRatio="xMidYMid meet" height="553" width="1500" xmlns="http://www.w3.org/2000/svg" xmlns:xlink="http://www.w3.org/1999/xlink"><g id="tight-bounds" transform="matrix(1,0,0,1,0.2400000000000091,0.03893847462022393)"><svg viewBox="0 0 395.52 145.92212305075955" height="145.92212305075955" width="395.52"><g><svg viewBox="0 0 395.52 145.92212305075955" height="145.92212305075955" width="395.52"><g><svg viewBox="0 0 395.52 145.92212305075955" height="145.92212305075955" width="395.52"><g id="textblocktransform"><svg viewBox="0 0 395.52 145.92212305075955" height="145.92212305075955" width="395.52" id="textblock"><g><svg viewBox="0 0 395.52 105.52782305644281" height="105.52782305644281" width="395.52"><rect width="395.52" height="105.52782305644281" x="0" y="0" opacity="1" fill="#000000" data-fill-palette-color="tertiary"></rect><g transform="matrix(1,0,0,1,23.461705032,23.461705032)"><svg width="348.596589936" viewBox="3.35 -36.15 218.58 36.75" height="58.60441299244281" data-palette-color="#ffffff"><path d="M3.35 0L3.35-34.3 8.35-34.3 8.35-19.8 21.25-19.8 21.25-34.3 26.25-34.3 26.25 0 21.25 0 21.25-15.3 8.35-15.3 8.35 0 3.35 0ZM37.8 0.6Q35.2 0.6 33.1-1.03 31-2.65 31-6.8L31-6.8Q31-11.85 34.42-13.8 37.85-15.75 44.2-15.75L44.2-15.75 44.2-18.9Q44.2-20.8 43.4-21.83 42.6-22.85 40.5-22.85L40.5-22.85Q38.5-22.85 37.62-21.78 36.75-20.7 36.75-19.15L36.75-19.15 36.75-18.5 32.1-18.5Q32.05-18.8 32.05-19.6L32.05-19.6Q32.05-23.05 34.4-24.98 36.75-26.9 40.65-26.9L40.65-26.9Q44.75-26.9 46.82-24.95 48.9-23 48.9-19.4L48.9-19.4 48.9-5.25Q48.9-4.4 49.3-3.95 49.7-3.5 50.3-3.5L50.3-3.5 51.8-3.5 51.8-0.2Q50.7 0.45 48.85 0.45L48.85 0.45Q47.2 0.45 46.05-0.43 44.9-1.3 44.5-2.85L44.5-2.85 44.25-2.85Q42 0.6 37.8 0.6L37.8 0.6ZM39.25-3.5Q41.3-3.5 42.75-5.2 44.2-6.9 44.2-9.75L44.2-9.75 44.2-11.85Q40.2-11.85 38.02-10.85 35.85-9.85 35.85-7.15L35.85-7.15Q35.85-5.2 36.67-4.35 37.5-3.5 39.25-3.5L39.25-3.5ZM53.55 0L53.55-2.15 64.7-22.2 54.3-22.2 54.3-26.3 71.15-26.3 71.15-24.2 59.95-4.1 71.7-4.1 71.7 0 53.55 0ZM76.24 0L76.24-26.3 80.94-26.3 80.94 0 76.24 0ZM76.14-31.1L76.14-36.15 80.94-36.15 80.94-31.1 76.14-31.1ZM87.19 0L87.19-26.3 90.89-26.3 91.49-22.7 91.79-22.7Q93.19-26.9 96.29-26.9L96.29-26.9Q97.49-26.9 98.39-26.5L98.39-26.5 98.39-21.75 96.79-21.75Q94.64-21.75 93.27-20.3 91.89-18.85 91.89-15.6L91.89-15.6 91.89 0 87.19 0ZM119.44 0.6Q115.24 0.6 112.96-1.65 110.69-3.9 110.69-8.15L110.69-8.15 110.69-10.55 115.69-10.55 115.69-8.15Q115.69-6.1 116.64-5 117.59-3.9 119.44-3.9L119.44-3.9Q121.19-3.9 122.14-5 123.09-6.1 123.09-8.15L123.09-8.15 123.09-34.3 128.14-34.3 128.14-8.15Q128.14-3.9 125.89-1.65 123.64 0.6 119.44 0.6L119.44 0.6ZM139.53 0.6Q136.93 0.6 134.83-1.03 132.73-2.65 132.73-6.8L132.73-6.8Q132.73-11.85 136.16-13.8 139.58-15.75 145.93-15.75L145.93-15.75 145.93-18.9Q145.93-20.8 145.13-21.83 144.33-22.85 142.23-22.85L142.23-22.85Q140.23-22.85 139.36-21.78 138.48-20.7 138.48-19.15L138.48-19.15 138.48-18.5 133.83-18.5Q133.78-18.8 133.78-19.6L133.78-19.6Q133.78-23.05 136.13-24.98 138.48-26.9 142.38-26.9L142.38-26.9Q146.48-26.9 148.56-24.95 150.63-23 150.63-19.4L150.63-19.4 150.63-5.25Q150.63-4.4 151.03-3.95 151.43-3.5 152.03-3.5L152.03-3.5 153.53-3.5 153.53-0.2Q152.43 0.45 150.58 0.45L150.58 0.45Q148.93 0.45 147.78-0.43 146.63-1.3 146.23-2.85L146.23-2.85 145.98-2.85Q143.73 0.6 139.53 0.6L139.53 0.6ZM140.98-3.5Q143.03-3.5 144.48-5.2 145.93-6.9 145.93-9.75L145.93-9.75 145.93-11.85Q141.93-11.85 139.76-10.85 137.58-9.85 137.58-7.15L137.58-7.15Q137.58-5.2 138.41-4.35 139.23-3.5 140.98-3.5L140.98-3.5ZM157.03 0L157.03-26.3 160.73-26.3 161.33-23.2 161.63-23.2Q162.68-25 164.33-25.95 165.98-26.9 168.08-26.9L168.08-26.9Q174.73-26.9 174.73-18.8L174.73-18.8 174.73 0 170.03 0 170.03-18.05Q170.03-20.6 169.11-21.65 168.18-22.7 166.38-22.7L166.38-22.7Q164.43-22.7 163.08-20.88 161.73-19.05 161.73-16.1L161.73-16.1 161.73 0 157.03 0ZM185.83 0.6Q183.23 0.6 181.13-1.03 179.03-2.65 179.03-6.8L179.03-6.8Q179.03-11.85 182.45-13.8 185.88-15.75 192.23-15.75L192.23-15.75 192.23-18.9Q192.23-20.8 191.43-21.83 190.63-22.85 188.53-22.85L188.53-22.85Q186.53-22.85 185.65-21.78 184.78-20.7 184.78-19.15L184.78-19.15 184.78-18.5 180.13-18.5Q180.08-18.8 180.08-19.6L180.08-19.6Q180.08-23.05 182.43-24.98 184.78-26.9 188.68-26.9L188.68-26.9Q192.78-26.9 194.85-24.95 196.93-23 196.93-19.4L196.93-19.4 196.93-5.25Q196.93-4.4 197.33-3.95 197.73-3.5 198.33-3.5L198.33-3.5 199.83-3.5 199.83-0.2Q198.73 0.45 196.88 0.45L196.88 0.45Q195.23 0.45 194.08-0.43 192.93-1.3 192.53-2.85L192.53-2.85 192.28-2.85Q190.03 0.6 185.83 0.6L185.83 0.6ZM187.28-3.5Q189.33-3.5 190.78-5.2 192.23-6.9 192.23-9.75L192.23-9.75 192.23-11.85Q188.23-11.85 186.05-10.85 183.88-9.85 183.88-7.15L183.88-7.15Q183.88-5.2 184.7-4.35 185.53-3.5 187.28-3.5L187.28-3.5ZM213.68 0.6Q211.83 0.6 210.33-0.35 208.83-1.3 207.88-3.1L207.88-3.1 207.63-3.1 207.03 0 203.33 0 203.33-36.15 208.03-36.15 208.03-23.75 208.28-23.75Q208.98-25.25 210.5-26.08 212.03-26.9 213.98-26.9L213.98-26.9Q217.53-26.9 219.73-23.48 221.93-20.05 221.93-13.2L221.93-13.2Q221.93-6.2 219.75-2.8 217.58 0.6 213.68 0.6L213.68 0.6ZM212.53-3.6Q214.83-3.6 215.93-5.68 217.03-7.75 217.03-12.2L217.03-12.2 217.03-14.1Q217.03-18.55 215.93-20.63 214.83-22.7 212.53-22.7L212.53-22.7Q208.03-22.7 208.03-13.95L208.03-13.95 208.03-12.2Q208.03-3.6 212.53-3.6L212.53-3.6Z" opacity="1" transform="matrix(1,0,0,1,0,0)" fill="#ffffff" class="wordmark-text-0" data-fill-palette-color="quaternary" id="text-0"></path></svg></g></svg></g><g transform="matrix(1,0,0,1,79.104,117.25867557244281)"><svg viewBox="0 0 237.31199999999998 28.663447478316733" height="28.663447478316733" width="237.31199999999998"><g transform="matrix(1,0,0,1,0,0)"><svg width="237.31199999999998" viewBox="0.9 -37 311.27000000000004 37.6" height="28.663447478316733" data-palette-color="#000000"><path d="M18.6 0L12.4 0 0.9-34.9 6.45-34.9 12.05-17.6 15.5-5.2 15.75-5.2 19.25-17.6 24.85-34.9 30.25-34.9 18.6 0ZM45.25 0.6L45.25 0.6Q41.6 0.6 38.92-1.07 36.25-2.75 34.77-5.8 33.3-8.85 33.3-13L33.3-13Q33.3-17.1 34.75-20.15 36.2-23.2 38.85-24.88 41.5-26.55 45.15-26.55L45.15-26.55Q48.9-26.55 51.45-24.85 54-23.15 55.32-20.23 56.65-17.3 56.65-13.7L56.65-13.7 56.65-11.7 38.65-11.7 38.65-10.75Q38.65-7.65 40.47-5.65 42.3-3.65 45.7-3.65L45.7-3.65Q48.1-3.65 49.8-4.75 51.5-5.85 52.6-7.7L52.6-7.7 55.7-4.8Q54.3-2.4 51.6-0.9 48.9 0.6 45.25 0.6ZM38.65-15.5L38.65-15.15 51.25-15.15 51.25-15.65Q51.25-17.7 50.52-19.25 49.8-20.8 48.42-21.65 47.05-22.5 45.2-22.5L45.2-22.5Q43.25-22.5 41.77-21.6 40.3-20.7 39.47-19.13 38.65-17.55 38.65-15.5L38.65-15.5ZM67.89 0L62.8 0 62.8-25.95 67.89-25.95 67.89-21.65 68.14-21.65Q69-23.8 70.75-25.18 72.5-26.55 75.45-26.55L75.45-26.55Q79.45-26.55 81.7-23.93 83.95-21.3 83.95-16.5L83.95-16.5 83.95 0 78.8 0 78.8-15.85Q78.8-19 77.55-20.58 76.3-22.15 73.7-22.15L73.7-22.15Q72.25-22.15 70.92-21.65 69.59-21.15 68.75-20.15 67.89-19.15 67.89-17.6L67.89-17.6 67.89 0ZM100.39 0.6L100.39 0.6Q97.14 0.6 94.82-1.03 92.49-2.65 91.27-5.7 90.04-8.75 90.04-13L90.04-13Q90.04-17.25 91.27-20.28 92.49-23.3 94.82-24.93 97.14-26.55 100.39-26.55L100.39-26.55Q102.99-26.55 104.97-25.3 106.94-24.05 107.79-21.7L107.79-21.7 107.99-21.7 107.99-37 113.14-37 113.14 0 107.99 0 107.99-4.25 107.79-4.25Q106.84-1.95 104.92-0.68 102.99 0.6 100.39 0.6ZM101.94-3.8L101.94-3.8Q103.64-3.8 105.02-4.38 106.39-4.95 107.19-6.03 107.99-7.1 107.99-8.6L107.99-8.6 107.99-17.55Q107.99-18.95 107.19-19.98 106.39-21 105.02-21.58 103.64-22.15 101.94-22.15L101.94-22.15Q98.99-22.15 97.22-20.25 95.44-18.35 95.44-15.2L95.44-15.2 95.44-10.75Q95.44-7.65 97.22-5.73 98.99-3.8 101.94-3.8ZM131.14 0.6L131.14 0.6Q127.54 0.6 124.87-1.07 122.19-2.75 120.72-5.8 119.24-8.85 119.24-13L119.24-13Q119.24-17.15 120.72-20.18 122.19-23.2 124.87-24.88 127.54-26.55 131.14-26.55L131.14-26.55Q134.69-26.55 137.37-24.88 140.04-23.2 141.52-20.18 142.99-17.15 142.99-13L142.99-13Q142.99-8.85 141.52-5.8 140.04-2.75 137.37-1.07 134.69 0.6 131.14 0.6ZM131.14-3.7L131.14-3.7Q134.04-3.7 135.79-5.5 137.54-7.3 137.54-10.85L137.54-10.85 137.54-15.1Q137.54-18.65 135.79-20.45 134.04-22.25 131.14-22.25L131.14-22.25Q128.29-22.25 126.49-20.45 124.69-18.65 124.69-15.1L124.69-15.1 124.69-10.85Q124.69-7.3 126.49-5.5 128.29-3.7 131.14-3.7ZM154.24 0L149.14 0 149.14-25.95 154.24-25.95 154.24-20.9 154.49-20.9Q154.89-22.2 155.79-23.35 156.69-24.5 158.16-25.23 159.64-25.95 161.69-25.95L161.69-25.95 163.19-25.95 163.19-21 160.99-21Q158.84-21 157.34-20.48 155.84-19.95 155.04-19.05 154.24-18.15 154.24-16.8L154.24-16.8 154.24 0ZM185.58 0L180.28 0 180.28-34.9 195.03-34.9Q198.23-34.9 200.46-33.63 202.68-32.35 203.88-30.03 205.08-27.7 205.08-24.5L205.08-24.5Q205.08-21.4 203.88-19.05 202.68-16.7 200.46-15.43 198.23-14.15 195.03-14.15L195.03-14.15 185.58-14.15 185.58 0ZM185.58-30.25L185.58-18.8 194.73-18.8Q196.23-18.8 197.28-19.33 198.33-19.85 198.88-20.85 199.43-21.85 199.43-23.3L199.43-23.3 199.43-25.75Q199.43-27.2 198.88-28.2 198.33-29.2 197.28-29.73 196.23-30.25 194.73-30.25L194.73-30.25 185.58-30.25ZM221.08 0.6L221.08 0.6Q217.48 0.6 214.81-1.07 212.13-2.75 210.66-5.8 209.18-8.85 209.18-13L209.18-13Q209.18-17.15 210.66-20.18 212.13-23.2 214.81-24.88 217.48-26.55 221.08-26.55L221.08-26.55Q224.63-26.55 227.31-24.88 229.98-23.2 231.46-20.18 232.93-17.15 232.93-13L232.93-13Q232.93-8.85 231.46-5.8 229.98-2.75 227.31-1.07 224.63 0.6 221.08 0.6ZM221.08-3.7L221.08-3.7Q223.98-3.7 225.73-5.5 227.48-7.3 227.48-10.85L227.48-10.85 227.48-15.1Q227.48-18.65 225.73-20.45 223.98-22.25 221.08-22.25L221.08-22.25Q218.23-22.25 216.43-20.45 214.63-18.65 214.63-15.1L214.63-15.1 214.63-10.85Q214.63-7.3 216.43-5.5 218.23-3.7 221.08-3.7ZM244.18 0L239.08 0 239.08-25.95 244.18-25.95 244.18-20.9 244.43-20.9Q244.83-22.2 245.73-23.35 246.63-24.5 248.1-25.23 249.58-25.95 251.63-25.95L251.63-25.95 253.13-25.95 253.13-21 250.93-21Q248.78-21 247.28-20.48 245.78-19.95 244.98-19.05 244.18-18.15 244.18-16.8L244.18-16.8 244.18 0ZM269.68 0L264.88 0Q262.23 0 260.83-1.45 259.43-2.9 259.43-5.4L259.43-5.4 259.43-21.7 255.38-21.7 255.38-25.95 257.58-25.95Q258.98-25.95 259.48-26.55 259.98-27.15 259.98-28.45L259.98-28.45 259.98-33.1 264.58-33.1 264.58-25.95 270.08-25.95 270.08-21.7 264.58-21.7 264.58-4.25 269.68-4.25 269.68 0ZM282.62 0.6L282.62 0.6Q278.57 0.6 276.37-1.5 274.17-3.6 274.17-7.15L274.17-7.15Q274.17-9.7 275.42-11.43 276.67-13.15 279.12-14.03 281.57-14.9 285.22-14.9L285.22-14.9 290.02-14.9 290.02-17.15Q290.02-19.65 288.7-20.98 287.37-22.3 284.52-22.3L284.52-22.3Q282.22-22.3 280.72-21.3 279.22-20.3 278.27-18.7L278.27-18.7 275.17-21.5Q276.42-23.65 278.77-25.1 281.12-26.55 284.82-26.55L284.82-26.55Q289.77-26.55 292.47-24.2 295.17-21.85 295.17-17.55L295.17-17.55 295.17-4.25 297.92-4.25 297.92 0 295.07 0Q293.02 0 291.92-1.1 290.82-2.2 290.52-3.9L290.52-3.9 290.42-4.35 290.17-4.35Q289.42-1.9 287.42-0.65 285.42 0.6 282.62 0.6ZM283.97-3.4L283.97-3.4Q285.72-3.4 287.07-3.93 288.42-4.45 289.22-5.43 290.02-6.4 290.02-7.65L290.02-7.65 290.02-11.5 285.27-11.5Q282.32-11.5 280.87-10.6 279.42-9.7 279.42-7.95L279.42-7.95 279.42-7Q279.42-5.25 280.67-4.33 281.92-3.4 283.97-3.4ZM312.17 0L308.67 0Q306.07 0 304.75-1.4 303.42-2.8 303.42-5.15L303.42-5.15 303.42-37 308.52-37 308.52-4.25 312.17-4.25 312.17 0Z" opacity="1" transform="matrix(1,0,0,1,0,0)" fill="#000000" class="slogan-text-1" data-fill-palette-color="secondary" id="text-1"></path></svg></g></svg></g></svg></g></svg></g><g></g></svg></g><defs></defs></svg><rect width="395.52" height="145.92212305075955" fill="none" stroke="none" visibility="hidden"></rect></g></svg></g></svg>