<svg xmlns="http://www.w3.org/2000/svg" version="1.1" xmlns:xlink="http://www.w3.org/1999/xlink" xmlns:svgjs="http://svgjs.dev/svgjs" width="1500" height="1500" viewBox="0 0 1500 1500"><rect width="1500" height="1500" fill="#ffffff"></rect><g transform="matrix(0.6666666666666666,0,0,0.6666666666666666,250.88393442622947,244.40971659919023)"><svg viewBox="0 0 244 247" data-background-color="#ffffff" preserveAspectRatio="xMidYMid meet" height="1518" width="1500" xmlns="http://www.w3.org/2000/svg" xmlns:xlink="http://www.w3.org/1999/xlink"><g id="tight-bounds" transform="matrix(1,0,0,1,-0.21567999999999188,-0.09999999999999432)"><svg viewBox="0 0 244.43135999999998 247.2" height="247.2" width="244.43135999999998"><g><svg></svg></g><g><svg viewBox="0 0 244.43135999999998 247.2" height="247.2" width="244.43135999999998"><g transform="matrix(1,0,0,1,0,49.614661802588884)"><svg viewBox="0 0 244.43135999999998 147.97067639482222" height="147.97067639482222" width="244.43135999999998"><g><svg viewBox="0 0 244.43135999999998 147.97067639482222" height="147.97067639482222" width="244.43135999999998"><g transform="matrix(1,0,0,1,0,89.03174995957491)"><svg viewBox="0 0 244.43135999999998 58.93892643524732" height="58.93892643524732" width="244.43135999999998"><g id="textblocktransform"><svg viewBox="0 0 244.43135999999998 58.93892643524732" height="58.93892643524732" width="244.43135999999998" id="textblock"><g><svg viewBox="0 0 244.43135999999998 32.10048300574013" height="32.10048300574013" width="244.43135999999998"><g transform="matrix(1,0,0,1,0,0)"><svg width="244.43135999999998" viewBox="4.6 -37.5 287.42999999999995 37.75" height="32.10048300574013" data-palette-color="#141c27"><path d="M4.6 0L4.6-35 10.5-35 10.5-19.65 29.05-19.65 29.05-35 34.95-35 34.95 0 29.05 0 29.05-14.65 10.5-14.65 10.5 0 4.6 0ZM60.45-11.85L52.5-11.85Q49.7-11.85 48.35-11 47-10.15 47-8.2L47-8.2Q47-6.35 48.37-5.25 49.75-4.15 52.15-4.15L52.15-4.15Q54.3-4.15 56-4.9 57.7-5.65 58.7-6.93 59.7-8.2 59.75-9.8L59.75-9.8 60.85-4.95Q59.6-2.35 57.05-1.05 54.5 0.25 50.95 0.25L50.95 0.25Q48.1 0.25 46-0.85 43.9-1.95 42.75-3.83 41.6-5.7 41.6-8L41.6-8Q41.6-11.6 44.22-13.75 46.85-15.9 51.65-15.95L51.65-15.95 60.45-15.95 60.45-11.85ZM59.75 0L59.7-16.85Q59.7-19.45 58.1-20.9 56.5-22.35 53.35-22.35L53.35-22.35Q51.45-22.35 49.47-21.65 47.5-20.95 45.5-19.6L45.5-19.6 43.15-23.3Q45-24.45 46.65-25.2 48.3-25.95 50.17-26.35 52.05-26.75 54.6-26.75L54.6-26.75Q59.75-26.75 62.52-24.28 65.3-21.8 65.35-17.45L65.35-17.45 65.4 0 59.75 0ZM71.55-22.15L71.55-26.55 93.4-26.5 93.4-22.8 78.2-4.4 93.85-4.4 93.85 0.05 71.1 0 71.1-3.7 86.3-22.1 71.55-22.15ZM99.94 0L99.94-26.55 105.64-26.55 105.64 0 99.94 0ZM102.79-37.5L102.79-37.5Q104.24-37.5 105.19-36.55 106.14-35.6 106.14-34.15L106.14-34.15Q106.14-32.75 105.19-31.78 104.24-30.8 102.79-30.8L102.79-30.8Q101.39-30.8 100.42-31.78 99.44-32.75 99.44-34.15L99.44-34.15Q99.44-35.6 100.42-36.55 101.39-37.5 102.79-37.5ZM129.09-26.75L129.09-21.55Q126.24-21.7 124.17-20.58 122.09-19.45 120.97-17.45 119.84-15.45 119.84-12.85L119.84-12.85 118.24-13.05Q118.24-17.5 119.54-20.55 120.84-23.6 123.29-25.18 125.74-26.75 129.09-26.75L129.09-26.75ZM114.14 0L114.14-26.55 119.89-26.55 119.89 0 114.14 0ZM164.19-35L164.19-10.75Q164.19-5.5 161.26-2.63 158.34 0.25 153.29 0.25L153.29 0.25Q150.14 0.25 147.54-1.07 144.94-2.4 142.99-4.75L142.99-4.75 145.79-9.05Q147.54-7.2 149.49-6.2 151.44-5.2 153.24-5.2L153.24-5.2Q155.59-5.2 156.91-6.68 158.24-8.15 158.24-10.9L158.24-10.9 158.24-29.95 146.14-29.95 146.14-35 164.19-35ZM188.93-11.85L180.98-11.85Q178.18-11.85 176.83-11 175.48-10.15 175.48-8.2L175.48-8.2Q175.48-6.35 176.86-5.25 178.23-4.15 180.63-4.15L180.63-4.15Q182.78-4.15 184.48-4.9 186.18-5.65 187.18-6.93 188.18-8.2 188.23-9.8L188.23-9.8 189.33-4.95Q188.08-2.35 185.53-1.05 182.98 0.25 179.43 0.25L179.43 0.25Q176.58 0.25 174.48-0.85 172.38-1.95 171.23-3.83 170.08-5.7 170.08-8L170.08-8Q170.08-11.6 172.71-13.75 175.33-15.9 180.13-15.95L180.13-15.95 188.93-15.95 188.93-11.85ZM188.23 0L188.18-16.85Q188.18-19.45 186.58-20.9 184.98-22.35 181.83-22.35L181.83-22.35Q179.93-22.35 177.96-21.65 175.98-20.95 173.98-19.6L173.98-19.6 171.63-23.3Q173.48-24.45 175.13-25.2 176.78-25.95 178.66-26.35 180.53-26.75 183.08-26.75L183.08-26.75Q188.23-26.75 191.01-24.28 193.78-21.8 193.83-17.45L193.83-17.45 193.88 0 188.23 0ZM221.28 0L221.28-15Q221.28-18.1 219.58-19.88 217.88-21.65 214.88-21.65L214.88-21.65Q211.33-21.6 209.31-19.15 207.28-16.7 207.28-13.05L207.28-13.05 205.68-13.05Q205.68-18 207.08-21 208.48-24 211.06-25.38 213.63-26.75 217.13-26.75L217.13-26.75Q220.23-26.75 222.46-25.5 224.68-24.25 225.86-21.98 227.03-19.7 227.03-16.5L227.03-16.5 227.03 0 221.28 0ZM201.58 0L201.58-26.55 207.33-26.55 207.33 0 201.58 0ZM251.38-11.85L243.43-11.85Q240.63-11.85 239.28-11 237.93-10.15 237.93-8.2L237.93-8.2Q237.93-6.35 239.3-5.25 240.68-4.15 243.08-4.15L243.08-4.15Q245.23-4.15 246.93-4.9 248.63-5.65 249.63-6.93 250.63-8.2 250.68-9.8L250.68-9.8 251.78-4.95Q250.53-2.35 247.98-1.05 245.43 0.25 241.88 0.25L241.88 0.25Q239.03 0.25 236.93-0.85 234.83-1.95 233.68-3.83 232.53-5.7 232.53-8L232.53-8Q232.53-11.6 235.15-13.75 237.78-15.9 242.58-15.95L242.58-15.95 251.38-15.95 251.38-11.85ZM250.68 0L250.63-16.85Q250.63-19.45 249.03-20.9 247.43-22.35 244.28-22.35L244.28-22.35Q242.38-22.35 240.4-21.65 238.43-20.95 236.43-19.6L236.43-19.6 234.08-23.3Q235.93-24.45 237.58-25.2 239.23-25.95 241.1-26.35 242.98-26.75 245.53-26.75L245.53-26.75Q250.68-26.75 253.45-24.28 256.23-21.8 256.28-17.45L256.28-17.45 256.33 0 250.68 0ZM279.33-26.75L279.33-26.75Q283.13-26.75 285.98-25.05 288.83-23.35 290.43-20.3 292.03-17.25 292.03-13.2L292.03-13.2Q292.03-9.25 290.45-6.23 288.88-3.2 286.05-1.5 283.23 0.2 279.43 0.2L279.43 0.2Q275.78 0.2 273.2-1.4 270.63-3 269.28-6.03 267.93-9.05 267.93-13.2L267.93-13.2Q267.93-17.5 269.28-20.53 270.63-23.55 273.2-25.15 275.78-26.75 279.33-26.75ZM278.13-22.2L278.13-22.2Q275.78-22.2 273.93-21.05 272.08-19.9 271.05-17.93 270.03-15.95 270.03-13.35L270.03-13.35Q270.03-10.75 271.05-8.72 272.08-6.7 273.93-5.58 275.78-4.45 278.13-4.45L278.13-4.45Q280.53-4.45 282.35-5.6 284.18-6.75 285.2-8.75 286.23-10.75 286.23-13.35L286.23-13.35Q286.23-15.9 285.2-17.9 284.18-19.9 282.35-21.05 280.53-22.2 278.13-22.2ZM264.28 0L264.28-37.1 270.03-37.1 270.03 0 264.28 0Z" opacity="1" transform="matrix(1,0,0,1,0,0)" fill="#141c27" class="wordmark-text-0" data-fill-palette-color="primary" id="text-0"></path></svg></g></svg></g><g transform="matrix(1,0,0,1,0,39.678636631803236)"><svg viewBox="0 0 244.43135999999998 19.260289803444078" height="19.260289803444078" width="244.43135999999998"><g transform="matrix(1,0,0,1,0,0)"><svg width="244.43135999999998" viewBox="-0.15 -33.35 599.01 47.2" height="19.260289803444078" data-palette-color="#141c27"><path d="M6.2 7.35L6.2 7.35Q5.2 7.35 4.08 6.83 2.95 6.3 2.15 5.43 1.35 4.55 1.2 3.5L1.2 3.5Q1.15 3.05 1.13 2.6 1.1 2.15 0.9 1.7L0.9 1.7Q0.5 1.3 0.18 1-0.15 0.7-0.15 0.05L-0.15 0.05Q-0.15-1.45 0.25-3.15 0.65-4.85 1.53-6.35 2.4-7.85 3.85-8.78 5.3-9.7 7.35-9.7L7.35-9.7Q7.8-9.7 8.05-9.35L8.05-9.35 8.45-9.35Q9.2-9.35 9.73-8.72 10.25-8.1 10.58-7.18 10.9-6.25 11.05-5.38 11.2-4.5 11.2-4L11.2-4Q11.2-2.4 10.13-1.63 9.05-0.85 7.75-0.4L7.75-0.4Q7.25-0.2 6.88-0.53 6.5-0.85 6.5-1.25L6.5-1.25Q6.5-1.9 7.15-2.1L7.15-2.1Q7.8-2.35 8.58-2.78 9.35-3.2 9.35-4L9.35-4Q9.35-4.4 9.22-5.1 9.1-5.8 8.88-6.5 8.65-7.2 8.35-7.5L8.35-7.5Q8.05-7.5 7.78-7.6 7.5-7.7 7.2-7.7L7.2-7.7Q6.65-7.7 5.88-7.45 5.1-7.2 4.53-6.7 3.95-6.2 3.95-5.45L3.95-5.45Q3.95-5.1 3.98-4.78 4-4.45 4-4.15L4-4.15Q4-3.6 3.83-3.13 3.65-2.65 3.1-2.25L3.1-2.25 2.8-2.05Q2.75-1.75 2.73-1.43 2.7-1.1 2.7-0.8L2.7-0.8Q2.7-0.35 2.73 0.1 2.75 0.55 2.75 1.05L2.75 1.05Q2.95 1.4 3.2 1.68 3.45 1.95 3.6 2.4L3.6 2.4Q4 3.75 4.6 4.53 5.2 5.3 6.45 5.45L6.45 5.45Q6.75 5.4 7.03 5.3 7.3 5.2 7.55 5.1L7.55 5.1Q7.75 5 7.95 4.9 8.15 4.8 8.5 4.75L8.5 4.75 8.55 4.7Q8.95 4.6 9.2 4.6L9.2 4.6 9.3 4.55Q10.2 4.3 10.58 3.83 10.95 3.35 11.25 2.8 11.55 2.25 12.3 1.9L12.3 1.9 12.5 1.8Q12.75 1.65 12.95 1.3L12.95 1.3Q12.95 1.15 13.1 0.45 13.25-0.25 13.48-1.15 13.7-2.05 13.9-2.83 14.1-3.6 14.15-3.9L14.15-3.9Q14.3-4.65 14.3-5.3L14.3-5.3Q14.3-6 14.3-6.68 14.3-7.35 14.5-8L14.5-8Q14.75-8.65 15.13-9.45 15.5-10.25 15.5-11L15.5-11Q15.5-11.3 15.45-11.45L15.45-11.45Q15.3-11.9 15.3-12.4L15.3-12.4Q15.3-13.25 15.9-13.65L15.9-13.65Q15.95-13.75 15.95-13.88 15.95-14 16-14.2L16-14.2 15.95-14.35Q15.4-14 15.1-14L15.1-14Q14.75-14 14.58-14.33 14.4-14.65 13.75-14.65L13.75-14.65Q13.45-14.65 13.25-14.78 13.05-14.9 12.85-15.1L12.85-15.1 12.1-15.1Q11.25-14.85 10.15-13.6L10.15-13.6Q9.9-13.35 9.75-13.3L9.75-13.3Q9.65-13.1 9.65-13.05L9.65-13.05Q9.65-12.6 9.38-12.35 9.1-12.1 8.75-12.1L8.75-12.1Q8.4-12.1 8.1-12.35 7.8-12.6 7.8-13.05L7.8-13.05Q7.8-13.95 8.45-14.8 9.1-15.65 10.05-16.25 11-16.85 11.85-16.9L11.85-16.9Q12.1-17 12.38-17 12.65-17 12.9-17L12.9-17Q13.2-17 13.35-16.95L13.35-16.95Q14.15-16.95 14.8-16.93 15.45-16.9 16.1-16.7L16.1-16.7Q16.25-17.1 16.35-17.5 16.45-17.9 16.45-18.3L16.45-18.3Q16.3-18.75 16.1-19.1 15.9-19.45 15.9-19.85L15.9-19.85Q15.9-20.3 16.15-20.65L16.15-20.65Q15.4-21.1 15.4-22.05L15.4-22.05Q15.4-22.25 15.43-22.43 15.45-22.6 15.4-22.8L15.4-22.8Q15.05-23.2 14.85-23.55 14.65-23.9 14.75-24.45L14.75-24.45Q14.9-25.1 14.35-26 13.8-26.9 12.98-27.6 12.15-28.3 11.35-28.3L11.35-28.3Q10.85-28.3 10.38-28.2 9.9-28.1 9.45-28L9.45-28Q9.5-27.2 9.8-27.13 10.1-27.05 10.6-27.05L10.6-27.05Q11-27.05 11.23-26.78 11.45-26.5 11.45-26.15L11.45-26.15Q11.45-25.85 11.23-25.58 11-25.3 10.6-25.25L10.6-25.25Q10.45-25.2 10.3-25.2 10.15-25.2 10.05-25.2L10.05-25.2Q8.65-25.2 8.1-26.23 7.55-27.25 7.55-28.4L7.55-28.4Q7.55-28.95 8.1-29.35L8.1-29.35Q8.1-29.4 8.2-29.5L8.2-29.5Q8.35-29.65 9-30.1 9.65-30.55 10.35-30.95 11.05-31.35 11.25-31.35L11.25-31.35Q11.8-31.35 12.3-31.1 12.8-30.85 13.3-30.85L13.3-30.85Q14.35-30.85 14.7-30.48 15.05-30.1 15.55-30.1L15.55-30.1Q15.95-30.1 16.2-29.83 16.45-29.55 16.45-29.15L16.45-29.15Q16.45-28.35 16.88-27.65 17.3-26.95 17.7-26.18 18.1-25.4 18.1-24.35L18.1-24.35Q18.1-24.15 18.07-23.95 18.05-23.75 18-23.5L18-23.5Q18.3-23.05 18.45-21.8 18.6-20.55 18.6-19.35L18.6-19.35Q18.6-17.75 18.35-17.15L18.35-17.15Q18.15-16.75 18.07-16.5 18-16.25 17.9-16L17.9-16Q18.1-15.9 18.15-15.85L18.15-15.85Q18.4-15.75 18.6-15.68 18.8-15.6 19-15.6L19-15.6Q19.2-15.7 19.4-15.78 19.6-15.85 19.8-15.85L19.8-15.85Q20.65-15.85 21.63-15.68 22.6-15.5 23.25-15.5L23.25-15.5Q23.4-15.5 23.68-15.65 23.95-15.8 24.35-15.8L24.35-15.8Q24.45-15.8 24.58-15.78 24.7-15.75 24.85-15.75L24.85-15.75 24.9-15.75Q24.65-16.15 24.98-16.7 25.3-17.25 25.65-17.5L25.65-17.5Q25.8-17.6 25.95-17.65 26.1-17.7 26.2-17.75L26.2-17.75Q26.2-17.85 26.15-17.95L26.15-17.95 26.1-18.25Q26.05-18.45 26.03-18.63 26-18.8 26-19L26-19Q26-19.8 26.55-20.35L26.55-20.35Q26.7-20.65 26.85-21.63 27-22.6 27.13-23.63 27.25-24.65 27.25-25.05L27.25-25.05Q27.25-26.2 27.3-26.95 27.35-27.7 28.3-28.35L28.3-28.35Q28.4-28.55 28.5-28.78 28.6-29 28.7-29.25L28.7-29.25 28.9-30.05Q29.15-31.05 29.4-31.73 29.65-32.4 30.25-32.75 30.85-33.1 32.2-33.1L32.2-33.1 32.35-33.1Q33.95-33.1 34.63-31.93 35.3-30.75 35.3-29.7L35.3-29.7Q35.3-28.75 35.08-28.43 34.85-28.1 34-27.7L34-27.7 33.9-27.6Q33.75-27.25 33.45-26.9 33.15-26.55 32.7-26.55L32.7-26.55Q31.95-26.55 31.63-26.95 31.3-27.35 31.3-27.8L31.3-27.8Q31.3-28.2 31.53-28.55 31.75-28.9 32.1-28.9L32.1-28.9Q32.3-28.9 32.5-28.75L32.5-28.75Q32.8-29.3 33.45-29.5L33.45-29.5 33.45-29.7Q33.45-30.45 33.13-30.88 32.8-31.3 32.35-31.3L32.35-31.3Q31.7-31.3 31.28-30.43 30.85-29.55 30.45-28.55L30.45-28.55Q29.7-25.6 29-22.6 28.3-19.6 28.3-16.55L28.3-16.55 28.3-15.95Q29.3-16.15 30.15-16.48 31-16.8 31.3-17.15L31.3-17.15Q31.6-17.55 31.68-18.35 31.75-19.15 31.88-19.85 32-20.55 32.35-20.55L32.35-20.55Q32.7-20.55 33.15-19.95L33.15-19.95Q33.6-19.35 33.6-18.6L33.6-18.6Q33.6-17.8 33.3-17.07 33-16.35 32.7-15.95L32.7-15.95Q32.1-15.2 30.8-14.75 29.5-14.3 28.15-14.05L28.15-14.05Q27.95-11.75 27.48-9.58 27-7.4 27-4.9L27-4.9Q27-3.6 27.25-2.5 27.5-1.4 27.9-0.35L27.9-0.35Q28.2-0.15 28.58 0.03 28.95 0.2 29.45 0.2L29.45 0.2Q30.1 0.2 30.73-0.43 31.35-1.05 31.75-1.83 32.15-2.6 32.15-3.1L32.15-3.1Q32.15-3.6 32.13-4.3 32.1-5 31.83-5.55 31.55-6.1 30.85-6.1L30.85-6.1Q30.8-6.1 30.5-5.8 30.2-5.5 30.2-4.95L30.2-4.95Q30.2-4.75 30.3-4.45L30.3-4.45 30.35-4.15 30.35-3.8Q30.35-3.35 30.08-3.1 29.8-2.85 29.45-2.85L29.45-2.85Q29.1-2.85 28.8-3.1 28.5-3.35 28.5-3.8L28.5-3.8 28.5-3.85 28.45-4.15Q28.4-4.4 28.38-4.6 28.35-4.8 28.35-4.95L28.35-4.95Q28.35-5.8 28.98-6.88 29.6-7.95 30.85-7.95L30.85-7.95Q32.25-7.95 32.93-7.18 33.6-6.4 33.8-5.28 34-4.15 34-3.1L34-3.1Q34-2.35 33.45-1.13 32.9 0.1 31.88 1.07 30.85 2.05 29.45 2.05L29.45 2.05Q28.55 2.05 27.8 1.75L27.8 1.75Q27.6 1.85 27.4 1.85L27.4 1.85Q26.8 1.85 26.6 1.3L26.6 1.3Q26.55 1.15 26.5 1.03 26.45 0.9 26.4 0.8L26.4 0.8Q25.45-0.2 25.03-1.75 24.6-3.3 24.53-4.93 24.45-6.55 24.45-7.8L24.45-7.8Q24.45-8.1 24.58-8.3 24.7-8.5 24.85-8.6L24.85-8.6Q24.75-8.85 24.63-9.08 24.5-9.3 24.5-9.6L24.5-9.6Q24.5-10.6 24.83-11.3 25.15-12 25.45-12.85L25.45-12.85Q24.8-13.3 24.8-13.9L24.8-13.9Q24.2-13.9 23.8-13.55L23.8-13.55Q23.55-13.35 23.23-13.2 22.9-13.05 22.4-13.05L22.4-13.05Q22.1-13.05 21.8-13.18 21.5-13.3 21.2-13.3L21.2-13.3Q20.85-13.3 20.5-13.13 20.15-12.95 19.75-12.95L19.75-12.95Q19.25-12.95 18.85-13.15 18.45-13.35 18.1-13.6L18.1-13.6 18.1-13.45Q18.1-13.1 17.93-12.8 17.75-12.5 17.25-12.25L17.25-12.25 17.15-12.2Q17.3-11.25 17.3-10.65L17.3-10.65Q17.3-9.85 17.03-9.3 16.75-8.75 16.3-7.4L16.3-7.4Q16.25-7.2 16.18-6.48 16.1-5.75 16.05-4.85 16-3.95 15.98-3.18 15.95-2.4 16-2.1L16-2.1Q16.05-1.9 16.05-1.75 16.05-1.6 16.05-1.45L16.05-1.45Q16.05-0.75 15.78-0.2 15.5 0.35 14.75 0.65L14.75 0.65Q14.75 0.65 14.65 1.2 14.55 1.75 14.28 2.4 14 3.05 13.45 3.35L13.45 3.35 13.25 3.5Q12.45 4.1 12.1 4.6 11.75 5.1 11.48 5.48 11.2 5.85 10.6 6.13 10 6.4 8.7 6.55L8.7 6.55 8.6 6.6Q8.25 6.9 7.95 7.1 7.65 7.3 7.1 7.3L7.1 7.3 6.5 7.3Q6.45 7.3 6.38 7.33 6.3 7.35 6.2 7.35ZM59.1 0.6L59.1 0.6Q58.75 0.95 58.45 0.95L58.45 0.95Q57.85 0.95 57.85 0.1L57.85 0.1Q57.85-0.7 57.7-1.53 57.55-2.35 57.4-3.15L57.4-3.15Q57.05-3.15 56.78-3.13 56.5-3.1 56.25-3.05L56.25-3.05Q55.65-2.7 54.95-2.5L54.95-2.5Q54.75-2.3 54.53-2.05 54.3-1.8 53.8-1.45L53.8-1.45Q53.45-1.2 52.98-1.03 52.5-0.85 51.95-0.85L51.95-0.85Q51.75-0.85 51.58-0.9 51.4-0.95 51.3-1L51.3-1 51.2-1.05 51.1-1Q50.9-0.8 50.65-0.68 50.4-0.55 50.1-0.55L50.1-0.55Q49.65-0.55 49.35-0.83 49.05-1.1 48.8-1.4L48.8-1.4Q47.15-1.6 47.15-2.55L47.15-2.55Q47.15-3.05 47.55-4.1L47.55-4.1Q46.9-4.75 46.9-5.35L46.9-5.35Q46.9-5.9 47.5-6.4L47.5-6.4Q46.95-6.9 46.95-7.3L46.95-7.3Q46.95-7.65 47.25-7.98 47.55-8.3 47.8-8.75L47.8-8.75Q47.75-8.95 47.75-9.25L47.75-9.25Q47.75-10.1 48.03-10.75 48.3-11.4 48.3-11.9L48.3-11.9Q48.3-12.45 47.65-12.8 47-13.15 44.95-13.3L44.95-13.3Q44.6-13.3 44.45-13.53 44.3-13.75 44.3-13.95L44.3-13.95Q44.3-14.7 45.05-14.7L45.05-14.7 45.95-14.7Q46.8-14.7 47.4-14.75 48-14.8 48.8-14.8L48.8-14.8Q50.2-14.8 51.8-15.2L51.8-15.2Q52.45-15.55 53.1-15.75 53.75-15.95 54.35-16.5L54.35-16.5Q54.55-16.7 54.85-16.7L54.85-16.7Q55.15-16.7 55.38-16.48 55.6-16.25 55.6-16L55.6-16Q55.6-15.7 55.35-15.45L55.35-15.45Q54.85-14.9 54.05-14.5 53.25-14.1 52.4-13.85L52.4-13.85Q52.15-13.7 51.95-13.45L51.95-13.45Q51.55-13 51.25-11.83 50.95-10.65 50.83-9.43 50.7-8.2 50.7-7.5L50.7-7.5 50.7-6Q50.7-5.5 50.73-5 50.75-4.5 50.85-4.1L50.85-4.1 51.45-3.65Q51.75-3.4 52.15-3.4L52.15-3.4Q52.6-3.4 53-3.63 53.4-3.85 53.9-3.85L53.9-3.85Q54-3.85 54.15-3.85 54.3-3.85 54.4-3.9L54.4-3.9Q54.85-4.15 55.65-4.4L55.65-4.4Q56.05-4.55 56.5-4.73 56.95-4.9 57.45-4.9L57.45-4.9Q58.15-4.9 58.6-5.7 59.05-6.5 59.35-7.6L59.35-7.6 59.35-8.3Q59.35-9.55 59.58-10.58 59.8-11.6 59.95-12.7L59.95-12.7Q59.55-13.35 58.7-13.85L58.7-13.85Q58.5-13.8 58.38-13.8 58.25-13.8 58.15-13.75L58.15-13.75Q58.1-13.75 58.05-13.73 58-13.7 57.9-13.7L57.9-13.7Q57.5-13.7 57.3-13.95 57.1-14.2 57.1-14.45L57.1-14.45Q57.1-15 57.65-15.15L57.65-15.15Q57.9-15.4 58.3-15.4L58.3-15.4Q58.4-15.4 58.55-15.4 58.7-15.4 58.85-15.3L58.85-15.3Q59.55-15.45 60.25-15.45L60.25-15.45Q61.3-15.45 62.18-15.5 63.05-15.55 63.85-15.8L63.85-15.8Q64.5-16.6 65.28-17.18 66.05-17.75 66.95-17.95L66.95-17.95Q67.05-17.95 67.13-17.98 67.2-18 67.25-18L67.25-18Q67.9-18 67.9-17.4L67.9-17.4Q67.9-17.05 67.65-16.8L67.65-16.8Q66.3-15.15 64.75-14.55L64.75-14.55Q63.85-13.3 63.15-12.25 62.45-11.2 62.45-10.15L62.45-10.15Q62.45-9.4 62.35-8.63 62.25-7.85 61.7-7.75L61.7-7.75Q61.65-7.45 61.63-7.13 61.6-6.8 61.6-6.5L61.6-6.5Q61.6-6.15 61.6-5.83 61.6-5.5 61.5-5.2L61.5-5.2Q61.5-4.85 61.35-4.4 61.2-3.95 61.2-3.55L61.2-3.55Q61.2-3.4 61.3-3.1L61.3-3.1Q62.3-3.7 63.28-4.23 64.25-4.75 65.2-5.2L65.2-5.2Q65.65-5.45 65.93-5.15 66.2-4.85 66.2-4.45L66.2-4.45Q66.2-3.95 65.8-3.7L65.8-3.7Q64.65-2.95 63.78-2.73 62.9-2.5 61.25-1.95L61.25-1.95Q60.6-1.5 60.1-0.73 59.6 0.05 59.1 0.6ZM102.01 4.5L102.01 4.5Q101.21 4.35 99.93 3.8 98.66 3.25 97.51 2.95L97.51 2.95Q97.21 3.05 96.96 3.05L96.96 3.05Q96.71 3.05 96.21 3 95.71 2.95 95.28 2.8 94.86 2.65 94.86 2.3L94.86 2.3Q94.86 2.05 95.16 1.7L95.16 1.7Q95.51 1.3 96.26 1.3L96.26 1.3Q96.81 1.3 97.31 1.45L97.31 1.45Q97.66 1.1 97.68 0.3 97.71-0.5 97.71-0.85L97.71-0.85Q97.71-1.3 97.91-1.58 98.11-1.85 98.31-2L98.31-2 98.41-2.1Q98.61-2.8 98.61-3.78 98.61-4.75 98.68-5.65 98.76-6.55 99.21-7.1L99.21-7.1Q99.36-7.3 99.33-7.25 99.31-7.2 99.41-7.4L99.41-7.4Q99.71-7.8 99.38-8.15 99.06-8.5 99.06-9.1L99.06-9.1Q99.06-9.35 99.21-9.7 99.36-10.05 99.71-10.45L99.71-10.45Q99.81-10.55 99.81-10.58 99.81-10.6 99.81-10.6L99.81-10.6Q99.81-11.05 99.31-11.78 98.81-12.5 97.91-12.75L97.91-12.75Q97.41-12.55 96.91-12.23 96.41-11.9 95.96-11.5L95.96-11.5Q95.71-11.15 95.48-10.9 95.26-10.65 95.06-10.55L95.06-10.55Q95.01-10.5 94.86-10.48 94.71-10.45 94.61-10.35L94.61-10.35Q94.21-9.75 93.91-9.2L93.91-9.2Q93.86-8.7 94.03-8.25 94.21-7.8 94.11-7.15L94.11-7.15Q94.06-6.65 94.03-5.95 94.01-5.25 93.61-4.85L93.61-4.85 93.66-4.75Q93.71-4.55 93.76-4.23 93.81-3.9 93.81-3.6L93.81-3.6Q93.81-3.25 93.68-2.95 93.56-2.65 93.26-2.55L93.26-2.55Q93.56-2.25 93.66-2.1L93.66-2.1 93.86-1.85Q94.11-1.5 94.36-1.45L94.36-1.45 94.91-1.3Q95.66-1.25 95.66-0.7L95.66-0.7Q95.66-0.05 94.81 0.1L94.81 0.1Q94.76 0.1 94.68 0.13 94.61 0.15 94.51 0.15L94.51 0.15Q94.11 0.15 93.46-0.25L93.46-0.25Q92.96-0.45 92.48-0.63 92.01-0.8 91.46-0.8L91.46-0.8Q91.01-0.8 90.58-0.68 90.16-0.55 89.76-0.45L89.76-0.45Q89.56-0.25 89.21-0.15 88.86-0.05 88.56 0.05L88.56 0.05Q88.41 0.25 88.01 0.25L88.01 0.25 87.41 0.25Q87.11 0.25 86.86 0.28 86.61 0.3 86.51 0.3L86.51 0.3Q85.66 0.3 85.66-0.2L85.66-0.2Q85.66-0.55 85.96-0.85 86.26-1.15 86.61-1.2L86.61-1.2Q86.86-1.35 87.21-1.35L87.21-1.35Q87.71-1.35 88.16-1.48 88.61-1.6 89.06-1.7L89.06-1.7 89.21-2Q89.36-2.05 89.53-2.05 89.71-2.05 89.86-2.05L89.86-2.05Q89.91-2.35 89.86-2.63 89.81-2.9 89.81-3.15L89.81-3.15Q89.81-3.55 90.11-4.05L90.11-4.05Q90.46-4.6 90.56-5.28 90.66-5.95 90.66-6.65L90.66-6.65Q90.66-7.05 90.63-7.43 90.61-7.8 90.61-8.15L90.61-8.15Q90.61-9.9 90.31-11.13 90.01-12.35 88.26-12.9L88.26-12.9 88.01-13.05Q87.36-12.8 86.78-12.4 86.21-12 85.61-11.65L85.61-11.65Q84.66-11.15 84.33-11.05 84.01-10.95 83.81-10.1L83.81-10.1Q83.81-9.7 83.83-9.33 83.86-8.95 83.86-8.65L83.86-8.65Q83.86-7.85 83.61-7.55L83.61-7.55Q83.51-7.4 83.21-7.2L83.21-7.2 83.16-7.15 83.26-7.05Q83.81-6.55 83.81-5.9L83.81-5.9Q83.81-5.25 83.51-4.58 83.21-3.9 83.21-3.15L83.21-3.15Q83.26-3.15 83.68-2.93 84.11-2.7 84.58-2.43 85.06-2.15 85.21-2.05L85.21-2.05Q85.76-1.8 85.76-1.35L85.76-1.35Q85.76-0.65 84.91-0.65L84.91-0.65Q84.56-0.65 83.96-1.03 83.36-1.4 82.96-1.6L82.96-1.6 82.91-1.55Q82.61-1.25 82.21-1.25L82.21-1.25Q81.91-1.25 81.71-1.33 81.51-1.4 81.21-1.4L81.21-1.4Q80.81-1.4 80.38-1.28 79.96-1.15 79.56-1.05L79.56-1.05Q79.46-0.95 79.26-0.85L79.26-0.85Q78.91-0.45 78.01-0.05 77.11 0.35 76.66 0.35L76.66 0.35Q75.81 0.35 75.81-0.3L75.81-0.3Q75.81-1 76.66-1.25L76.66-1.25Q76.91-1.35 77.23-1.48 77.56-1.6 77.91-1.75L77.91-1.75Q78.01-2.4 78.61-2.4L78.61-2.4 79.01-2.4Q79.91-3.05 80.06-3.85L80.06-3.85Q80.26-4.95 80.43-5.3 80.61-5.65 80.61-6.45L80.61-6.45Q80.61-7.25 80.48-8 80.36-8.75 80.36-9.45L80.36-9.45Q80.36-10.4 80.76-11.2L80.76-11.2 80.81-11.35Q80.66-11.5 80.51-11.6L80.51-11.6 80.26-11.8Q80.06-11.95 79.81-12.25L79.81-12.25Q79.56-12.2 79.26-12.1 78.96-12 78.61-12L78.61-12Q78.41-12 78.26-11.95 78.11-11.9 77.86-11.9L77.86-11.9Q77.51-11.9 77.33-12.15 77.16-12.4 77.16-12.65L77.16-12.65Q77.16-13.4 77.86-13.4L77.86-13.4 78.61-13.4Q79.06-13.4 79.46-13.63 79.86-13.85 80.36-13.85L80.36-13.85 80.61-13.85 80.76-13.9 80.96-13.95Q81.66-14.2 82.46-14.85 83.26-15.5 83.66-15.85L83.66-15.85Q83.91-16.1 84.26-16.1L84.26-16.1Q84.91-16.1 84.91-15.45L84.91-15.45Q84.91-15.15 84.81-15L84.81-15Q84.26-13.75 84.01-12.55L84.01-12.55 84.11-12.6Q85.41-13.25 86.71-14.05 88.01-14.85 89.56-14.85L89.56-14.85Q90.56-14.85 91.86-13.88 93.16-12.9 93.76-11.65L93.76-11.65Q94.46-12.5 95.41-13.2L95.41-13.2Q95.51-13.35 95.63-13.5 95.76-13.65 95.96-13.85L95.96-13.85Q96.21-14.05 96.51-14.2 96.81-14.35 97.16-14.3L97.16-14.3 97.31-14.3Q98.56-14.85 99.76-14.85L99.76-14.85Q101.01-14.85 101.71-14 102.41-13.15 102.71-11.98 103.01-10.8 103.01-9.85L103.01-9.85Q103.01-8.6 102.61-7.1 102.21-5.6 101.66-4.25L101.66-4.25Q101.61-4.2 101.61-4.05L101.61-4.05Q101.61-3.75 101.73-3.33 101.86-2.9 101.76-2.55L101.76-2.55Q101.61-1.65 101.16-0.65 100.71 0.35 100.46 1.35L100.46 1.35Q100.46 1.4 100.56 1.6L100.56 1.6Q100.91 2.75 102.36 3.1L102.36 3.1Q102.96 3.25 102.96 3.8L102.96 3.8Q102.96 4.1 102.71 4.33 102.46 4.55 102.01 4.5ZM139.01 7.35L139.01 7.35Q138.01 7.35 136.89 6.83 135.76 6.3 134.96 5.43 134.16 4.55 134.01 3.5L134.01 3.5Q133.96 3.05 133.94 2.6 133.91 2.15 133.71 1.7L133.71 1.7Q133.31 1.3 132.99 1 132.66 0.7 132.66 0.05L132.66 0.05Q132.66-1.45 133.06-3.15 133.46-4.85 134.34-6.35 135.21-7.85 136.66-8.78 138.11-9.7 140.16-9.7L140.16-9.7Q140.61-9.7 140.86-9.35L140.86-9.35 141.26-9.35Q142.01-9.35 142.54-8.72 143.06-8.1 143.39-7.18 143.71-6.25 143.86-5.38 144.01-4.5 144.01-4L144.01-4Q144.01-2.4 142.94-1.63 141.86-0.85 140.56-0.4L140.56-0.4Q140.06-0.2 139.69-0.53 139.31-0.85 139.31-1.25L139.31-1.25Q139.31-1.9 139.96-2.1L139.96-2.1Q140.61-2.35 141.39-2.78 142.16-3.2 142.16-4L142.16-4Q142.16-4.4 142.04-5.1 141.91-5.8 141.69-6.5 141.46-7.2 141.16-7.5L141.16-7.5Q140.86-7.5 140.59-7.6 140.31-7.7 140.01-7.7L140.01-7.7Q139.46-7.7 138.69-7.45 137.91-7.2 137.34-6.7 136.76-6.2 136.76-5.45L136.76-5.45Q136.76-5.1 136.79-4.78 136.81-4.45 136.81-4.15L136.81-4.15Q136.81-3.6 136.64-3.13 136.46-2.65 135.91-2.25L135.91-2.25 135.61-2.05Q135.56-1.75 135.54-1.43 135.51-1.1 135.51-0.8L135.51-0.8Q135.51-0.35 135.54 0.1 135.56 0.55 135.56 1.05L135.56 1.05Q135.76 1.4 136.01 1.68 136.26 1.95 136.41 2.4L136.41 2.4Q136.81 3.75 137.41 4.53 138.01 5.3 139.26 5.45L139.26 5.45Q139.56 5.4 139.84 5.3 140.11 5.2 140.36 5.1L140.36 5.1Q140.56 5 140.76 4.9 140.96 4.8 141.31 4.75L141.31 4.75 141.36 4.7Q141.76 4.6 142.01 4.6L142.01 4.6 142.11 4.55Q143.01 4.3 143.39 3.83 143.76 3.35 144.06 2.8 144.36 2.25 145.11 1.9L145.11 1.9 145.31 1.8Q145.56 1.65 145.76 1.3L145.76 1.3Q145.76 1.15 145.91 0.45 146.06-0.25 146.29-1.15 146.51-2.05 146.71-2.83 146.91-3.6 146.96-3.9L146.96-3.9Q147.11-4.65 147.11-5.3L147.11-5.3Q147.11-6 147.11-6.68 147.11-7.35 147.31-8L147.31-8Q147.56-8.65 147.94-9.45 148.31-10.25 148.31-11L148.31-11Q148.31-11.3 148.26-11.45L148.26-11.45Q148.11-11.9 148.11-12.4L148.11-12.4Q148.11-13.25 148.71-13.65L148.71-13.65Q148.76-13.75 148.76-13.88 148.76-14 148.81-14.2L148.81-14.2 148.76-14.35Q148.21-14 147.91-14L147.91-14Q147.56-14 147.39-14.33 147.21-14.65 146.56-14.65L146.56-14.65Q146.26-14.65 146.06-14.78 145.86-14.9 145.66-15.1L145.66-15.1 144.91-15.1Q144.06-14.85 142.96-13.6L142.96-13.6Q142.71-13.35 142.56-13.3L142.56-13.3Q142.46-13.1 142.46-13.05L142.46-13.05Q142.46-12.6 142.19-12.35 141.91-12.1 141.56-12.1L141.56-12.1Q141.21-12.1 140.91-12.35 140.61-12.6 140.61-13.05L140.61-13.05Q140.61-13.95 141.26-14.8 141.91-15.65 142.86-16.25 143.81-16.85 144.66-16.9L144.66-16.9Q144.91-17 145.19-17 145.46-17 145.71-17L145.71-17Q146.01-17 146.16-16.95L146.16-16.95Q146.96-16.95 147.61-16.93 148.26-16.9 148.91-16.7L148.91-16.7Q149.06-17.1 149.16-17.5 149.26-17.9 149.26-18.3L149.26-18.3Q149.11-18.75 148.91-19.1 148.71-19.45 148.71-19.85L148.71-19.85Q148.71-20.3 148.96-20.65L148.96-20.65Q148.21-21.1 148.21-22.05L148.21-22.05Q148.21-22.25 148.24-22.43 148.26-22.6 148.21-22.8L148.21-22.8Q147.86-23.2 147.66-23.55 147.46-23.9 147.56-24.45L147.56-24.45Q147.71-25.1 147.16-26 146.61-26.9 145.79-27.6 144.96-28.3 144.16-28.3L144.16-28.3Q143.66-28.3 143.19-28.2 142.71-28.1 142.26-28L142.26-28Q142.31-27.2 142.61-27.13 142.91-27.05 143.41-27.05L143.41-27.05Q143.81-27.05 144.04-26.78 144.26-26.5 144.26-26.15L144.26-26.15Q144.26-25.85 144.04-25.58 143.81-25.3 143.41-25.25L143.41-25.25Q143.26-25.2 143.11-25.2 142.96-25.2 142.86-25.2L142.86-25.2Q141.46-25.2 140.91-26.23 140.36-27.25 140.36-28.4L140.36-28.4Q140.36-28.95 140.91-29.35L140.91-29.35Q140.91-29.4 141.01-29.5L141.01-29.5Q141.16-29.65 141.81-30.1 142.46-30.55 143.16-30.95 143.86-31.35 144.06-31.35L144.06-31.35Q144.61-31.35 145.11-31.1 145.61-30.85 146.11-30.85L146.11-30.85Q147.16-30.85 147.51-30.48 147.86-30.1 148.36-30.1L148.36-30.1Q148.76-30.1 149.01-29.83 149.26-29.55 149.26-29.15L149.26-29.15Q149.26-28.35 149.69-27.65 150.11-26.95 150.51-26.18 150.91-25.4 150.91-24.35L150.91-24.35Q150.91-24.15 150.89-23.95 150.86-23.75 150.81-23.5L150.81-23.5Q151.11-23.05 151.26-21.8 151.41-20.55 151.41-19.35L151.41-19.35Q151.41-17.75 151.16-17.15L151.16-17.15Q150.96-16.75 150.89-16.5 150.81-16.25 150.71-16L150.71-16Q150.91-15.9 150.96-15.85L150.96-15.85Q151.21-15.75 151.41-15.68 151.61-15.6 151.81-15.6L151.81-15.6Q152.01-15.7 152.21-15.78 152.41-15.85 152.61-15.85L152.61-15.85Q153.46-15.85 154.44-15.68 155.41-15.5 156.06-15.5L156.06-15.5Q156.21-15.5 156.49-15.65 156.76-15.8 157.16-15.8L157.16-15.8Q157.26-15.8 157.39-15.78 157.51-15.75 157.66-15.75L157.66-15.75 157.71-15.75Q157.46-16.15 157.79-16.7 158.11-17.25 158.46-17.5L158.46-17.5Q158.61-17.6 158.76-17.65 158.91-17.7 159.01-17.75L159.01-17.75Q159.01-17.85 158.96-17.95L158.96-17.95 158.91-18.25Q158.86-18.45 158.84-18.63 158.81-18.8 158.81-19L158.81-19Q158.81-19.8 159.36-20.35L159.36-20.35Q159.51-20.65 159.66-21.63 159.81-22.6 159.94-23.63 160.06-24.65 160.06-25.05L160.06-25.05Q160.06-26.2 160.11-26.95 160.16-27.7 161.11-28.35L161.11-28.35Q161.21-28.55 161.31-28.78 161.41-29 161.51-29.25L161.51-29.25 161.71-30.05Q161.96-31.05 162.21-31.73 162.46-32.4 163.06-32.75 163.66-33.1 165.01-33.1L165.01-33.1 165.16-33.1Q166.76-33.1 167.44-31.93 168.11-30.75 168.11-29.7L168.11-29.7Q168.11-28.75 167.89-28.43 167.66-28.1 166.81-27.7L166.81-27.7 166.71-27.6Q166.56-27.25 166.26-26.9 165.96-26.55 165.51-26.55L165.51-26.55Q164.76-26.55 164.44-26.95 164.11-27.35 164.11-27.8L164.11-27.8Q164.11-28.2 164.34-28.55 164.56-28.9 164.91-28.9L164.91-28.9Q165.11-28.9 165.31-28.75L165.31-28.75Q165.61-29.3 166.26-29.5L166.26-29.5 166.26-29.7Q166.26-30.45 165.94-30.88 165.61-31.3 165.16-31.3L165.16-31.3Q164.51-31.3 164.09-30.43 163.66-29.55 163.26-28.55L163.26-28.55Q162.51-25.6 161.81-22.6 161.11-19.6 161.11-16.55L161.11-16.55 161.11-15.95Q162.11-16.15 162.96-16.48 163.81-16.8 164.11-17.15L164.11-17.15Q164.41-17.55 164.49-18.35 164.56-19.15 164.69-19.85 164.81-20.55 165.16-20.55L165.16-20.55Q165.51-20.55 165.96-19.95L165.96-19.95Q166.41-19.35 166.41-18.6L166.41-18.6Q166.41-17.8 166.11-17.07 165.81-16.35 165.51-15.95L165.51-15.95Q164.91-15.2 163.61-14.75 162.31-14.3 160.96-14.05L160.96-14.05Q160.76-11.75 160.29-9.58 159.81-7.4 159.81-4.9L159.81-4.9Q159.81-3.6 160.06-2.5 160.31-1.4 160.71-0.35L160.71-0.35Q161.01-0.15 161.39 0.03 161.76 0.2 162.26 0.2L162.26 0.2Q162.91 0.2 163.54-0.43 164.16-1.05 164.56-1.83 164.96-2.6 164.96-3.1L164.96-3.1Q164.96-3.6 164.94-4.3 164.91-5 164.64-5.55 164.36-6.1 163.66-6.1L163.66-6.1Q163.61-6.1 163.31-5.8 163.01-5.5 163.01-4.95L163.01-4.95Q163.01-4.75 163.11-4.45L163.11-4.45 163.16-4.15 163.16-3.8Q163.16-3.35 162.89-3.1 162.61-2.85 162.26-2.85L162.26-2.85Q161.91-2.85 161.61-3.1 161.31-3.35 161.31-3.8L161.31-3.8 161.31-3.85 161.26-4.15Q161.21-4.4 161.19-4.6 161.16-4.8 161.16-4.95L161.16-4.95Q161.16-5.8 161.79-6.88 162.41-7.95 163.66-7.95L163.66-7.95Q165.06-7.95 165.74-7.18 166.41-6.4 166.61-5.28 166.81-4.15 166.81-3.1L166.81-3.1Q166.81-2.35 166.26-1.13 165.71 0.1 164.69 1.07 163.66 2.05 162.26 2.05L162.26 2.05Q161.36 2.05 160.61 1.75L160.61 1.75Q160.41 1.85 160.21 1.85L160.21 1.85Q159.61 1.85 159.41 1.3L159.41 1.3Q159.36 1.15 159.31 1.03 159.26 0.9 159.21 0.8L159.21 0.8Q158.26-0.2 157.84-1.75 157.41-3.3 157.34-4.93 157.26-6.55 157.26-7.8L157.26-7.8Q157.26-8.1 157.39-8.3 157.51-8.5 157.66-8.6L157.66-8.6Q157.56-8.85 157.44-9.08 157.31-9.3 157.31-9.6L157.31-9.6Q157.31-10.6 157.64-11.3 157.96-12 158.26-12.85L158.26-12.85Q157.61-13.3 157.61-13.9L157.61-13.9Q157.01-13.9 156.61-13.55L156.61-13.55Q156.36-13.35 156.04-13.2 155.71-13.05 155.21-13.05L155.21-13.05Q154.91-13.05 154.61-13.18 154.31-13.3 154.01-13.3L154.01-13.3Q153.66-13.3 153.31-13.13 152.96-12.95 152.56-12.95L152.56-12.95Q152.06-12.95 151.66-13.15 151.26-13.35 150.91-13.6L150.91-13.6 150.91-13.45Q150.91-13.1 150.74-12.8 150.56-12.5 150.06-12.25L150.06-12.25 149.96-12.2Q150.11-11.25 150.11-10.65L150.11-10.65Q150.11-9.85 149.84-9.3 149.56-8.75 149.11-7.4L149.11-7.4Q149.06-7.2 148.99-6.48 148.91-5.75 148.86-4.85 148.81-3.95 148.79-3.18 148.76-2.4 148.81-2.1L148.81-2.1Q148.86-1.9 148.86-1.75 148.86-1.6 148.86-1.45L148.86-1.45Q148.86-0.75 148.59-0.2 148.31 0.35 147.56 0.65L147.56 0.65Q147.56 0.65 147.46 1.2 147.36 1.75 147.09 2.4 146.81 3.05 146.26 3.35L146.26 3.35 146.06 3.5Q145.26 4.1 144.91 4.6 144.56 5.1 144.29 5.48 144.01 5.85 143.41 6.13 142.81 6.4 141.51 6.55L141.51 6.55 141.41 6.6Q141.06 6.9 140.76 7.1 140.46 7.3 139.91 7.3L139.91 7.3 139.31 7.3Q139.26 7.3 139.19 7.33 139.11 7.35 139.01 7.35ZM179.77-0.75L179.22-0.75Q178.47-0.75 178.02-1.33 177.57-1.9 177.39-2.65 177.22-3.4 177.22-4L177.22-4Q177.22-4.65 177.52-5.08 177.82-5.5 178.22-5.95L178.22-5.95 178.17-6Q177.77-6.4 177.77-6.85L177.77-6.85Q177.77-7.45 178.24-8 178.72-8.55 179.07-8.95L179.07-8.95Q179.92-9.95 181.22-10.3 182.52-10.65 183.77-10.65L183.77-10.65Q184.07-10.65 185.02-10.38 185.97-10.1 186.77-9.7L186.77-9.7Q186.77-10.15 186.74-10.58 186.72-11 186.57-11.5L186.57-11.5Q186.52-11.75 186.44-12.05 186.37-12.35 186.37-12.65L186.37-12.65Q186.37-13 186.52-13.3L186.52-13.3Q185.92-13.55 185.92-14.2L185.92-14.2Q185.92-16 184.67-16L184.67-16Q183.12-16 181.92-15.7L181.92-15.7Q181.27-15.4 180.82-14.83 180.37-14.25 179.72-13.25L179.72-13.25Q179.62-13.05 179.62-12.95L179.62-12.95Q179.72-12.75 179.79-12.58 179.87-12.4 179.97-12.25L179.97-12.25Q180.32-12 180.77-12L180.77-12Q180.77-12 180.99-12.25 181.22-12.5 181.22-12.55L181.22-12.55 181.22-12.75Q181.02-13 181.02-13.25L181.02-13.25Q181.02-13.85 181.77-13.85L181.77-13.85Q182.12-13.85 182.39-13.6 182.67-13.35 182.67-12.75L182.67-12.75 182.67-12.55Q182.67-12.05 182.07-11.3 181.47-10.55 180.77-10.55L180.77-10.55Q180.52-10.55 180.24-10.63 179.97-10.7 179.72-10.75L179.72-10.75Q179.52-10.75 179.32-10.85 179.12-10.95 178.87-11.25L178.87-11.25Q178.57-11.5 178.34-11.85 178.12-12.2 178.12-12.65L178.12-12.65Q178.07-12.9 177.99-13.08 177.92-13.25 177.92-13.3L177.92-13.3Q177.92-13.55 177.99-13.73 178.07-13.9 178.12-14.05L178.12-14.05Q177.92-14.4 178.12-14.7L178.12-14.7Q178.57-15.7 179.42-16.25 180.27-16.8 181.27-17.05L181.27-17.05Q182.07-17.45 182.94-17.55 183.82-17.65 184.87-17.65L184.87-17.65Q186.17-17.65 186.44-17.35 186.72-17.05 187.17-16.1L187.17-16.1Q188.12-15.65 188.54-15.18 188.97-14.7 189.12-13.4L189.12-13.4Q189.27-12.1 189.22-10.75 189.17-9.4 189.34-8.13 189.52-6.85 190.17-5.65L190.17-5.65Q190.22-5.5 190.42-5.2L190.42-5.2Q190.87-5.45 191.32-5.7 191.77-5.95 192.27-6L192.27-6 192.42-6Q192.77-6 192.94-5.78 193.12-5.55 193.12-5.3L193.12-5.3Q193.12-5.1 192.97-4.88 192.82-4.65 192.52-4.6L192.52-4.6Q192.22-4.55 191.57-4.15 190.92-3.75 190.32-3.55L190.32-3.55Q189.67-3.25 189.17-2.83 188.67-2.4 188.12-1.7L188.12-1.7Q187.82-1.4 187.47-1.4L187.47-1.4Q186.67-1.4 186.82-2.35L186.82-2.35Q186.87-2.45 186.94-3.05 187.02-3.65 187.07-4.35L187.07-4.35Q186.77-3.9 186.24-3.48 185.72-3.05 184.77-2.55L184.77-2.55Q184.67-2.5 184.39-2.38 184.12-2.25 183.97-2.2L183.97-2.2Q183.47-2 183.02-1.73 182.57-1.45 182.12-1.05L182.12-1.05Q181.92-0.85 181.64-0.75 181.37-0.65 180.92-0.65L180.92-0.65Q180.72-0.65 180.42-0.68 180.12-0.7 179.77-0.75L179.77-0.75ZM181.52-3.3L182.47-3.25Q182.72-3.25 182.82-3.3L182.82-3.3Q184.12-3.95 184.82-4.23 185.52-4.5 185.89-5.03 186.27-5.55 186.57-6.9L186.57-6.9Q186.57-7 186.59-7.13 186.62-7.25 186.62-7.45L186.62-7.45Q186.62-8.1 186.47-8.3L186.47-8.3Q185.82-9 184.92-9L184.92-9Q184.42-9 183.94-8.9 183.47-8.8 183.02-8.85L183.02-8.85Q182.92-8.2 182.32-8.2L182.32-8.2 182.07-8.2Q181.87-7.65 181.37-7.65L181.37-7.65 181.22-7.65Q181.02-6.95 180.52-6.48 180.02-6 180.02-5.2L180.02-5.2 180.02-4.85Q180.52-4.35 180.52-3.75L180.52-3.75Q180.82-3.65 181.04-3.48 181.27-3.3 181.47-3.3L181.47-3.3 181.52-3.3ZM202.47 0.7L202.47 0.7Q202.37 0.75 202.12 0.75L202.12 0.75Q201.42 0.75 201.42 0.1L201.42 0.1Q201.42-0.25 201.72-0.55L201.72-0.55Q201.92-0.7 202.37-0.98 202.82-1.25 203.37-1.5L203.37-1.5Q203.37-2.25 204.62-2.4L204.62-2.4Q205.02-2.5 205.09-2.75 205.17-3 205.32-3.2L205.32-3.2Q205.37-3.25 205.72-4.28 206.07-5.3 207.87-6.75L207.87-6.75Q208.47-7.25 208.99-8.4 209.52-9.55 210.12-10.25L210.12-10.25Q210.67-10.95 211.29-11.55 211.92-12.15 212.57-12.8L212.57-12.8Q212.82-13.1 213.07-13.4 213.32-13.7 213.52-14L213.52-14Q213.22-14.1 213.07-14.2L213.07-14.2Q212.87-14.15 212.64-14.05 212.42-13.95 212.12-13.95L212.12-13.95Q211.92-13.95 211.59-14.03 211.27-14.1 210.92-14.1L210.92-14.1Q209.97-14.1 208.92-13.58 207.87-13.05 207.02-12.3L207.02-12.3Q206.82-11.8 206.57-11.38 206.32-10.95 206.07-10.55L206.07-10.55 205.57-9.4Q205.32-8.85 204.87-8.85L204.87-8.85Q204.22-8.85 204.22-9.7L204.22-9.7 204.22-10Q204.22-10.05 204.19-10.1 204.17-10.15 204.17-10.2L204.17-10.2Q204.17-10.4 204.32-10.6L204.32-10.6Q204.42-11.3 204.84-11.95 205.27-12.6 205.82-13.15L205.82-13.15Q206.72-15.1 207.12-16.8L207.12-16.8Q207.27-17.45 207.82-17.45L207.82-17.45Q208.47-17.45 208.52-16.7L208.52-16.7Q208.57-16.45 208.62-16.05 208.67-15.65 208.77-15.45L208.77-15.45Q208.67-15.45 208.62-15.5L208.62-15.5 208.52-15.5 208.67-15.05Q209.92-15.55 210.92-15.55L210.92-15.55Q211.27-15.55 211.59-15.48 211.92-15.4 212.12-15.4L212.12-15.4Q212.47-15.4 212.77-15.68 213.07-15.95 213.37-15.95L213.37-15.95Q213.67-15.95 213.92-15.55L213.92-15.55Q214.17-15.75 214.57-15.75L214.57-15.75Q214.82-15.75 214.99-15.63 215.17-15.5 215.32-15.35L215.32-15.35Q215.87-15.35 216.34-15.68 216.82-16 217.32-16L217.32-16Q217.97-16 217.97-15.3L217.97-15.3Q217.97-14.95 217.69-14.53 217.42-14.1 216.72-13.85L216.72-13.85 216.47-13.75Q215.97-13.55 215.82-13.03 215.67-12.5 215.34-11.93 215.02-11.35 213.92-11L213.92-11 213.92-10.95Q213.92-10.1 213.27-9.6 212.62-9.1 211.97-8.25L211.97-8.25Q211.62-7.75 211.24-7.25 210.87-6.75 210.42-6.35L210.42-6.35Q210.32-6.1 210.37-5.85 210.42-5.6 210.17-5.35L210.17-5.35Q210.12-5.2 210.07-5.05 210.02-4.9 209.97-4.75L209.97-4.75Q209.77-4.3 209.52-3.93 209.27-3.55 209.12-3.05L209.12-3.05Q208.87-2.5 208.32-2.35L208.32-2.35 208.87-2.35Q209.77-2.35 211.02-2.35 212.27-2.35 213.07-2.7L213.07-2.7Q213.02-3 213.37-3.45 213.72-3.9 214.14-4.28 214.57-4.65 214.62-4.65L214.62-4.65Q215.47-4.85 215.49-5.33 215.52-5.8 215.87-6.5L215.87-6.5Q216.17-7 216.62-7L216.62-7Q217.27-7 217.27-6.15L217.27-6.15Q217.27-5 216.87-4.13 216.47-3.25 215.99-2.43 215.52-1.6 215.22-0.6L215.22-0.6Q215.07-0.05 214.62-0.05L214.62-0.05Q214.47-0.05 214.29-0.13 214.12-0.2 213.92-0.25L213.92-0.25Q213.37-0.25 212.87-0.48 212.37-0.7 211.82-0.7L211.82-0.7Q211.52-0.7 211.22-0.53 210.92-0.35 210.57-0.35L210.57-0.35Q210.22-0.35 209.92-0.53 209.62-0.7 209.32-0.7L209.32-0.7Q207.52-0.7 205.79-0.3 204.07 0.1 202.47 0.7ZM237.77-18.9L237.77-18.9Q237.02-18.9 236.22-19.53 235.42-20.15 235.42-21.05L235.42-21.05Q235.42-21.45 235.87-21.9 236.32-22.35 236.62-22.6L236.62-22.6 237.32-23.15Q237.42-23.25 237.65-23.28 237.87-23.3 238.02-23.3L238.02-23.3Q238.67-23.3 239.12-22.68 239.57-22.05 239.57-21.6L239.57-21.6Q239.57-21.2 239.4-20.55 239.22-19.9 238.85-19.4 238.47-18.9 237.77-18.9ZM238.27 0.4L238.27 0.4Q238.27 0.4 237.97 0.3L237.97 0.3Q237.87 0.3 237.72 0.25 237.57 0.2 237.42 0.15L237.42 0.15Q237.07 0.05 236.77-0.03 236.47-0.1 236.37-0.1L236.37-0.1Q236.17-0.1 235.87 0L235.87 0Q235.57 0.1 235.47 0.1L235.47 0.1Q235.42 0.1 235.3 0.05 235.17 0 235.12 0L235.12 0Q234.97-0.05 234.82-0.1 234.67-0.15 234.47-0.15L234.47-0.15Q234.22-0.25 233.87-0.23 233.52-0.2 233.37-0.2L233.37-0.2 230.32-0.15Q230.17-0.15 230.12-0.2L230.12-0.2Q229.72 0 229.42 0L229.42 0 229.27 0Q228.92 0.5 228.57 0.5L228.57 0.5Q228.22 0.5 228.02 0.1 227.82-0.3 227.82-0.8L227.82-0.8Q227.82-1.5 228.52-1.5L228.52-1.5 228.67-1.5Q228.97-1.75 229.37-1.75L229.37-1.75Q229.52-1.75 229.82-1.65L229.82-1.65Q230.12-1.75 230.32-1.75L230.32-1.75Q230.62-1.75 230.85-1.68 231.07-1.6 231.37-1.6L231.37-1.6Q231.62-1.6 232.02-1.8 232.42-2 232.72-2.2L232.72-2.2 232.87-2.65Q232.52-3.25 232.52-3.7L232.52-3.7Q232.52-4.3 233.22-4.7L233.22-4.7Q233.07-5 233.07-5.25L233.07-5.25Q233.07-5.6 233.42-5.95L233.42-5.95Q232.97-6.2 232.97-6.6L232.97-6.6Q232.97-6.85 233.17-7.2L233.17-7.2Q233.27-7.3 233.32-7.4L233.32-7.4Q232.77-7.65 232.77-8.35L232.77-8.35Q232.77-8.95 233.37-9.05L233.37-9.05Q233.37-9.15 233.35-9.2 233.32-9.25 233.32-9.3L233.32-9.3Q233.32-9.6 233.47-9.8 233.62-10 233.82-10.15L233.82-10.15Q233.47-10.55 233.57-11L233.57-11Q233.37-11.2 232.92-11.1L232.92-11.1Q232.87-11.1 232.82-11.08 232.77-11.05 232.67-11.05L232.67-11.05Q232.37-10.95 232.27-10.95L232.27-10.95 231.77-11.05Q231.67-10.95 231.67-10.9L231.67-10.9Q231.12-10.4 230.7-10.3 230.27-10.2 230.27-10.2L230.27-10.2Q229.57-10.2 229.57-10.95L229.57-10.95Q229.57-11.2 229.75-11.43 229.92-11.65 230.27-11.65L230.27-11.65 230.42-11.65Q230.82-12.35 231.72-12.75 232.62-13.15 233.42-13.25L233.42-13.25Q233.67-13.4 233.92-13.55 234.17-13.7 234.37-13.85L234.37-13.85Q234.47-13.9 234.55-14 234.62-14.1 234.67-14.15L234.67-14.15 234.77-14.25Q234.82-14.3 234.82-14.33 234.82-14.35 234.82-14.35L234.82-14.35 235.22-14.6 235.67-14.85Q235.72-14.85 235.92-15.05L235.92-15.05Q236.07-15.2 236.35-15.45 236.62-15.7 236.82-15.65L236.82-15.65Q237.32-15.65 237.45-15.4 237.57-15.15 237.57-14.75L237.57-14.75Q237.62-14.4 237.57-14.3L237.57-14.3Q237.52-14.25 237.45-14.08 237.37-13.9 237.27-13.5L237.27-13.5Q237.07-12.85 236.9-12.08 236.72-11.3 236.52-10.55L236.52-10.55Q236.47-10.35 236.52-10.13 236.57-9.9 236.52-9.65L236.52-9.65Q236.42-9.15 236.32-8.68 236.22-8.2 236.17-7.7L236.17-7.7Q236.12-7.1 236.1-6.23 236.07-5.35 236.07-4.67 236.07-4 236.07-3.85L236.07-3.85Q236.07-3.7 236.15-3.2 236.22-2.7 236.32-2.35L236.32-2.35Q236.62-1.65 237.37-1.1L237.37-1.1Q237.47-1.05 237.62-1 237.77-0.95 237.87-0.9L237.87-0.9 238.47-0.75Q238.67-0.7 238.85-0.6 239.02-0.5 239.02-0.35L239.02-0.35 239.02-0.3Q239.02-0.05 238.77 0.18 238.52 0.4 238.27 0.4ZM249.58 3.05L249.58 3.05Q249.38 3.2 249.08 3.2L249.08 3.2Q248.38 3.2 248.38 2.55L248.38 2.55Q248.38 2.3 248.63 1.95L248.63 1.95Q249.33 1.2 249.63 0.85 249.93 0.5 250.98 0.3L250.98 0.3Q251.08 0.3 251.13 0.28 251.18 0.25 251.23 0.25L251.23 0.25Q251.53-0.15 251.93-0.85 252.33-1.55 252.6-2.33 252.88-3.1 252.73-3.6L252.73-3.6Q252.68-3.8 252.65-3.98 252.63-4.15 252.63-4.3L252.63-4.3Q252.63-5.05 253-5.5 253.38-5.95 253.43-6.35L253.43-6.35 253.73-6.6Q253.78-6.65 253.78-6.68 253.78-6.7 253.78-6.7L253.78-6.7Q253.78-6.9 253.38-7.1 252.98-7.3 252.98-7.65L252.98-7.65Q252.98-8.2 253.28-8.43 253.58-8.65 253.73-8.7L253.73-8.7 253.73-9.7Q253.73-9.95 253.78-10.25 253.83-10.55 254.03-10.75L254.03-10.75Q253.93-11 253.83-11.23 253.73-11.45 253.58-11.65L253.58-11.65Q252.93-11.35 252.18-11.3 251.43-11.25 250.73-11.15L250.73-11.15 250.58-11.15Q250.28-11.15 250.1-11.38 249.93-11.6 249.93-11.85L249.93-11.85Q249.93-12.1 250.08-12.3 250.23-12.5 250.53-12.55L250.53-12.55Q251.03-12.65 251.95-12.68 252.88-12.7 253.18-13.1L253.18-13.1 253.33-13.3Q253.53-13.55 253.8-13.7 254.08-13.85 254.43-13.75L254.43-13.75 255.08-13.55Q255.83-14.15 256.23-14.35 256.63-14.55 257.58-15.05L257.58-15.05Q257.98-15.2 258.13-15.2L258.13-15.2Q258.58-15.2 258.58-14.6L258.58-14.6Q258.58-14.15 258.4-13.6 258.23-13.05 258.08-12.65L258.08-12.65Q258.38-12.9 259-13.45 259.63-14 259.98-14.15L259.98-14.15Q260.23-14.55 260.53-14.8 260.83-15.05 261.33-15.05L261.33-15.05Q261.78-15.05 262.13-14.6L262.13-14.6 262.93-14.6Q263.13-14.7 263.33-14.78 263.53-14.85 263.78-14.85L263.78-14.85Q264.33-14.85 264.95-14.48 265.58-14.1 265.63-13.7L265.63-13.7Q265.88-13.5 266.13-13.38 266.38-13.25 266.53-13L266.53-13Q266.73-12.65 266.7-12.3 266.68-11.95 266.68-11.55L266.68-11.55Q266.68-10.95 266.68-10.03 266.68-9.1 266.53-8.35 266.38-7.6 265.98-7.5L265.98-7.5 265.68-7.5Q265.03-6.45 263.93-5.75 262.83-5.05 261.13-5.05L261.13-5.05Q260.98-5.05 260.93-5.1L260.93-5.1Q260.78-5.05 260.48-5.05L260.48-5.05Q259.68-5.05 259.35-5.48 259.03-5.9 258.93-6.5L258.93-6.5Q258.68-7.1 258.68-7.6L258.68-7.6Q258.68-8.35 258.98-9L258.98-9Q259.23-9.75 259.7-10.25 260.18-10.75 261.03-10.75L261.03-10.75Q261.48-10.75 261.98-10.6L261.98-10.6Q262.58-10.45 262.58-9.9L262.58-9.9Q262.58-9.6 262.33-9.38 262.08-9.15 261.63-9.2L261.63-9.2 261.43-9.2Q260.73-9.2 260.33-8.45L260.33-8.45 260.33-7.75Q260.33-7.65 260.3-7.43 260.28-7.2 260.28-7L260.28-7Q260.58-6.6 260.93-6.55L260.93-6.55Q261.53-6.65 262.25-6.8 262.98-6.95 263.23-7.05L263.23-7.05Q263.18-7.2 263.18-7.45L263.18-7.45Q263.18-8.15 264.03-8.55L264.03-8.55Q263.88-8.8 263.88-8.95L263.88-8.95Q263.88-9.55 264.68-10.1L264.68-10.1Q264.18-10.4 264.18-10.95L264.18-10.95Q264.18-11.25 264.28-11.35 264.38-11.45 264.43-11.6L264.43-11.6Q264.18-11.9 264.18-12.2L264.18-12.2Q264.18-12.35 264.23-12.48 264.28-12.6 264.28-12.65L264.28-12.65Q264.28-12.75 264.08-12.85 263.88-12.95 263.18-13.1L263.18-13.1Q262.98-13.05 262.73-12.95 262.48-12.85 262.23-12.85L262.23-12.85Q261.83-12.85 261.58-13.1L261.58-13.1Q261.38-13.05 261.2-13.03 261.03-13 260.88-12.9L260.88-12.9Q260.48-12.45 259.7-12 258.93-11.55 258.18-11.05L258.18-11.05Q257.68-10.55 257.33-9.95 256.98-9.35 256.68-8.65L256.68-8.65Q256.78-8.35 256.43-7.5 256.08-6.65 255.98-6.3L255.98-6.3Q255.83-5.05 255.8-4.3 255.78-3.55 255.78-2.85 255.78-2.15 255.63-1.05L255.63-1.05Q256.08-0.95 256.5-0.83 256.93-0.7 257.43-0.65L257.43-0.65 257.48-0.6Q257.88-0.6 258.08-0.2L258.08-0.2Q258.73-0.15 258.73 0.5L258.73 0.5Q258.73 0.75 258.53 1 258.33 1.25 257.93 1.2L257.93 1.2Q257.73 1.2 257 1.07 256.28 0.95 255.43 0.75L255.43 0.75Q255.23 0.75 255.03 0.78 254.83 0.8 254.63 0.85L254.63 0.85Q254.38 1.4 253.73 1.4L253.73 1.4 253.48 1.4Q252.98 1.65 252.5 1.9 252.03 2.15 251.38 2.2L251.38 2.2Q250.88 2.2 250.63 2.23 250.38 2.25 250.28 2.3L250.28 2.3Q250.28 2.3 250.18 2.4L250.18 2.4Q250.13 2.45 250.05 2.63 249.98 2.8 249.58 3.05ZM301.03 7.35L301.03 7.35Q300.03 7.35 298.91 6.83 297.78 6.3 296.98 5.43 296.18 4.55 296.03 3.5L296.03 3.5Q295.98 3.05 295.96 2.6 295.93 2.15 295.73 1.7L295.73 1.7Q295.33 1.3 295.01 1 294.68 0.7 294.68 0.05L294.68 0.05Q294.68-1.45 295.08-3.15 295.48-4.85 296.36-6.35 297.23-7.85 298.68-8.78 300.13-9.7 302.18-9.7L302.18-9.7Q302.63-9.7 302.88-9.35L302.88-9.35 303.28-9.35Q304.03-9.35 304.56-8.72 305.08-8.1 305.41-7.18 305.73-6.25 305.88-5.38 306.03-4.5 306.03-4L306.03-4Q306.03-2.4 304.96-1.63 303.88-0.85 302.58-0.4L302.58-0.4Q302.08-0.2 301.71-0.53 301.33-0.85 301.33-1.25L301.33-1.25Q301.33-1.9 301.98-2.1L301.98-2.1Q302.63-2.35 303.41-2.78 304.18-3.2 304.18-4L304.18-4Q304.18-4.4 304.06-5.1 303.93-5.8 303.71-6.5 303.48-7.2 303.18-7.5L303.18-7.5Q302.88-7.5 302.61-7.6 302.33-7.7 302.03-7.7L302.03-7.7Q301.48-7.7 300.71-7.45 299.93-7.2 299.36-6.7 298.78-6.2 298.78-5.45L298.78-5.45Q298.78-5.1 298.81-4.78 298.83-4.45 298.83-4.15L298.83-4.15Q298.83-3.6 298.66-3.13 298.48-2.65 297.93-2.25L297.93-2.25 297.63-2.05Q297.58-1.75 297.56-1.43 297.53-1.1 297.53-0.8L297.53-0.8Q297.53-0.35 297.56 0.1 297.58 0.55 297.58 1.05L297.58 1.05Q297.78 1.4 298.03 1.68 298.28 1.95 298.43 2.4L298.43 2.4Q298.83 3.75 299.43 4.53 300.03 5.3 301.28 5.45L301.28 5.45Q301.58 5.4 301.86 5.3 302.13 5.2 302.38 5.1L302.38 5.1Q302.58 5 302.78 4.9 302.98 4.8 303.33 4.75L303.33 4.75 303.38 4.7Q303.78 4.6 304.03 4.6L304.03 4.6 304.13 4.55Q305.03 4.3 305.41 3.83 305.78 3.35 306.08 2.8 306.38 2.25 307.13 1.9L307.13 1.9 307.33 1.8Q307.58 1.65 307.78 1.3L307.78 1.3Q307.78 1.15 307.93 0.45 308.08-0.25 308.31-1.15 308.53-2.05 308.73-2.83 308.93-3.6 308.98-3.9L308.98-3.9Q309.13-4.65 309.13-5.3L309.13-5.3Q309.13-6 309.13-6.68 309.13-7.35 309.33-8L309.33-8Q309.58-8.65 309.96-9.45 310.33-10.25 310.33-11L310.33-11Q310.33-11.3 310.28-11.45L310.28-11.45Q310.13-11.9 310.13-12.4L310.13-12.4Q310.13-13.25 310.73-13.65L310.73-13.65Q310.78-13.75 310.78-13.88 310.78-14 310.83-14.2L310.83-14.2 310.78-14.35Q310.23-14 309.93-14L309.93-14Q309.58-14 309.41-14.33 309.23-14.65 308.58-14.65L308.58-14.65Q308.28-14.65 308.08-14.78 307.88-14.9 307.68-15.1L307.68-15.1 306.93-15.1Q306.08-14.85 304.98-13.6L304.98-13.6Q304.73-13.35 304.58-13.3L304.58-13.3Q304.48-13.1 304.48-13.05L304.48-13.05Q304.48-12.6 304.21-12.35 303.93-12.1 303.58-12.1L303.58-12.1Q303.23-12.1 302.93-12.35 302.63-12.6 302.63-13.05L302.63-13.05Q302.63-13.95 303.28-14.8 303.93-15.65 304.88-16.25 305.83-16.85 306.68-16.9L306.68-16.9Q306.93-17 307.21-17 307.48-17 307.73-17L307.73-17Q308.03-17 308.18-16.95L308.18-16.95Q308.98-16.95 309.63-16.93 310.28-16.9 310.93-16.7L310.93-16.7Q311.08-17.1 311.18-17.5 311.28-17.9 311.28-18.3L311.28-18.3Q311.13-18.75 310.93-19.1 310.73-19.45 310.73-19.85L310.73-19.85Q310.73-20.3 310.98-20.65L310.98-20.65Q310.23-21.1 310.23-22.05L310.23-22.05Q310.23-22.25 310.26-22.43 310.28-22.6 310.23-22.8L310.23-22.8Q309.88-23.2 309.68-23.55 309.48-23.9 309.58-24.45L309.58-24.45Q309.73-25.1 309.18-26 308.63-26.9 307.81-27.6 306.98-28.3 306.18-28.3L306.18-28.3Q305.68-28.3 305.21-28.2 304.73-28.1 304.28-28L304.28-28Q304.33-27.2 304.63-27.13 304.93-27.05 305.43-27.05L305.43-27.05Q305.83-27.05 306.06-26.78 306.28-26.5 306.28-26.15L306.28-26.15Q306.28-25.85 306.06-25.58 305.83-25.3 305.43-25.25L305.43-25.25Q305.28-25.2 305.13-25.2 304.98-25.2 304.88-25.2L304.88-25.2Q303.48-25.2 302.93-26.23 302.38-27.25 302.38-28.4L302.38-28.4Q302.38-28.95 302.93-29.35L302.93-29.35Q302.93-29.4 303.03-29.5L303.03-29.5Q303.18-29.65 303.83-30.1 304.48-30.55 305.18-30.95 305.88-31.35 306.08-31.35L306.08-31.35Q306.63-31.35 307.13-31.1 307.63-30.85 308.13-30.85L308.13-30.85Q309.18-30.85 309.53-30.48 309.88-30.1 310.38-30.1L310.38-30.1Q310.78-30.1 311.03-29.83 311.28-29.55 311.28-29.15L311.28-29.15Q311.28-28.35 311.71-27.65 312.13-26.95 312.53-26.18 312.93-25.4 312.93-24.35L312.93-24.35Q312.93-24.15 312.91-23.95 312.88-23.75 312.83-23.5L312.83-23.5Q313.13-23.05 313.28-21.8 313.43-20.55 313.43-19.35L313.43-19.35Q313.43-17.75 313.18-17.15L313.18-17.15Q312.98-16.75 312.91-16.5 312.83-16.25 312.73-16L312.73-16Q312.93-15.9 312.98-15.85L312.98-15.85Q313.23-15.75 313.43-15.68 313.63-15.6 313.83-15.6L313.83-15.6Q314.03-15.7 314.23-15.78 314.43-15.85 314.63-15.85L314.63-15.85Q315.48-15.85 316.46-15.68 317.43-15.5 318.08-15.5L318.08-15.5Q318.23-15.5 318.51-15.65 318.78-15.8 319.18-15.8L319.18-15.8Q319.28-15.8 319.41-15.78 319.53-15.75 319.68-15.75L319.68-15.75 319.73-15.75Q319.48-16.15 319.81-16.7 320.13-17.25 320.48-17.5L320.48-17.5Q320.63-17.6 320.78-17.65 320.93-17.7 321.03-17.75L321.03-17.75Q321.03-17.85 320.98-17.95L320.98-17.95 320.93-18.25Q320.88-18.45 320.86-18.63 320.83-18.8 320.83-19L320.83-19Q320.83-19.8 321.38-20.35L321.38-20.35Q321.53-20.65 321.68-21.63 321.83-22.6 321.96-23.63 322.08-24.65 322.08-25.05L322.08-25.05Q322.08-26.2 322.13-26.95 322.18-27.7 323.13-28.35L323.13-28.35Q323.23-28.55 323.33-28.78 323.43-29 323.53-29.25L323.53-29.25 323.73-30.05Q323.98-31.05 324.23-31.73 324.48-32.4 325.08-32.75 325.68-33.1 327.03-33.1L327.03-33.1 327.18-33.1Q328.78-33.1 329.46-31.93 330.13-30.75 330.13-29.7L330.13-29.7Q330.13-28.75 329.91-28.43 329.68-28.1 328.83-27.7L328.83-27.7 328.73-27.6Q328.58-27.25 328.28-26.9 327.98-26.55 327.53-26.55L327.53-26.55Q326.78-26.55 326.46-26.95 326.13-27.35 326.13-27.8L326.13-27.8Q326.13-28.2 326.36-28.55 326.58-28.9 326.93-28.9L326.93-28.9Q327.13-28.9 327.33-28.75L327.33-28.75Q327.63-29.3 328.28-29.5L328.28-29.5 328.28-29.7Q328.28-30.45 327.96-30.88 327.63-31.3 327.18-31.3L327.18-31.3Q326.53-31.3 326.11-30.43 325.68-29.55 325.28-28.55L325.28-28.55Q324.53-25.6 323.83-22.6 323.13-19.6 323.13-16.55L323.13-16.55 323.13-15.95Q324.13-16.15 324.98-16.48 325.83-16.8 326.13-17.15L326.13-17.15Q326.43-17.55 326.51-18.35 326.58-19.15 326.71-19.85 326.83-20.55 327.18-20.55L327.18-20.55Q327.53-20.55 327.98-19.95L327.98-19.95Q328.43-19.35 328.43-18.6L328.43-18.6Q328.43-17.8 328.13-17.07 327.83-16.35 327.53-15.95L327.53-15.95Q326.93-15.2 325.63-14.75 324.33-14.3 322.98-14.05L322.98-14.05Q322.78-11.75 322.31-9.58 321.83-7.4 321.83-4.9L321.83-4.9Q321.83-3.6 322.08-2.5 322.33-1.4 322.73-0.35L322.73-0.35Q323.03-0.15 323.41 0.03 323.78 0.2 324.28 0.2L324.28 0.2Q324.93 0.2 325.56-0.43 326.18-1.05 326.58-1.83 326.98-2.6 326.98-3.1L326.98-3.1Q326.98-3.6 326.96-4.3 326.93-5 326.66-5.55 326.38-6.1 325.68-6.1L325.68-6.1Q325.63-6.1 325.33-5.8 325.03-5.5 325.03-4.95L325.03-4.95Q325.03-4.75 325.13-4.45L325.13-4.45 325.18-4.15 325.18-3.8Q325.18-3.35 324.91-3.1 324.63-2.85 324.28-2.85L324.28-2.85Q323.93-2.85 323.63-3.1 323.33-3.35 323.33-3.8L323.33-3.8 323.33-3.85 323.28-4.15Q323.23-4.4 323.21-4.6 323.18-4.8 323.18-4.95L323.18-4.95Q323.18-5.8 323.81-6.88 324.43-7.95 325.68-7.95L325.68-7.95Q327.08-7.95 327.76-7.18 328.43-6.4 328.63-5.28 328.83-4.15 328.83-3.1L328.83-3.1Q328.83-2.35 328.28-1.13 327.73 0.1 326.71 1.07 325.68 2.05 324.28 2.05L324.28 2.05Q323.38 2.05 322.63 1.75L322.63 1.75Q322.43 1.85 322.23 1.85L322.23 1.85Q321.63 1.85 321.43 1.3L321.43 1.3Q321.38 1.15 321.33 1.03 321.28 0.9 321.23 0.8L321.23 0.8Q320.28-0.2 319.86-1.75 319.43-3.3 319.36-4.93 319.28-6.55 319.28-7.8L319.28-7.8Q319.28-8.1 319.41-8.3 319.53-8.5 319.68-8.6L319.68-8.6Q319.58-8.85 319.46-9.08 319.33-9.3 319.33-9.6L319.33-9.6Q319.33-10.6 319.66-11.3 319.98-12 320.28-12.85L320.28-12.85Q319.63-13.3 319.63-13.9L319.63-13.9Q319.03-13.9 318.63-13.55L318.63-13.55Q318.38-13.35 318.06-13.2 317.73-13.05 317.23-13.05L317.23-13.05Q316.93-13.05 316.63-13.18 316.33-13.3 316.03-13.3L316.03-13.3Q315.68-13.3 315.33-13.13 314.98-12.95 314.58-12.95L314.58-12.95Q314.08-12.95 313.68-13.15 313.28-13.35 312.93-13.6L312.93-13.6 312.93-13.45Q312.93-13.1 312.76-12.8 312.58-12.5 312.08-12.25L312.08-12.25 311.98-12.2Q312.13-11.25 312.13-10.65L312.13-10.65Q312.13-9.85 311.86-9.3 311.58-8.75 311.13-7.4L311.13-7.4Q311.08-7.2 311.01-6.48 310.93-5.75 310.88-4.85 310.83-3.95 310.81-3.18 310.78-2.4 310.83-2.1L310.83-2.1Q310.88-1.9 310.88-1.75 310.88-1.6 310.88-1.45L310.88-1.45Q310.88-0.75 310.61-0.2 310.33 0.35 309.58 0.65L309.58 0.65Q309.58 0.65 309.48 1.2 309.38 1.75 309.11 2.4 308.83 3.05 308.28 3.35L308.28 3.35 308.08 3.5Q307.28 4.1 306.93 4.6 306.58 5.1 306.31 5.48 306.03 5.85 305.43 6.13 304.83 6.4 303.53 6.55L303.53 6.55 303.43 6.6Q303.08 6.9 302.78 7.1 302.48 7.3 301.93 7.3L301.93 7.3 301.33 7.3Q301.28 7.3 301.21 7.33 301.13 7.35 301.03 7.35ZM341.78-0.75L341.23-0.75Q340.48-0.75 340.03-1.33 339.58-1.9 339.41-2.65 339.23-3.4 339.23-4L339.23-4Q339.23-4.65 339.53-5.08 339.83-5.5 340.23-5.95L340.23-5.95 340.18-6Q339.78-6.4 339.78-6.85L339.78-6.85Q339.78-7.45 340.26-8 340.73-8.55 341.08-8.95L341.08-8.95Q341.93-9.95 343.23-10.3 344.53-10.65 345.78-10.65L345.78-10.65Q346.08-10.65 347.03-10.38 347.98-10.1 348.78-9.7L348.78-9.7Q348.78-10.15 348.76-10.58 348.73-11 348.58-11.5L348.58-11.5Q348.53-11.75 348.46-12.05 348.38-12.35 348.38-12.65L348.38-12.65Q348.38-13 348.53-13.3L348.53-13.3Q347.93-13.55 347.93-14.2L347.93-14.2Q347.93-16 346.68-16L346.68-16Q345.13-16 343.93-15.7L343.93-15.7Q343.28-15.4 342.83-14.83 342.38-14.25 341.73-13.25L341.73-13.25Q341.63-13.05 341.63-12.95L341.63-12.95Q341.73-12.75 341.81-12.58 341.88-12.4 341.98-12.25L341.98-12.25Q342.33-12 342.78-12L342.78-12Q342.78-12 343.01-12.25 343.23-12.5 343.23-12.55L343.23-12.55 343.23-12.75Q343.03-13 343.03-13.25L343.03-13.25Q343.03-13.85 343.78-13.85L343.78-13.85Q344.13-13.85 344.41-13.6 344.68-13.35 344.68-12.75L344.68-12.75 344.68-12.55Q344.68-12.05 344.08-11.3 343.48-10.55 342.78-10.55L342.78-10.55Q342.53-10.55 342.26-10.63 341.98-10.7 341.73-10.75L341.73-10.75Q341.53-10.75 341.33-10.85 341.13-10.95 340.88-11.25L340.88-11.25Q340.58-11.5 340.36-11.85 340.13-12.2 340.13-12.65L340.13-12.65Q340.08-12.9 340.01-13.08 339.93-13.25 339.93-13.3L339.93-13.3Q339.93-13.55 340.01-13.73 340.08-13.9 340.13-14.05L340.13-14.05Q339.93-14.4 340.13-14.7L340.13-14.7Q340.58-15.7 341.43-16.25 342.28-16.8 343.28-17.05L343.28-17.05Q344.08-17.45 344.96-17.55 345.83-17.65 346.88-17.65L346.88-17.65Q348.18-17.65 348.46-17.35 348.73-17.05 349.18-16.1L349.18-16.1Q350.13-15.65 350.56-15.18 350.98-14.7 351.13-13.4L351.13-13.4Q351.28-12.1 351.23-10.75 351.18-9.4 351.36-8.13 351.53-6.85 352.18-5.65L352.18-5.65Q352.23-5.5 352.43-5.2L352.43-5.2Q352.88-5.45 353.33-5.7 353.78-5.95 354.28-6L354.28-6 354.43-6Q354.78-6 354.96-5.78 355.13-5.55 355.13-5.3L355.13-5.3Q355.13-5.1 354.98-4.88 354.83-4.65 354.53-4.6L354.53-4.6Q354.23-4.55 353.58-4.15 352.93-3.75 352.33-3.55L352.33-3.55Q351.68-3.25 351.18-2.83 350.68-2.4 350.13-1.7L350.13-1.7Q349.83-1.4 349.48-1.4L349.48-1.4Q348.68-1.4 348.83-2.35L348.83-2.35Q348.88-2.45 348.96-3.05 349.03-3.65 349.08-4.35L349.08-4.35Q348.78-3.9 348.26-3.48 347.73-3.05 346.78-2.55L346.78-2.55Q346.68-2.5 346.41-2.38 346.13-2.25 345.98-2.2L345.98-2.2Q345.48-2 345.03-1.73 344.58-1.45 344.13-1.05L344.13-1.05Q343.93-0.85 343.66-0.75 343.38-0.65 342.93-0.65L342.93-0.65Q342.73-0.65 342.43-0.68 342.13-0.7 341.78-0.75L341.78-0.75ZM343.53-3.3L344.48-3.25Q344.73-3.25 344.83-3.3L344.83-3.3Q346.13-3.95 346.83-4.23 347.53-4.5 347.91-5.03 348.28-5.55 348.58-6.9L348.58-6.9Q348.58-7 348.61-7.13 348.63-7.25 348.63-7.45L348.63-7.45Q348.63-8.1 348.48-8.3L348.48-8.3Q347.83-9 346.93-9L346.93-9Q346.43-9 345.96-8.9 345.48-8.8 345.03-8.85L345.03-8.85Q344.93-8.2 344.33-8.2L344.33-8.2 344.08-8.2Q343.88-7.65 343.38-7.65L343.38-7.65 343.23-7.65Q343.03-6.95 342.53-6.48 342.03-6 342.03-5.2L342.03-5.2 342.03-4.85Q342.53-4.35 342.53-3.75L342.53-3.75Q342.83-3.65 343.06-3.48 343.28-3.3 343.48-3.3L343.48-3.3 343.53-3.3ZM374.89-18.9L374.89-18.9Q374.14-18.9 373.34-19.53 372.54-20.15 372.54-21.05L372.54-21.05Q372.54-21.45 372.99-21.9 373.44-22.35 373.74-22.6L373.74-22.6 374.44-23.15Q374.54-23.25 374.76-23.28 374.99-23.3 375.14-23.3L375.14-23.3Q375.79-23.3 376.24-22.68 376.69-22.05 376.69-21.6L376.69-21.6Q376.69-21.2 376.51-20.55 376.34-19.9 375.96-19.4 375.59-18.9 374.89-18.9ZM375.39 0.4L375.39 0.4Q375.39 0.4 375.09 0.3L375.09 0.3Q374.99 0.3 374.84 0.25 374.69 0.2 374.54 0.15L374.54 0.15Q374.19 0.05 373.89-0.03 373.59-0.1 373.49-0.1L373.49-0.1Q373.29-0.1 372.99 0L372.99 0Q372.69 0.1 372.59 0.1L372.59 0.1Q372.54 0.1 372.41 0.05 372.29 0 372.24 0L372.24 0Q372.09-0.05 371.94-0.1 371.79-0.15 371.59-0.15L371.59-0.15Q371.34-0.25 370.99-0.23 370.64-0.2 370.49-0.2L370.49-0.2 367.44-0.15Q367.29-0.15 367.24-0.2L367.24-0.2Q366.84 0 366.54 0L366.54 0 366.39 0Q366.04 0.5 365.69 0.5L365.69 0.5Q365.34 0.5 365.14 0.1 364.94-0.3 364.94-0.8L364.94-0.8Q364.94-1.5 365.64-1.5L365.64-1.5 365.79-1.5Q366.09-1.75 366.49-1.75L366.49-1.75Q366.64-1.75 366.94-1.65L366.94-1.65Q367.24-1.75 367.44-1.75L367.44-1.75Q367.74-1.75 367.96-1.68 368.19-1.6 368.49-1.6L368.49-1.6Q368.74-1.6 369.14-1.8 369.54-2 369.84-2.2L369.84-2.2 369.99-2.65Q369.64-3.25 369.64-3.7L369.64-3.7Q369.64-4.3 370.34-4.7L370.34-4.7Q370.19-5 370.19-5.25L370.19-5.25Q370.19-5.6 370.54-5.95L370.54-5.95Q370.09-6.2 370.09-6.6L370.09-6.6Q370.09-6.85 370.29-7.2L370.29-7.2Q370.39-7.3 370.44-7.4L370.44-7.4Q369.89-7.65 369.89-8.35L369.89-8.35Q369.89-8.95 370.49-9.05L370.49-9.05Q370.49-9.15 370.46-9.2 370.44-9.25 370.44-9.3L370.44-9.3Q370.44-9.6 370.59-9.8 370.74-10 370.94-10.15L370.94-10.15Q370.59-10.55 370.69-11L370.69-11Q370.49-11.2 370.04-11.1L370.04-11.1Q369.99-11.1 369.94-11.08 369.89-11.05 369.79-11.05L369.79-11.05Q369.49-10.95 369.39-10.95L369.39-10.95 368.89-11.05Q368.79-10.95 368.79-10.9L368.79-10.9Q368.24-10.4 367.81-10.3 367.39-10.2 367.39-10.2L367.39-10.2Q366.69-10.2 366.69-10.95L366.69-10.95Q366.69-11.2 366.86-11.43 367.04-11.65 367.39-11.65L367.39-11.65 367.54-11.65Q367.94-12.35 368.84-12.75 369.74-13.15 370.54-13.25L370.54-13.25Q370.79-13.4 371.04-13.55 371.29-13.7 371.49-13.85L371.49-13.85Q371.59-13.9 371.66-14 371.74-14.1 371.79-14.15L371.79-14.15 371.89-14.25Q371.94-14.3 371.94-14.33 371.94-14.35 371.94-14.35L371.94-14.35 372.34-14.6 372.79-14.85Q372.84-14.85 373.04-15.05L373.04-15.05Q373.19-15.2 373.46-15.45 373.74-15.7 373.94-15.65L373.94-15.65Q374.44-15.65 374.56-15.4 374.69-15.15 374.69-14.75L374.69-14.75Q374.74-14.4 374.69-14.3L374.69-14.3Q374.64-14.25 374.56-14.08 374.49-13.9 374.39-13.5L374.39-13.5Q374.19-12.85 374.01-12.08 373.84-11.3 373.64-10.55L373.64-10.55Q373.59-10.35 373.64-10.13 373.69-9.9 373.64-9.65L373.64-9.65Q373.54-9.15 373.44-8.68 373.34-8.2 373.29-7.7L373.29-7.7Q373.24-7.1 373.21-6.23 373.19-5.35 373.19-4.67 373.19-4 373.19-3.85L373.19-3.85Q373.19-3.7 373.26-3.2 373.34-2.7 373.44-2.35L373.44-2.35Q373.74-1.65 374.49-1.1L374.49-1.1Q374.59-1.05 374.74-1 374.89-0.95 374.99-0.9L374.99-0.9 375.59-0.75Q375.79-0.7 375.96-0.6 376.14-0.5 376.14-0.35L376.14-0.35 376.14-0.3Q376.14-0.05 375.89 0.18 375.64 0.4 375.39 0.4ZM387.59 2.85L387.59 2.85Q387.24 2.85 387.07 2.63 386.89 2.4 386.89 2.15L386.89 2.15Q386.89 1.65 387.39 1.45L387.39 1.45 388.24 1.15Q388.64 1 389.04 0.8 389.44 0.6 389.79 0.4L389.79 0.4Q390.69-0.5 390.82-1.68 390.94-2.85 390.92-3.9 390.89-4.95 391.34-5.55L391.34-5.55Q390.64-6.1 390.64-6.6L390.64-6.6Q390.64-7 390.94-7.2L390.94-7.2Q390.99-7.6 391.12-8.08 391.24-8.55 391.29-8.9L391.29-8.9 389.59-8.9Q389.39-8.85 389.24-8.78 389.09-8.7 388.89-8.65L388.89-8.65Q388.84-8.65 388.79-8.63 388.74-8.6 388.64-8.6L388.64-8.6Q388.34-8.6 388.17-8.85 387.99-9.1 387.99-9.35L387.99-9.35Q387.99-9.75 388.29-9.95L388.29-9.95Q388.49-10.25 388.84-10.3L388.84-10.3Q389.09-10.35 389.29-10.4 389.49-10.45 389.69-10.5L389.69-10.5Q390.84-11.05 391.72-11.85 392.59-12.65 393.49-13.38 394.39-14.1 395.54-14.5L395.54-14.5Q395.69-14.55 395.89-14.55L395.89-14.55Q396.59-14.55 396.59-13.95L396.59-13.95Q396.59-13.7 396.34-13.35L396.34-13.35Q396.04-13 395.52-12.35 394.99-11.7 394.57-10.95 394.14-10.2 394.14-9.55L394.14-9.55Q394.14-9.45 394.17-9.35 394.19-9.25 394.24-9.15L394.24-9.15Q394.59-8.35 394.59-7.75L394.59-7.75Q394.89-8.5 395.14-8.8 395.39-9.1 395.74-9.3 396.09-9.5 396.59-9.9L396.59-9.9 396.59-10Q396.59-10.55 397.19-10.7L397.19-10.7 397.39-10.75Q397.79-11.3 398.22-11.73 398.64-12.15 399.44-12.45L399.44-12.45 399.44-12.55Q399.64-13.25 400.54-13.25L400.54-13.25Q402.84-13.25 403.59-11.98 404.34-10.7 404.34-8.85L404.34-8.85Q404.34-7.3 404.04-5.55 403.74-3.8 403.74-2.4L403.74-2.4Q403.74-1.7 403.89-1.15L403.89-1.15Q403.94-1.05 404.42-0.68 404.89-0.3 405.39-0.05L405.39-0.05 405.64 0 405.94 0.05 406.09 0.1Q406.09 0.2 406.44 0.55 406.79 0.9 406.79 1.15L406.79 1.15Q406.79 1.55 405.89 1.55L405.89 1.55Q405.69 1.55 405.49 1.48 405.29 1.4 405.04 1.35L405.04 1.35Q404.54 1.25 404.09 1.15 403.64 1.05 403.14 1L403.14 1 402.74 0.95Q402.69 0.95 402.64 0.93 402.59 0.9 402.59 0.9L402.59 0.9Q401.99 0.9 400.97 0.98 399.94 1.05 399.14 1.3L399.14 1.3Q398.89 1.4 398.69 1.53 398.49 1.65 398.29 1.75L398.29 1.75Q398.14 1.85 397.84 1.85L397.84 1.85Q397.14 1.85 397.14 1.2L397.14 1.2Q397.14 0.85 397.49 0.55L397.49 0.55Q397.94 0.2 398.64-0.05L398.64-0.05Q399.29-0.35 399.94-0.75 400.59-1.15 400.64-1.45L400.64-1.45Q400.59-1.55 400.52-1.65 400.44-1.75 400.34-1.8L400.34-1.8Q399.89-2.35 399.89-2.85L399.89-2.85Q399.89-3.35 400.17-3.6 400.44-3.85 400.59-3.95L400.59-3.95Q400.29-4.2 400.29-4.6L400.29-4.6Q400.29-5.15 400.62-5.83 400.94-6.5 400.94-6.95L400.94-6.95Q400.94-7.7 400.64-8.2 400.34-8.7 400.02-9.15 399.69-9.6 399.59-10.25L399.59-10.25Q399.24-10.05 398.87-9.83 398.49-9.6 398.09-9.4L398.09-9.4Q397.84-9.15 397.57-8.9 397.29-8.65 396.94-8.4L396.94-8.4Q396.74-8.25 396.54-8.1 396.34-7.95 396.09-7.7L396.09-7.7Q395.84-7.05 395.72-6.8 395.59-6.55 394.94-6L394.94-6Q394.39-5.5 394.19-5.15L394.19-5.15 394.19-5Q394.19-4.85 394.22-4.67 394.24-4.5 394.24-4.35L394.24-4.35Q394.24-3.5 394.07-2.65 393.89-1.8 393.79-0.95L393.79-0.95Q394.39-0.85 394.69-0.28 394.99 0.3 395.39 0.6L395.39 0.6Q395.69 0.75 395.94 1L395.94 1Q396.19 1.2 396.19 1.55L396.19 1.55Q396.19 1.85 395.97 2.08 395.74 2.3 395.49 2.3L395.49 2.3Q395.24 2.3 395.04 2.1L395.04 2.1Q394.74 1.9 394.54 1.85L394.54 1.85Q394.04 2.05 393.47 1.68 392.89 1.3 392.04 1.3L392.04 1.3Q391.69 1.3 391.32 1.4 390.94 1.5 390.59 1.65L390.59 1.65Q390.34 1.85 389.99 2.02 389.64 2.2 389.24 2.35L389.24 2.35 388.79 2.5Q388.59 2.55 388.34 2.65 388.09 2.75 387.84 2.8L387.84 2.8Q387.79 2.8 387.74 2.83 387.69 2.85 387.59 2.85ZM449.75-20.45L449.75-20.45Q449.55-20.45 449.37-20.45 449.2-20.45 449-20.5L449-20.5 448.85-20.5Q448.5-20.5 448.1-20.8L448.1-20.8Q447.9-20.9 447.7-21.05L447.7-21.05Q447.6-21 447.5-20.98 447.4-20.95 447.3-20.95L447.3-20.95Q446.35-20.95 446.05-21.48 445.75-22 445.45-22.65L445.45-22.65Q445.35-23.15 445.32-23.43 445.3-23.7 445.3-23.9L445.3-23.9Q444.6-24.25 444.6-25L444.6-25Q444.6-25.75 445.35-26.15L445.35-26.15Q444.8-26.6 444.8-27.15L444.8-27.15Q444.8-28 445.9-28.35L445.9-28.35Q445.85-28.45 445.85-28.6 445.85-28.75 445.85-28.85L445.85-28.85Q445.85-29.85 446.92-30.5 448-31.15 448.8-31.45L448.8-31.45Q449.05-31.95 449.37-32.27 449.7-32.6 450.15-32.6L450.15-32.6Q450.55-32.6 451-32.3L451-32.3Q451.5-32.55 451.7-32.85 451.9-33.15 452.65-33.15L452.65-33.15Q452.85-33.15 453-33.08 453.15-33 453.3-33L453.3-33Q453.65-33 453.95-33.18 454.25-33.35 454.6-33.35L454.6-33.35Q455.3-33.35 455.75-32.9L455.75-32.9 455.8-32.85 456.05-32.85Q456.35-32.95 456.67-33.1 457-33.25 457.35-33.25L457.35-33.25Q458.05-33.25 458.62-33 459.2-32.75 459.85-32.75L459.85-32.75Q460.7-32.75 461.22-32.35 461.75-31.95 462.15-31.95L462.15-31.95Q462.55-31.95 462.87-31.9 463.2-31.85 463.55-31.75L463.55-31.75Q464-31.7 464.47-31.7 464.95-31.7 465.4-31.65L465.4-31.65 465.6-31.65Q465.95-31.65 466.1-31.55L466.1-31.55Q466.35-31.5 466.6-31.4 466.85-31.3 467.05-31.2L467.05-31.2 467.5-30.95Q468.05-30.6 468.25-30.6L468.25-30.6Q468.65-30.6 468.87-30.95 469.1-31.3 469.3-31.55L469.3-31.55Q469.7-32 470.2-32L470.2-32Q470.8-32 470.8-31.45L470.8-31.45Q470.8-31.2 470.5-30.8L470.5-30.8Q470.15-30.4 469.4-29.83 468.65-29.25 467.7-29.25L467.7-29.25Q467.25-29.25 466.87-29.38 466.5-29.5 466.1-29.65L466.1-29.65 465.55-29.8Q465.4-29.8 465.27-29.73 465.15-29.65 464.95-29.65L464.95-29.65Q464.25-29.65 463.55-29.85 462.85-30.05 462.15-30.05L462.15-30.05Q461.35-30.05 460.77-30.45 460.2-30.85 459.85-30.85L459.85-30.85Q459.2-30.85 458.57-31.1 457.95-31.35 457.25-31.35L457.25-31.35Q456.85-31.2 456.5-31.05 456.15-30.9 455.8-30.9L455.8-30.9Q455.35-30.9 454.8-31.3L454.8-31.3 454.75-31.3Q454.05-31.3 453.35-31.15 452.65-31 452.05-30.75L452.05-30.75Q451.7-30.5 451.25-30.4L451.25-30.4Q449.85-29.75 449.07-28.53 448.3-27.3 448.3-25.4L448.3-25.4Q448.3-24.75 448.32-24.1 448.35-23.45 448.5-22.9L448.5-22.9Q448.95-22.75 449.3-22.25L449.3-22.25Q449.55-22.15 449.7-21.9L449.7-21.9 450.5-21.9Q450.8-21.9 451.12-21.93 451.45-21.95 451.65-22L451.65-22Q451.9-22.1 452.07-22.35 452.25-22.6 452.55-23.25L452.55-23.25Q453-24.1 453-25.25L453-25.25Q453-25.95 452.8-26.4L452.8-26.4Q452.75-26.55 452.72-26.7 452.7-26.85 452.7-27L452.7-27Q452.7-27.5 452.95-27.83 453.2-28.15 453.45-28.15L453.45-28.15Q453.8-28.15 454-27.65L454-27.65Q454.4-26.55 454.5-26.1 454.6-25.65 454.6-24.55L454.6-24.55Q454.6-22.4 453.3-21.43 452-20.45 449.75-20.45ZM446.05 13.85L446.05 13.85Q445.25 13.85 444.62 13.7 444 13.55 443.45 13.35L443.45 13.35Q442.95 13.15 442.47 12.95 442 12.75 441.45 12.6L441.45 12.6Q438.4 11.8 437.1 9.65 435.8 7.5 435.8 3.75L435.8 3.75Q435.8 1.45 436.42-0.13 437.05-1.7 438.07-2.88 439.1-4.05 440.35-5.1L440.35-5.1Q441.7-6.25 442.85-7.1 444-7.95 446-7.95L446-7.95Q447.75-7.95 448.75-6.85 449.75-5.75 450.17-4.13 450.6-2.5 450.6-0.95L450.6-0.95Q450.6 3.05 446.95 3.05L446.95 3.05Q445.85 3.05 445.25 2.68 444.65 2.3 444.4 1.3L444.4 1.3Q444.25 0.75 444.6 0.4 444.95 0.05 445.4 0.05L445.4 0.05Q445.75 0.05 446.05 0.25 446.35 0.45 446.4 0.85L446.4 0.85Q446.45 1 446.42 1.13 446.4 1.25 446.35 1.4L446.35 1.4Q447.35 1.35 447.92 0.68 448.5 0 448.5-1.1L448.5-1.1Q448.5-2.7 448.07-3.3 447.65-3.9 446.05-3.9L446.05-3.9Q445.05-3.9 444.47-4.1 443.9-4.3 443.4-4.3L443.4-4.3Q442.85-4.3 442.15-3.75L442.15-3.75Q441.45-3.15 440.77-1.9 440.1-0.65 439.4 0.05L439.4 0.05Q438.75 0.7 438.32 1.58 437.9 2.45 437.9 3.9L437.9 3.9Q437.9 6.8 438.82 8.38 439.75 9.95 441.9 10.6L441.9 10.6Q442.45 10.75 442.9 10.95 443.35 11.15 443.8 11.35L443.8 11.35Q444.3 11.55 444.82 11.68 445.35 11.8 446.05 11.8L446.05 11.8Q448.15 11.8 450.25 10.78 452.35 9.75 454.15 8.38 455.95 7 457.05 5.95L457.05 5.95Q458 5.05 458.55 3.95 459.1 2.85 459.6 1.5L459.6 1.5Q460.05 0.2 460.27-0.7 460.5-1.6 460.65-2.5L460.65-2.5Q460.8-3.35 460.92-4.42 461.05-5.5 461.3-7.15L461.3-7.15 460.65-11.55 457.55-25.05Q457.6-25.85 457.65-26.55 457.7-27.25 457.8-27.85L457.8-27.85Q457.95-28.5 458.25-29.03 458.55-29.55 459.1-29.9L459.1-29.9Q459.2-30 459.5-30L459.5-30Q459.9-30 460.35-29.73 460.8-29.45 461.2-29.05L461.2-29.05Q461.9-28.35 461.9-27.6L461.9-27.6Q461.9-27.2 461.65-27.05L461.65-27.05Q461.6-27 461.5-26.9 461.4-26.8 461.35-26.7L461.35-26.7Q461.3-25.85 461.65-25.03 462-24.2 461.8-23.2L461.8-23.2Q461.75-22.85 462.02-22.58 462.3-22.3 462.3-21.9L462.3-21.9Q462.3-21.7 462.15-21.4L462.15-21.4Q462.55-21 462.55-20.55L462.55-20.55Q462.55-20.25 462.4-19.95L462.4-19.95Q462.9-19.6 462.9-19.15L462.9-19.15Q462.9-18.7 462.77-18.43 462.65-18.15 462.5-17.75L462.5-17.75Q463.3-17.45 463.3-16.55L463.3-16.55Q463.3-16.1 462.95-15.55L462.95-15.55 463-15.5Q463.55-14.95 463.55-14.25L463.55-14.25Q463.55-13.75 463.32-13.25 463.1-12.75 462.8-12.35L462.8-12.35 462.9-11.9 462.9-11.85Q463.25-11.5 463.37-10.85 463.5-10.2 463.5-9.45L463.5-9.45Q463.5-8.35 463.35-7.15L463.35-7.15 463.45-5.9Q463.15-4.2 463-3.2 462.85-2.2 462.7-1.48 462.55-0.75 462.27 0.08 462 0.9 461.55 2.2L461.55 2.2Q461 3.8 460.27 5.08 459.55 6.35 458.5 7.4L458.5 7.4Q457.25 8.6 455.22 10.13 453.2 11.65 450.82 12.75 448.45 13.85 446.05 13.85ZM478-0.75L477.45-0.75Q476.7-0.75 476.25-1.33 475.8-1.9 475.63-2.65 475.45-3.4 475.45-4L475.45-4Q475.45-4.65 475.75-5.08 476.05-5.5 476.45-5.95L476.45-5.95 476.4-6Q476-6.4 476-6.85L476-6.85Q476-7.45 476.48-8 476.95-8.55 477.3-8.95L477.3-8.95Q478.15-9.95 479.45-10.3 480.75-10.65 482-10.65L482-10.65Q482.3-10.65 483.25-10.38 484.2-10.1 485-9.7L485-9.7Q485-10.15 484.98-10.58 484.95-11 484.8-11.5L484.8-11.5Q484.75-11.75 484.68-12.05 484.6-12.35 484.6-12.65L484.6-12.65Q484.6-13 484.75-13.3L484.75-13.3Q484.15-13.55 484.15-14.2L484.15-14.2Q484.15-16 482.9-16L482.9-16Q481.35-16 480.15-15.7L480.15-15.7Q479.5-15.4 479.05-14.83 478.6-14.25 477.95-13.25L477.95-13.25Q477.85-13.05 477.85-12.95L477.85-12.95Q477.95-12.75 478.03-12.58 478.1-12.4 478.2-12.25L478.2-12.25Q478.55-12 479-12L479-12Q479-12 479.23-12.25 479.45-12.5 479.45-12.55L479.45-12.55 479.45-12.75Q479.25-13 479.25-13.25L479.25-13.25Q479.25-13.85 480-13.85L480-13.85Q480.35-13.85 480.63-13.6 480.9-13.35 480.9-12.75L480.9-12.75 480.9-12.55Q480.9-12.05 480.3-11.3 479.7-10.55 479-10.55L479-10.55Q478.75-10.55 478.48-10.63 478.2-10.7 477.95-10.75L477.95-10.75Q477.75-10.75 477.55-10.85 477.35-10.95 477.1-11.25L477.1-11.25Q476.8-11.5 476.58-11.85 476.35-12.2 476.35-12.65L476.35-12.65Q476.3-12.9 476.23-13.08 476.15-13.25 476.15-13.3L476.15-13.3Q476.15-13.55 476.23-13.73 476.3-13.9 476.35-14.05L476.35-14.05Q476.15-14.4 476.35-14.7L476.35-14.7Q476.8-15.7 477.65-16.25 478.5-16.8 479.5-17.05L479.5-17.05Q480.3-17.45 481.18-17.55 482.05-17.65 483.1-17.65L483.1-17.65Q484.4-17.65 484.68-17.35 484.95-17.05 485.4-16.1L485.4-16.1Q486.35-15.65 486.78-15.18 487.2-14.7 487.35-13.4L487.35-13.4Q487.5-12.1 487.45-10.75 487.4-9.4 487.58-8.13 487.75-6.85 488.4-5.65L488.4-5.65Q488.45-5.5 488.65-5.2L488.65-5.2Q489.1-5.45 489.55-5.7 490-5.95 490.5-6L490.5-6 490.65-6Q491-6 491.18-5.78 491.35-5.55 491.35-5.3L491.35-5.3Q491.35-5.1 491.2-4.88 491.05-4.65 490.75-4.6L490.75-4.6Q490.45-4.55 489.8-4.15 489.15-3.75 488.55-3.55L488.55-3.55Q487.9-3.25 487.4-2.83 486.9-2.4 486.35-1.7L486.35-1.7Q486.05-1.4 485.7-1.4L485.7-1.4Q484.9-1.4 485.05-2.35L485.05-2.35Q485.1-2.45 485.18-3.05 485.25-3.65 485.3-4.35L485.3-4.35Q485-3.9 484.48-3.48 483.95-3.05 483-2.55L483-2.55Q482.9-2.5 482.63-2.38 482.35-2.25 482.2-2.2L482.2-2.2Q481.7-2 481.25-1.73 480.8-1.45 480.35-1.05L480.35-1.05Q480.15-0.85 479.88-0.75 479.6-0.65 479.15-0.65L479.15-0.65Q478.95-0.65 478.65-0.68 478.35-0.7 478-0.75L478-0.75ZM479.75-3.3L480.7-3.25Q480.95-3.25 481.05-3.3L481.05-3.3Q482.35-3.95 483.05-4.23 483.75-4.5 484.13-5.03 484.5-5.55 484.8-6.9L484.8-6.9Q484.8-7 484.83-7.13 484.85-7.25 484.85-7.45L484.85-7.45Q484.85-8.1 484.7-8.3L484.7-8.3Q484.05-9 483.15-9L483.15-9Q482.65-9 482.18-8.9 481.7-8.8 481.25-8.85L481.25-8.85Q481.15-8.2 480.55-8.2L480.55-8.2 480.3-8.2Q480.1-7.65 479.6-7.65L479.6-7.65 479.45-7.65Q479.25-6.95 478.75-6.48 478.25-6 478.25-5.2L478.25-5.2 478.25-4.85Q478.75-4.35 478.75-3.75L478.75-3.75Q479.05-3.65 479.28-3.48 479.5-3.3 479.7-3.3L479.7-3.3 479.75-3.3ZM501.9 2.85L501.9 2.85Q501.55 2.85 501.38 2.63 501.2 2.4 501.2 2.15L501.2 2.15Q501.2 1.65 501.7 1.45L501.7 1.45 502.55 1.15Q502.95 1 503.35 0.8 503.75 0.6 504.1 0.4L504.1 0.4Q505-0.5 505.13-1.68 505.25-2.85 505.23-3.9 505.2-4.95 505.65-5.55L505.65-5.55Q504.95-6.1 504.95-6.6L504.95-6.6Q504.95-7 505.25-7.2L505.25-7.2Q505.3-7.6 505.43-8.08 505.55-8.55 505.6-8.9L505.6-8.9 503.9-8.9Q503.7-8.85 503.55-8.78 503.4-8.7 503.2-8.65L503.2-8.65Q503.15-8.65 503.1-8.63 503.05-8.6 502.95-8.6L502.95-8.6Q502.65-8.6 502.48-8.85 502.3-9.1 502.3-9.35L502.3-9.35Q502.3-9.75 502.6-9.95L502.6-9.95Q502.8-10.25 503.15-10.3L503.15-10.3Q503.4-10.35 503.6-10.4 503.8-10.45 504-10.5L504-10.5Q505.15-11.05 506.03-11.85 506.9-12.65 507.8-13.38 508.7-14.1 509.85-14.5L509.85-14.5Q510-14.55 510.2-14.55L510.2-14.55Q510.9-14.55 510.9-13.95L510.9-13.95Q510.9-13.7 510.65-13.35L510.65-13.35Q510.35-13 509.83-12.35 509.3-11.7 508.88-10.95 508.45-10.2 508.45-9.55L508.45-9.55Q508.45-9.45 508.48-9.35 508.5-9.25 508.55-9.15L508.55-9.15Q508.9-8.35 508.9-7.75L508.9-7.75Q509.2-8.5 509.45-8.8 509.7-9.1 510.05-9.3 510.4-9.5 510.9-9.9L510.9-9.9 510.9-10Q510.9-10.55 511.5-10.7L511.5-10.7 511.7-10.75Q512.1-11.3 512.53-11.73 512.95-12.15 513.75-12.45L513.75-12.45 513.75-12.55Q513.95-13.25 514.85-13.25L514.85-13.25Q517.15-13.25 517.9-11.98 518.65-10.7 518.65-8.85L518.65-8.85Q518.65-7.3 518.35-5.55 518.05-3.8 518.05-2.4L518.05-2.4Q518.05-1.7 518.2-1.15L518.2-1.15Q518.25-1.05 518.73-0.68 519.2-0.3 519.7-0.05L519.7-0.05 519.95 0 520.25 0.05 520.4 0.1Q520.4 0.2 520.75 0.55 521.1 0.9 521.1 1.15L521.1 1.15Q521.1 1.55 520.2 1.55L520.2 1.55Q520 1.55 519.8 1.48 519.6 1.4 519.35 1.35L519.35 1.35Q518.85 1.25 518.4 1.15 517.95 1.05 517.45 1L517.45 1 517.05 0.95Q517 0.95 516.95 0.93 516.9 0.9 516.9 0.9L516.9 0.9Q516.3 0.9 515.28 0.98 514.25 1.05 513.45 1.3L513.45 1.3Q513.2 1.4 513 1.53 512.8 1.65 512.6 1.75L512.6 1.75Q512.45 1.85 512.15 1.85L512.15 1.85Q511.45 1.85 511.45 1.2L511.45 1.2Q511.45 0.85 511.8 0.55L511.8 0.55Q512.25 0.2 512.95-0.05L512.95-0.05Q513.6-0.35 514.25-0.75 514.9-1.15 514.95-1.45L514.95-1.45Q514.9-1.55 514.83-1.65 514.75-1.75 514.65-1.8L514.65-1.8Q514.2-2.35 514.2-2.85L514.2-2.85Q514.2-3.35 514.48-3.6 514.75-3.85 514.9-3.95L514.9-3.95Q514.6-4.2 514.6-4.6L514.6-4.6Q514.6-5.15 514.93-5.83 515.25-6.5 515.25-6.95L515.25-6.95Q515.25-7.7 514.95-8.2 514.65-8.7 514.33-9.15 514-9.6 513.9-10.25L513.9-10.25Q513.55-10.05 513.18-9.83 512.8-9.6 512.4-9.4L512.4-9.4Q512.15-9.15 511.88-8.9 511.6-8.65 511.25-8.4L511.25-8.4Q511.05-8.25 510.85-8.1 510.65-7.95 510.4-7.7L510.4-7.7Q510.15-7.05 510.03-6.8 509.9-6.55 509.25-6L509.25-6Q508.7-5.5 508.5-5.15L508.5-5.15 508.5-5Q508.5-4.85 508.53-4.67 508.55-4.5 508.55-4.35L508.55-4.35Q508.55-3.5 508.38-2.65 508.2-1.8 508.1-0.95L508.1-0.95Q508.7-0.85 509-0.28 509.3 0.3 509.7 0.6L509.7 0.6Q510 0.75 510.25 1L510.25 1Q510.5 1.2 510.5 1.55L510.5 1.55Q510.5 1.85 510.28 2.08 510.05 2.3 509.8 2.3L509.8 2.3Q509.55 2.3 509.35 2.1L509.35 2.1Q509.05 1.9 508.85 1.85L508.85 1.85Q508.35 2.05 507.78 1.68 507.2 1.3 506.35 1.3L506.35 1.3Q506 1.3 505.63 1.4 505.25 1.5 504.9 1.65L504.9 1.65Q504.65 1.85 504.3 2.02 503.95 2.2 503.55 2.35L503.55 2.35 503.1 2.5Q502.9 2.55 502.65 2.65 502.4 2.75 502.15 2.8L502.15 2.8Q502.1 2.8 502.05 2.83 502 2.85 501.9 2.85ZM534.11-0.75L533.56-0.75Q532.81-0.75 532.36-1.33 531.91-1.9 531.73-2.65 531.56-3.4 531.56-4L531.56-4Q531.56-4.65 531.86-5.08 532.16-5.5 532.56-5.95L532.56-5.95 532.51-6Q532.11-6.4 532.11-6.85L532.11-6.85Q532.11-7.45 532.58-8 533.06-8.55 533.41-8.95L533.41-8.95Q534.26-9.95 535.56-10.3 536.86-10.65 538.11-10.65L538.11-10.65Q538.41-10.65 539.36-10.38 540.31-10.1 541.11-9.7L541.11-9.7Q541.11-10.15 541.08-10.58 541.06-11 540.91-11.5L540.91-11.5Q540.86-11.75 540.78-12.05 540.71-12.35 540.71-12.65L540.71-12.65Q540.71-13 540.86-13.3L540.86-13.3Q540.26-13.55 540.26-14.2L540.26-14.2Q540.26-16 539.01-16L539.01-16Q537.46-16 536.26-15.7L536.26-15.7Q535.61-15.4 535.16-14.83 534.71-14.25 534.06-13.25L534.06-13.25Q533.96-13.05 533.96-12.95L533.96-12.95Q534.06-12.75 534.13-12.58 534.21-12.4 534.31-12.25L534.31-12.25Q534.66-12 535.11-12L535.11-12Q535.11-12 535.33-12.25 535.56-12.5 535.56-12.55L535.56-12.55 535.56-12.75Q535.36-13 535.36-13.25L535.36-13.25Q535.36-13.85 536.11-13.85L536.11-13.85Q536.46-13.85 536.73-13.6 537.01-13.35 537.01-12.75L537.01-12.75 537.01-12.55Q537.01-12.05 536.41-11.3 535.81-10.55 535.11-10.55L535.11-10.55Q534.86-10.55 534.58-10.63 534.31-10.7 534.06-10.75L534.06-10.75Q533.86-10.75 533.66-10.85 533.46-10.95 533.21-11.25L533.21-11.25Q532.91-11.5 532.68-11.85 532.46-12.2 532.46-12.65L532.46-12.65Q532.41-12.9 532.33-13.08 532.26-13.25 532.26-13.3L532.26-13.3Q532.26-13.55 532.33-13.73 532.41-13.9 532.46-14.05L532.46-14.05Q532.26-14.4 532.46-14.7L532.46-14.7Q532.91-15.7 533.76-16.25 534.61-16.8 535.61-17.05L535.61-17.05Q536.41-17.45 537.28-17.55 538.16-17.65 539.21-17.65L539.21-17.65Q540.51-17.65 540.78-17.35 541.06-17.05 541.51-16.1L541.51-16.1Q542.46-15.65 542.88-15.18 543.31-14.7 543.46-13.4L543.46-13.4Q543.61-12.1 543.56-10.75 543.51-9.4 543.68-8.13 543.86-6.85 544.51-5.65L544.51-5.65Q544.56-5.5 544.76-5.2L544.76-5.2Q545.21-5.45 545.66-5.7 546.11-5.95 546.61-6L546.61-6 546.76-6Q547.11-6 547.28-5.78 547.46-5.55 547.46-5.3L547.46-5.3Q547.46-5.1 547.31-4.88 547.16-4.65 546.86-4.6L546.86-4.6Q546.56-4.55 545.91-4.15 545.26-3.75 544.66-3.55L544.66-3.55Q544.01-3.25 543.51-2.83 543.01-2.4 542.46-1.7L542.46-1.7Q542.16-1.4 541.81-1.4L541.81-1.4Q541.01-1.4 541.16-2.35L541.16-2.35Q541.21-2.45 541.28-3.05 541.36-3.65 541.41-4.35L541.41-4.35Q541.11-3.9 540.58-3.48 540.06-3.05 539.11-2.55L539.11-2.55Q539.01-2.5 538.73-2.38 538.46-2.25 538.31-2.2L538.31-2.2Q537.81-2 537.36-1.73 536.91-1.45 536.46-1.05L536.46-1.05Q536.26-0.85 535.98-0.75 535.71-0.65 535.26-0.65L535.26-0.65Q535.06-0.65 534.76-0.68 534.46-0.7 534.11-0.75L534.11-0.75ZM535.86-3.3L536.81-3.25Q537.06-3.25 537.16-3.3L537.16-3.3Q538.46-3.95 539.16-4.23 539.86-4.5 540.23-5.03 540.61-5.55 540.91-6.9L540.91-6.9Q540.91-7 540.93-7.13 540.96-7.25 540.96-7.45L540.96-7.45Q540.96-8.1 540.81-8.3L540.81-8.3Q540.16-9 539.26-9L539.26-9Q538.76-9 538.28-8.9 537.81-8.8 537.36-8.85L537.36-8.85Q537.26-8.2 536.66-8.2L536.66-8.2 536.41-8.2Q536.21-7.65 535.71-7.65L535.71-7.65 535.56-7.65Q535.36-6.95 534.86-6.48 534.36-6 534.36-5.2L534.36-5.2 534.36-4.85Q534.86-4.35 534.86-3.75L534.86-3.75Q535.16-3.65 535.38-3.48 535.61-3.3 535.81-3.3L535.81-3.3 535.86-3.3ZM558.96 0.5L558.96 0.5 558.81 0.5Q558.46 0.5 558.28 0.28 558.11 0.05 558.11-0.2L558.11-0.2Q558.11-0.45 558.26-0.65 558.41-0.85 558.71-0.9L558.71-0.9Q560.11-1.15 560.61-1.88 561.11-2.6 561.28-3.58 561.46-4.55 561.81-5.5L561.81-5.5 561.86-5.65 561.56-5.85Q561.31-6 561.11-6.2 560.91-6.4 560.91-6.75L560.91-6.75Q560.91-7.05 561.23-7.48 561.56-7.9 561.76-8.15L561.76-8.15 561.76-8.2Q561.56-8.45 561.56-9.1L561.56-9.1Q561.56-9.65 561.66-10.23 561.76-10.8 561.76-11.15L561.76-11.15Q561.76-11.5 561.73-11.88 561.71-12.25 561.71-12.7L561.71-12.7Q561.71-13.5 561.98-14.23 562.26-14.95 562.31-15.7L562.31-15.7Q562.16-16.4 562.16-16.95L562.16-16.95Q562.16-17.35 562.18-17.78 562.21-18.2 562.26-18.65L562.26-18.65Q562.11-19.35 562.11-19.95L562.11-19.95Q562.11-22 562.26-24.1 562.41-26.2 562.41-28.15L562.41-28.15Q561.56-28.25 560.91-28.7L560.91-28.7Q560.41-28.5 560.01-28.5L560.01-28.5Q559.31-28.5 559.31-29.25L559.31-29.25Q559.31-29.5 559.48-29.73 559.66-29.95 560.01-29.95L560.01-29.95Q560.46-29.95 560.96-30.3 561.46-30.65 562.11-30.65L562.11-30.65Q562.66-30.65 563.01-30.53 563.36-30.4 563.86-30.4L563.86-30.4Q564.21-30.75 564.41-30.98 564.61-31.2 565.26-31.2L565.26-31.2Q565.81-31.2 565.81-30.7L565.81-30.7Q565.81-30.25 565.46-29.68 565.11-29.1 564.86-28.85L564.86-28.85Q564.86-28.8 564.88-28.75 564.91-28.7 564.91-28.6L564.91-28.6 565.51-28.55Q565.46-28.35 565.46-28.2 565.46-28.05 565.46-27.85L565.46-27.85Q565.46-27.5 565.48-27.18 565.51-26.85 565.51-26.5L565.51-26.5Q565.51-26.35 565.43-25.7 565.36-25.05 565.23-24.3 565.11-23.55 565.01-23.1L565.01-23.1 565.11-23.05Q565.41-22.85 565.41-22.4L565.41-22.4Q565.41-21.8 564.81-21.45L564.81-21.45Q564.81-20.6 564.96-19.95 565.11-19.3 565.11-18.6L565.11-18.6Q565.11-18.4 565.08-18.18 565.06-17.95 565.01-17.7L565.01-17.7 564.96-17.4Q564.96-17.1 564.76-16.9L564.76-16.9Q564.76-16.8 564.73-16.65 564.71-16.5 564.71-16.3L564.71-16.3Q564.71-15.8 564.76-15.15 564.81-14.5 564.81-14.1L564.81-14.1Q564.81-13.5 564.81-12.8 564.81-12.1 564.76-11.4L564.76-11.4Q565.31-11.95 565.93-12.33 566.56-12.7 567.46-13.65L567.46-13.65Q567.66-13.85 567.96-14.08 568.26-14.3 568.76-14.3L568.76-14.3Q569.16-14.3 570.11-14.13 571.06-13.95 571.93-13.58 572.81-13.2 572.96-12.6L572.96-12.6Q573.06-12.05 573.36-11.83 573.66-11.6 573.93-11.43 574.21-11.25 574.21-10.75L574.21-10.75Q574.21-10.65 574.18-10.53 574.16-10.4 574.11-10.25L574.11-10.25 574.11-10.1Q573.96-10.05 573.83-9.95 573.71-9.85 573.61-9.8L573.61-9.8 573.66-9.75Q574.06-9.6 574.33-9.3 574.61-9 574.61-8.5L574.61-8.5Q574.61-8.15 574.41-7.9 574.21-7.65 573.91-7.45L573.91-7.45 573.86-7.4Q573.86-7.2 573.83-6.98 573.81-6.75 573.81-6.5L573.81-6.5Q573.81-6.25 573.86-5.98 573.91-5.7 574.06-5.5L574.06-5.5Q574.21-5.3 574.21-5.05L574.21-5.05Q574.21-4.65 573.66-4.4L573.66-4.4 573.61-4.4Q573.76-4.1 573.76-3.85L573.76-3.85Q573.76-3.1 573.11-2.43 572.46-1.75 571.53-1.2 570.61-0.65 569.71-0.33 568.81 0 568.26 0L568.26 0Q568.01 0.25 567.66 0.25L567.66 0.25Q566.56 0.25 565.78-0.28 565.01-0.8 564.38-1.33 563.76-1.85 563.06-1.85L563.06-1.85Q562.21-0.9 561.08-0.25 559.96 0.4 558.96 0.5ZM567.51-1.5L567.51-1.5Q567.91-2.05 568.51-2.35 569.11-2.65 569.63-3.05 570.16-3.45 570.31-4.15L570.31-4.15Q570.16-4.65 570.01-4.93 569.86-5.2 569.86-5.4L569.86-5.4Q569.86-5.7 570.51-6.35L570.51-6.35Q570.41-6.65 570.31-6.95 570.21-7.25 570.21-7.5L570.21-7.5Q570.21-8 570.66-8.3L570.66-8.3Q570.31-8.85 570.18-9.63 570.06-10.4 569.78-11 569.51-11.6 568.71-11.6L568.71-11.6Q566.71-11.6 565.41-10L565.41-10Q565.21-9.65 565.03-9.25 564.86-8.85 564.71-8.4L564.71-8.4Q564.76-8.2 564.76-8.05 564.76-7.9 564.76-7.7L564.76-7.7Q564.76-6.95 564.61-6.2 564.46-5.45 564.26-4.7L564.26-4.7 564.26-4.65 564.31-4.45Q565.01-4.25 565.26-3.8 565.51-3.35 565.41-2.65L565.41-2.65 565.41-2.55Q565.76-2.3 566.33-1.98 566.91-1.65 567.51-1.5ZM592.26-8.5L592.26-8.5Q592.01-8.5 591.74-8.83 591.46-9.15 591.46-9.2L591.46-9.2Q591.46-9.35 591.51-9.5L591.51-9.5Q591.56-9.6 591.61-9.75 591.66-9.9 591.71-10.1L591.71-10.1Q591.81-10.45 591.89-10.8 591.96-11.15 592.01-11.35L592.01-11.35Q592.06-11.6 592.06-11.8 592.06-12 592.06-12.2L592.06-12.2Q592.06-12.3 592.04-12.38 592.01-12.45 592.01-12.5L592.01-12.5Q592.01-12.65 592.11-12.95L592.11-12.95Q592.56-14.5 592.91-16.32 593.26-18.15 593.64-19.95 594.01-21.75 594.46-23.2L594.46-23.2Q595.06-25.15 595.16-26.35L595.16-26.35Q595.21-26.9 595.19-27.4 595.16-27.9 595.21-28.45L595.21-28.45Q595.21-28.55 595.46-28.7 595.71-28.85 595.91-28.85L595.91-28.85Q596.21-28.85 596.94-28.43 597.66-28 598.26-27.48 598.86-26.95 598.86-26.6L598.86-26.6Q598.86-26.55 598.69-25.98 598.51-25.4 598.29-24.7 598.06-24 597.86-23.45L597.86-23.45Q597.26-21.75 596.81-20.5 596.36-19.25 595.96-18.05L595.96-18.05Q595.26-15.85 594.76-14.5 594.26-13.15 593.79-11.88 593.31-10.6 592.61-8.65L592.61-8.65 592.56-8.6Q592.36-8.5 592.26-8.5ZM590.71-0.65L590.71-0.65Q590.51-0.65 590.01-0.8 589.51-0.95 589.06-1.25 588.61-1.55 588.61-2.05L588.61-2.05Q588.61-2.05 588.61-2.08 588.61-2.1 588.66-2.1L588.66-2.1Q588.81-2.35 588.86-2.45L588.86-2.45Q588.96-3.6 589.74-3.88 590.51-4.15 591.11-4.15L591.11-4.15Q591.51-4.15 592.01-3.55 592.51-2.95 592.51-2.6L592.51-2.6Q592.51-1.7 591.96-1.18 591.41-0.65 590.71-0.65Z" opacity="1" transform="matrix(1,0,0,1,0,0)" fill="#141c27" class="slogan-text-1" data-fill-palette-color="secondary" id="text-1"></path></svg></g></svg></g></svg></g></svg></g><g transform="matrix(1,0,0,1,81.75558706226683,0)"><svg viewBox="0 0 80.92018587546633 81.4535963335118" height="81.4535963335118" width="80.92018587546633"><g><svg xmlns="http://www.w3.org/2000/svg" xmlns:xlink="http://www.w3.org/1999/xlink" version="1.1" x="0" y="0" viewBox="6.200000000000003 4 88.71520625180962 89.3" style="enable-background:new 0 0 100 100;" xml:space="preserve" height="81.4535963335118" width="80.92018587546633" class="icon-icon-0" data-fill-palette-color="accent" id="icon-0"><path d="M63.3 48.6c6.4-4.2 10.7-11.3 11-19.4h12.2v-7.3h-13C70.6 11.5 61.2 4 50.1 4 36.6 4 25.8 14.9 25.8 28.2c0 8.6 4.6 16.2 11.4 20.5-17.5 5.6-30.3 21.5-31 40.8 0 1 0.4 2 1 2.7 0.7 0.7 1.6 1.1 2.6 1.1h81.5c1 0 2-0.4 2.6-1.1 0.7-0.7 1.1-1.7 1-2.7C94.3 70 81.1 53.8 63.3 48.6zM50.1 45.2c-9 0-16.5-7.2-16.9-16.1H67C66.5 38.1 59.1 45.2 50.1 45.2zM50.1 11.3c7.1 0 13.2 4.4 15.7 10.5H34.4C36.9 15.6 43 11.3 50.1 11.3zM46.9 54.2V86H13.8C16.1 69 29.8 55.9 46.9 54.2zM54.3 86V54.2C71.4 55.8 85.1 69 87.3 86H54.3z" fill="#141c27" data-fill-palette-color="accent"></path></svg></g></svg></g><g></g></svg></g></svg></g><path d="M0 43.615L0 1 244.431 1 244.431 43.615 241.537 43.615 241.537 3.895 2.895 3.895 2.895 43.615 0 43.615M0 203.585L0 246.2 244.431 246.2 244.431 203.585 241.537 203.585 241.537 243.305 2.895 243.305 2.895 203.585 0 203.585" fill="#141c27" stroke="transparent" data-fill-palette-color="tertiary"></path></svg></g><defs></defs></svg><rect width="244.43135999999998" height="247.2" fill="none" stroke="none" visibility="hidden"></rect></g></svg></g></svg>